<svg width="652" height="80" viewBox="0 0 652 80" fill="none" xmlns="http://www.w3.org/2000/svg">
<path d="M547.795 20V5.08092H553.566C554.293 5.08092 554.941 5.19491 555.511 5.4229C556.081 5.63664 556.559 5.95013 556.943 6.36336C557.342 6.77659 557.642 7.27532 557.841 7.85954C558.041 8.44377 558.14 9.09924 558.14 9.82595C558.14 10.5527 558.041 11.2081 557.841 11.7924C557.642 12.3766 557.342 12.8753 556.943 13.2885C556.559 13.7018 556.081 14.0224 555.511 14.2504C554.941 14.4641 554.293 14.571 553.566 14.571H551.023V20H547.795ZM551.023 11.9847H552.754C553.509 11.9847 554.029 11.8422 554.314 11.5573C554.614 11.2723 554.763 10.802 554.763 10.1466V9.50534C554.763 8.84987 554.614 8.37964 554.314 8.09466C554.029 7.80967 553.509 7.66718 552.754 7.66718H551.023V11.9847ZM560.569 17.542H563.112V11.429H560.569V8.97099H566.276V12.0916H566.425C566.525 11.6926 566.66 11.3079 566.831 10.9374C567.016 10.5527 567.244 10.2178 567.515 9.93282C567.8 9.63359 568.142 9.39847 568.541 9.22748C568.94 9.05649 569.41 8.97099 569.952 8.97099H570.999V11.8779H568.648C567.864 11.8779 567.273 12.113 566.874 12.5832C566.475 13.0392 566.276 13.602 566.276 14.2718V17.542H569.909V20H560.569V17.542ZM578.215 20.2565C577.36 20.2565 576.591 20.1282 575.907 19.8718C575.223 19.601 574.639 19.2163 574.154 18.7176C573.684 18.2188 573.321 17.6132 573.064 16.9008C572.808 16.1883 572.679 15.3832 572.679 14.4855C572.679 13.5878 572.808 12.7827 573.064 12.0702C573.321 11.3578 573.684 10.7522 574.154 10.2534C574.639 9.75471 575.223 9.3771 575.907 9.12061C576.591 8.84987 577.36 8.7145 578.215 8.7145C579.07 8.7145 579.84 8.84987 580.524 9.12061C581.208 9.3771 581.785 9.75471 582.255 10.2534C582.739 10.7522 583.11 11.3578 583.366 12.0702C583.623 12.7827 583.751 13.5878 583.751 14.4855C583.751 15.3832 583.623 16.1883 583.366 16.9008C583.11 17.6132 582.739 18.2188 582.255 18.7176C581.785 19.2163 581.208 19.601 580.524 19.8718C579.84 20.1282 579.07 20.2565 578.215 20.2565ZM578.215 17.9053C578.928 17.9053 579.483 17.6845 579.882 17.2427C580.281 16.801 580.481 16.174 580.481 15.3618V13.6092C580.481 12.7969 580.281 12.17 579.882 11.7282C579.483 11.2865 578.928 11.0656 578.215 11.0656C577.503 11.0656 576.947 11.2865 576.548 11.7282C576.149 12.17 575.95 12.7969 575.95 13.6092V15.3618C575.95 16.174 576.149 16.801 576.548 17.2427C576.947 17.6845 577.503 17.9053 578.215 17.9053ZM586.586 21.8168H590.818V11.429H586.543V8.97099H593.981V21.0901C593.981 22.0163 593.703 22.7786 593.147 23.3771C592.592 23.9756 591.751 24.2748 590.625 24.2748H586.586V21.8168ZM592.399 7.56031C591.687 7.56031 591.188 7.41781 590.903 7.13282C590.632 6.83359 590.497 6.47735 590.497 6.06412V5.44427C590.497 5.01679 590.632 4.66056 590.903 4.37557C591.188 4.09059 591.687 3.94809 592.399 3.94809C593.098 3.94809 593.589 4.09059 593.874 4.37557C594.159 4.66056 594.302 5.01679 594.302 5.44427V6.06412C594.302 6.47735 594.159 6.83359 593.874 7.13282C593.589 7.41781 593.098 7.56031 592.399 7.56031ZM604.147 20.2565C602.294 20.2565 600.891 19.7435 599.936 18.7176C598.981 17.6916 598.504 16.2952 598.504 14.5282C598.504 13.6305 598.625 12.8254 598.867 12.113C599.124 11.3863 599.48 10.7735 599.936 10.2748C600.406 9.76183 600.969 9.3771 601.625 9.12061C602.294 8.84987 603.042 8.7145 603.869 8.7145C604.695 8.7145 605.436 8.84987 606.092 9.12061C606.747 9.3771 607.303 9.74758 607.759 10.2321C608.215 10.7165 608.564 11.3079 608.806 12.0061C609.063 12.6901 609.191 13.4595 609.191 14.3145V15.255H601.646V15.4473C601.646 16.1598 601.867 16.7369 602.308 17.1786C602.75 17.6061 603.399 17.8198 604.254 17.8198C604.909 17.8198 605.472 17.6987 605.942 17.4565C606.412 17.2 606.818 16.8651 607.16 16.4519L608.87 18.3115C608.443 18.8387 607.844 19.2947 607.075 19.6794C606.305 20.0641 605.329 20.2565 604.147 20.2565ZM603.89 10.9802C603.206 10.9802 602.658 11.1939 602.244 11.6214C601.845 12.0346 601.646 12.5975 601.646 13.3099V13.4809H606.092V13.3099C606.092 12.5832 605.892 12.0132 605.493 11.6C605.108 11.1868 604.574 10.9802 603.89 10.9802ZM617.112 20.2565C616.243 20.2565 615.459 20.1282 614.761 19.8718C614.077 19.601 613.493 19.2163 613.009 18.7176C612.538 18.2188 612.175 17.6132 611.918 16.9008C611.662 16.1883 611.534 15.3832 611.534 14.4855C611.534 13.5878 611.662 12.7827 611.918 12.0702C612.175 11.3578 612.538 10.7522 613.009 10.2534C613.493 9.75471 614.077 9.3771 614.761 9.12061C615.459 8.84987 616.236 8.7145 617.091 8.7145C618.302 8.7145 619.271 8.96387 619.998 9.4626C620.739 9.94707 621.302 10.5954 621.686 11.4076L619.25 12.7328C619.05 12.3053 618.787 11.9491 618.459 11.6641C618.145 11.3791 617.689 11.2366 617.091 11.2366C616.364 11.2366 615.801 11.4504 615.402 11.8779C615.018 12.2911 614.825 12.8611 614.825 13.5878V15.3832C614.825 16.1099 615.018 16.687 615.402 17.1145C615.801 17.5277 616.379 17.7344 617.134 17.7344C617.746 17.7344 618.224 17.5919 618.566 17.3069C618.922 17.0219 619.221 16.6514 619.463 16.1954L621.857 17.5634C621.458 18.3756 620.874 19.031 620.105 19.5298C619.35 20.0142 618.352 20.2565 617.112 20.2565ZM630.335 20C629.195 20 628.347 19.7008 627.791 19.1023C627.235 18.5038 626.957 17.7415 626.957 16.8153V11.429H623.965V8.97099H625.91C626.38 8.97099 626.715 8.87837 626.915 8.69313C627.114 8.50789 627.214 8.1659 627.214 7.66718V5.08092H630.121V8.97099H634.417V11.429H630.121V17.542H634.417V20H630.335ZM642.167 20.2565C640.942 20.2565 639.873 20.0712 638.961 19.7008C638.064 19.3303 637.387 18.8244 636.931 18.1832L638.705 16.5374C639.132 17.0076 639.631 17.3781 640.201 17.6489C640.785 17.9053 641.448 18.0336 642.189 18.0336C642.816 18.0336 643.307 17.941 643.664 17.7557C644.02 17.5562 644.198 17.257 644.198 16.858C644.198 16.5445 644.077 16.3308 643.835 16.2168C643.592 16.0885 643.257 15.9888 642.83 15.9176L641.056 15.6397C640.557 15.5684 640.094 15.4616 639.667 15.3191C639.239 15.1623 638.869 14.9557 638.555 14.6992C638.242 14.4427 637.992 14.1293 637.807 13.7588C637.622 13.3883 637.529 12.9394 637.529 12.4122C637.529 11.258 637.971 10.3532 638.854 9.69771C639.738 9.04224 640.978 8.7145 642.574 8.7145C643.656 8.7145 644.576 8.86412 645.331 9.16336C646.1 9.44835 646.713 9.86158 647.169 10.4031L645.587 12.1985C645.26 11.8422 644.839 11.543 644.326 11.3008C643.813 11.0585 643.193 10.9374 642.467 10.9374C641.241 10.9374 640.628 11.3079 640.628 12.0489C640.628 12.3766 640.75 12.6046 640.992 12.7328C641.234 12.8468 641.569 12.9394 641.996 13.0107L643.749 13.2885C644.248 13.3598 644.711 13.4738 645.138 13.6305C645.566 13.773 645.936 13.9725 646.25 14.229C646.578 14.4855 646.834 14.799 647.019 15.1695C647.205 15.5399 647.297 15.9888 647.297 16.516C647.297 17.6702 646.848 18.5822 645.951 19.2519C645.067 19.9216 643.806 20.2565 642.167 20.2565Z" fill="#000A1B"/>
<path d="M484.681 20V5.08092H494.214V7.70992H487.887V11.1298H494V13.7588H487.887V17.371H494.214V20H484.681ZM497.177 20V8.97099H500.34V10.9802H500.468C500.596 10.6667 500.753 10.3746 500.938 10.1038C501.124 9.83308 501.345 9.59796 501.601 9.39847C501.872 9.18473 502.178 9.02086 502.52 8.90687C502.876 8.77863 503.275 8.7145 503.717 8.7145C504.244 8.7145 504.729 8.80713 505.17 8.99237C505.612 9.16336 505.99 9.42697 506.303 9.78321C506.617 10.1394 506.859 10.574 507.03 11.087C507.215 11.6 507.308 12.1913 507.308 12.8611V20H504.145V13.2885C504.145 11.8636 503.525 11.1511 502.285 11.1511C502.043 11.1511 501.8 11.1868 501.558 11.258C501.33 11.315 501.124 11.4148 500.938 11.5573C500.753 11.6855 500.604 11.8494 500.49 12.0489C500.39 12.2483 500.34 12.4835 500.34 12.7542V20H497.177ZM517.003 17.9908H516.854C516.569 18.6606 516.17 19.2092 515.657 19.6366C515.158 20.0499 514.467 20.2565 513.583 20.2565C512.971 20.2565 512.408 20.1425 511.895 19.9145C511.396 19.6865 510.962 19.3374 510.591 18.8672C510.235 18.3969 509.95 17.7985 509.736 17.0718C509.537 16.345 509.437 15.483 509.437 14.4855C509.437 13.488 509.537 12.626 509.736 11.8992C509.95 11.1725 510.235 10.574 510.591 10.1038C510.962 9.63359 511.396 9.28448 511.895 9.05649C512.408 8.8285 512.971 8.7145 513.583 8.7145C514.025 8.7145 514.417 8.7715 514.759 8.8855C515.101 8.99949 515.4 9.15623 515.657 9.35573C515.928 9.55522 516.156 9.79746 516.341 10.0824C516.54 10.3532 516.711 10.6524 516.854 10.9802H517.003V4.18321H520.167V20H517.003V17.9908ZM514.951 17.7985C515.507 17.7985 515.985 17.6631 516.383 17.3924C516.797 17.1216 517.003 16.6941 517.003 16.1099V12.8611C517.003 12.2768 516.797 11.8494 516.383 11.5786C515.985 11.3079 515.507 11.1725 514.951 11.1725C514.239 11.1725 513.69 11.3934 513.306 11.8351C512.921 12.2626 512.729 12.8611 512.729 13.6305V15.3405C512.729 16.1099 512.921 16.7155 513.306 17.1573C513.69 17.5847 514.239 17.7985 514.951 17.7985Z" fill="#000A1B"/>
<path d="M256.147 20V5.08092H265.68V7.70992H259.353V11.1298H265.466V13.7588H259.353V17.371H265.68V20H256.147ZM267.745 20L271.87 14.4L268.023 8.97099H271.635L272.81 10.745L273.708 12.1771H273.879L274.798 10.745L275.995 8.97099H279.308L275.461 14.229L279.586 20H275.952L274.563 17.9267L273.601 16.4519H273.43L272.49 17.9267L271.079 20H267.745ZM281.458 4.18321H284.622V10.9802H284.75C284.878 10.6667 285.035 10.3746 285.22 10.1038C285.406 9.83308 285.626 9.59796 285.883 9.39847C286.154 9.18473 286.46 9.02086 286.802 8.90687C287.158 8.77863 287.557 8.7145 287.999 8.7145C288.526 8.7145 289.011 8.80713 289.452 8.99237C289.894 9.16336 290.272 9.42697 290.585 9.78321C290.899 10.1394 291.141 10.574 291.312 11.087C291.497 11.6 291.59 12.1913 291.59 12.8611V20H288.426V13.2885C288.426 11.8636 287.807 11.1511 286.567 11.1511C286.325 11.1511 286.082 11.1868 285.84 11.258C285.612 11.315 285.406 11.4148 285.22 11.5573C285.035 11.6855 284.885 11.8494 284.771 12.0489C284.672 12.2483 284.622 12.4835 284.622 12.7542V20H281.458V4.18321ZM299.981 7.56031C299.269 7.56031 298.77 7.41781 298.485 7.13282C298.215 6.83359 298.079 6.47735 298.079 6.06412V5.44427C298.079 5.01679 298.215 4.66056 298.485 4.37557C298.77 4.09059 299.269 3.94809 299.981 3.94809C300.694 3.94809 301.185 4.09059 301.456 4.37557C301.741 4.66056 301.884 5.01679 301.884 5.44427V6.06412C301.884 6.47735 301.741 6.83359 301.456 7.13282C301.185 7.41781 300.694 7.56031 299.981 7.56031ZM294.894 17.542H298.4V11.429H294.894V8.97099H301.563V17.542H304.812V20H294.894V17.542ZM306.962 4.18321H310.126V10.9802H310.275C310.546 10.3247 310.938 9.78321 311.451 9.35573C311.964 8.92824 312.662 8.7145 313.546 8.7145C314.158 8.7145 314.714 8.8285 315.213 9.05649C315.726 9.28448 316.16 9.63359 316.517 10.1038C316.887 10.574 317.172 11.1725 317.372 11.8992C317.585 12.626 317.692 13.488 317.692 14.4855C317.692 15.483 317.585 16.345 317.372 17.0718C317.172 17.7985 316.887 18.3969 316.517 18.8672C316.16 19.3374 315.726 19.6865 315.213 19.9145C314.714 20.1425 314.158 20.2565 313.546 20.2565C312.662 20.2565 311.964 20.0499 311.451 19.6366C310.938 19.2092 310.546 18.6606 310.275 17.9908H310.126V20H306.962V4.18321ZM312.178 17.7985C312.89 17.7985 313.439 17.5847 313.823 17.1573C314.208 16.7155 314.401 16.1099 314.401 15.3405V13.6305C314.401 12.8611 314.208 12.2626 313.823 11.8351C313.439 11.3934 312.89 11.1725 312.178 11.1725C311.622 11.1725 311.137 11.3079 310.724 11.5786C310.325 11.8494 310.126 12.2768 310.126 12.8611V16.1099C310.126 16.6941 310.325 17.1216 310.724 17.3924C311.137 17.6631 311.622 17.7985 312.178 17.7985ZM325.614 7.56031C324.901 7.56031 324.402 7.41781 324.117 7.13282C323.847 6.83359 323.711 6.47735 323.711 6.06412V5.44427C323.711 5.01679 323.847 4.66056 324.117 4.37557C324.402 4.09059 324.901 3.94809 325.614 3.94809C326.326 3.94809 326.818 4.09059 327.088 4.37557C327.373 4.66056 327.516 5.01679 327.516 5.44427V6.06412C327.516 6.47735 327.373 6.83359 327.088 7.13282C326.818 7.41781 326.326 7.56031 325.614 7.56031ZM320.527 17.542H324.032V11.429H320.527V8.97099H327.195V17.542H330.444V20H320.527V17.542ZM338.601 20C337.461 20 336.613 19.7008 336.057 19.1023C335.501 18.5038 335.224 17.7415 335.224 16.8153V11.429H332.231V8.97099H334.176C334.646 8.97099 334.981 8.87837 335.181 8.69313C335.38 8.50789 335.48 8.1659 335.48 7.66718V5.08092H338.387V8.97099H342.683V11.429H338.387V17.542H342.683V20H338.601ZM351.246 7.56031C350.533 7.56031 350.035 7.41781 349.75 7.13282C349.479 6.83359 349.343 6.47735 349.343 6.06412V5.44427C349.343 5.01679 349.479 4.66056 349.75 4.37557C350.035 4.09059 350.533 3.94809 351.246 3.94809C351.958 3.94809 352.45 4.09059 352.721 4.37557C353.006 4.66056 353.148 5.01679 353.148 5.44427V6.06412C353.148 6.47735 353.006 6.83359 352.721 7.13282C352.45 7.41781 351.958 7.56031 351.246 7.56031ZM346.159 17.542H349.664V11.429H346.159V8.97099H352.827V17.542H356.076V20H346.159V17.542ZM363.378 20.2565C362.523 20.2565 361.753 20.1282 361.069 19.8718C360.385 19.601 359.801 19.2163 359.317 18.7176C358.847 18.2188 358.483 17.6132 358.227 16.9008C357.97 16.1883 357.842 15.3832 357.842 14.4855C357.842 13.5878 357.97 12.7827 358.227 12.0702C358.483 11.3578 358.847 10.7522 359.317 10.2534C359.801 9.75471 360.385 9.3771 361.069 9.12061C361.753 8.84987 362.523 8.7145 363.378 8.7145C364.233 8.7145 365.002 8.84987 365.686 9.12061C366.37 9.3771 366.947 9.75471 367.418 10.2534C367.902 10.7522 368.272 11.3578 368.529 12.0702C368.785 12.7827 368.914 13.5878 368.914 14.4855C368.914 15.3832 368.785 16.1883 368.529 16.9008C368.272 17.6132 367.902 18.2188 367.418 18.7176C366.947 19.2163 366.37 19.601 365.686 19.8718C365.002 20.1282 364.233 20.2565 363.378 20.2565ZM363.378 17.9053C364.09 17.9053 364.646 17.6845 365.045 17.2427C365.444 16.801 365.643 16.174 365.643 15.3618V13.6092C365.643 12.7969 365.444 12.17 365.045 11.7282C364.646 11.2865 364.09 11.0656 363.378 11.0656C362.665 11.0656 362.11 11.2865 361.711 11.7282C361.312 12.17 361.112 12.7969 361.112 13.6092V15.3618C361.112 16.174 361.312 16.801 361.711 17.2427C362.11 17.6845 362.665 17.9053 363.378 17.9053ZM371.171 20V8.97099H374.334V10.9802H374.463C374.591 10.6667 374.748 10.3746 374.933 10.1038C375.118 9.83308 375.339 9.59796 375.595 9.39847C375.866 9.18473 376.173 9.02086 376.515 8.90687C376.871 8.77863 377.27 8.7145 377.711 8.7145C378.239 8.7145 378.723 8.80713 379.165 8.99237C379.607 9.16336 379.984 9.42697 380.298 9.78321C380.611 10.1394 380.853 10.574 381.024 11.087C381.21 11.6 381.302 12.1913 381.302 12.8611V20H378.139V13.2885C378.139 11.8636 377.519 11.1511 376.279 11.1511C376.037 11.1511 375.795 11.1868 375.553 11.258C375.325 11.315 375.118 11.4148 374.933 11.5573C374.748 11.6855 374.598 11.8494 374.484 12.0489C374.384 12.2483 374.334 12.4835 374.334 12.7542V20H371.171Z" fill="#000A1B"/>
<path d="M133.182 20.2565C131.928 20.2565 130.838 20.0499 129.912 19.6366C128.986 19.2234 128.238 18.6606 127.668 17.9481L129.527 15.8962C130.069 16.4947 130.66 16.9364 131.301 17.2214C131.957 17.5064 132.619 17.6489 133.289 17.6489C134.059 17.6489 134.643 17.4779 135.042 17.1359C135.441 16.7939 135.64 16.3023 135.64 15.6611C135.64 15.1338 135.483 14.7349 135.17 14.4641C134.871 14.1934 134.358 14.001 133.631 13.887L132.071 13.6305C130.731 13.4025 129.762 12.9109 129.164 12.1557C128.565 11.3863 128.266 10.4529 128.266 9.35573C128.266 7.91654 128.736 6.80509 129.677 6.02137C130.617 5.22341 131.935 4.82443 133.631 4.82443C134.785 4.82443 135.79 5.00254 136.645 5.35878C137.5 5.71501 138.191 6.19949 138.718 6.81221L136.901 8.84275C136.502 8.40102 136.032 8.05903 135.491 7.81679C134.949 7.56031 134.336 7.43206 133.652 7.43206C132.213 7.43206 131.494 8.02341 131.494 9.20611C131.494 9.71908 131.65 10.1038 131.964 10.3603C132.292 10.6168 132.819 10.8092 133.546 10.9374L135.106 11.2153C136.317 11.429 137.25 11.885 137.906 12.5832C138.561 13.2814 138.889 14.2219 138.889 15.4046C138.889 16.1028 138.768 16.7511 138.526 17.3496C138.283 17.9338 137.92 18.4468 137.436 18.8885C136.951 19.316 136.353 19.6509 135.64 19.8931C134.942 20.1354 134.123 20.2565 133.182 20.2565ZM146.533 20.2565C144.68 20.2565 143.277 19.7435 142.322 18.7176C141.367 17.6916 140.89 16.2952 140.89 14.5282C140.89 13.6305 141.011 12.8254 141.253 12.113C141.51 11.3863 141.866 10.7735 142.322 10.2748C142.792 9.76183 143.355 9.3771 144.011 9.12061C144.68 8.84987 145.428 8.7145 146.255 8.7145C147.081 8.7145 147.822 8.84987 148.478 9.12061C149.133 9.3771 149.689 9.74758 150.145 10.2321C150.601 10.7165 150.95 11.3079 151.192 12.0061C151.449 12.6901 151.577 13.4595 151.577 14.3145V15.255H144.032V15.4473C144.032 16.1598 144.253 16.7369 144.694 17.1786C145.136 17.6061 145.785 17.8198 146.64 17.8198C147.295 17.8198 147.858 17.6987 148.328 17.4565C148.798 17.2 149.204 16.8651 149.546 16.4519L151.256 18.3115C150.829 18.8387 150.23 19.2947 149.461 19.6794C148.691 20.0641 147.715 20.2565 146.533 20.2565ZM146.276 10.9802C145.592 10.9802 145.044 11.1939 144.63 11.6214C144.231 12.0346 144.032 12.5975 144.032 13.3099V13.4809H148.478V13.3099C148.478 12.5832 148.278 12.0132 147.879 11.6C147.494 11.1868 146.96 10.9802 146.276 10.9802ZM153.279 20V8.97099H155.822V10.5954H155.972C156.143 10.0824 156.385 9.64071 156.698 9.27023C157.026 8.89975 157.482 8.7145 158.066 8.7145C159.135 8.7145 159.79 9.34148 160.033 10.5954H160.161C160.246 10.3389 160.353 10.0967 160.482 9.8687C160.61 9.64071 160.767 9.44122 160.952 9.27023C161.137 9.09924 161.358 8.96387 161.614 8.86412C161.871 8.76438 162.17 8.7145 162.512 8.7145C164.051 8.7145 164.82 9.84733 164.82 12.113V20H162.277V12.4336C162.277 11.9206 162.184 11.5644 161.999 11.3649C161.828 11.1511 161.6 11.0443 161.315 11.0443C161.044 11.0443 160.809 11.1369 160.61 11.3221C160.425 11.4931 160.332 11.7639 160.332 12.1344V20H157.767V12.4336C157.767 11.9206 157.682 11.5644 157.511 11.3649C157.354 11.1511 157.133 11.0443 156.848 11.0443C156.563 11.0443 156.321 11.1369 156.121 11.3221C155.922 11.4931 155.822 11.7639 155.822 12.1344V20H153.279ZM172.165 20.2565C170.312 20.2565 168.909 19.7435 167.954 18.7176C166.999 17.6916 166.522 16.2952 166.522 14.5282C166.522 13.6305 166.643 12.8254 166.885 12.113C167.142 11.3863 167.498 10.7735 167.954 10.2748C168.424 9.76183 168.987 9.3771 169.643 9.12061C170.312 8.84987 171.06 8.7145 171.887 8.7145C172.713 8.7145 173.454 8.84987 174.11 9.12061C174.765 9.3771 175.321 9.74758 175.777 10.2321C176.233 10.7165 176.582 11.3079 176.824 12.0061C177.081 12.6901 177.209 13.4595 177.209 14.3145V15.255H169.664V15.4473C169.664 16.1598 169.885 16.7369 170.327 17.1786C170.768 17.6061 171.417 17.8198 172.272 17.8198C172.927 17.8198 173.49 17.6987 173.96 17.4565C174.43 17.2 174.837 16.8651 175.179 16.4519L176.888 18.3115C176.461 18.8387 175.863 19.2947 175.093 19.6794C174.324 20.0641 173.348 20.2565 172.165 20.2565ZM171.908 10.9802C171.224 10.9802 170.676 11.1939 170.263 11.6214C169.864 12.0346 169.664 12.5975 169.664 13.3099V13.4809H174.11V13.3099C174.11 12.5832 173.91 12.0132 173.511 11.6C173.127 11.1868 172.592 10.9802 171.908 10.9802ZM184.553 20.2565C183.328 20.2565 182.259 20.0712 181.347 19.7008C180.45 19.3303 179.773 18.8244 179.317 18.1832L181.091 16.5374C181.518 17.0076 182.017 17.3781 182.587 17.6489C183.171 17.9053 183.834 18.0336 184.575 18.0336C185.202 18.0336 185.693 17.941 186.05 17.7557C186.406 17.5562 186.584 17.257 186.584 16.858C186.584 16.5445 186.463 16.3308 186.221 16.2168C185.978 16.0885 185.643 15.9888 185.216 15.9176L183.442 15.6397C182.943 15.5684 182.48 15.4616 182.053 15.3191C181.625 15.1623 181.255 14.9557 180.941 14.6992C180.628 14.4427 180.378 14.1293 180.193 13.7588C180.008 13.3883 179.915 12.9394 179.915 12.4122C179.915 11.258 180.357 10.3532 181.24 9.69771C182.124 9.04224 183.364 8.7145 184.96 8.7145C186.042 8.7145 186.962 8.86412 187.717 9.16336C188.486 9.44835 189.099 9.86158 189.555 10.4031L187.973 12.1985C187.646 11.8422 187.225 11.543 186.712 11.3008C186.199 11.0585 185.579 10.9374 184.853 10.9374C183.627 10.9374 183.014 11.3079 183.014 12.0489C183.014 12.3766 183.136 12.6046 183.378 12.7328C183.62 12.8468 183.955 12.9394 184.382 13.0107L186.135 13.2885C186.634 13.3598 187.097 13.4738 187.524 13.6305C187.952 13.773 188.322 13.9725 188.636 14.229C188.964 14.4855 189.22 14.799 189.405 15.1695C189.591 15.5399 189.683 15.9888 189.683 16.516C189.683 17.6702 189.234 18.5822 188.337 19.2519C187.453 19.9216 186.192 20.2565 184.553 20.2565ZM198.353 20C197.213 20 196.365 19.7008 195.809 19.1023C195.253 18.5038 194.976 17.7415 194.976 16.8153V11.429H191.983V8.97099H193.928C194.398 8.97099 194.733 8.87837 194.933 8.69313C195.132 8.50789 195.232 8.1659 195.232 7.66718V5.08092H198.139V8.97099H202.435V11.429H198.139V17.542H202.435V20H198.353ZM210.613 20.2565C208.761 20.2565 207.357 19.7435 206.402 18.7176C205.448 17.6916 204.97 16.2952 204.97 14.5282C204.97 13.6305 205.091 12.8254 205.334 12.113C205.59 11.3863 205.946 10.7735 206.402 10.2748C206.873 9.76183 207.435 9.3771 208.091 9.12061C208.761 8.84987 209.509 8.7145 210.335 8.7145C211.162 8.7145 211.903 8.84987 212.558 9.12061C213.214 9.3771 213.769 9.74758 214.225 10.2321C214.681 10.7165 215.03 11.3079 215.273 12.0061C215.529 12.6901 215.657 13.4595 215.657 14.3145V15.255H208.112V15.4473C208.112 16.1598 208.333 16.7369 208.775 17.1786C209.217 17.6061 209.865 17.8198 210.72 17.8198C211.375 17.8198 211.938 17.6987 212.408 17.4565C212.879 17.2 213.285 16.8651 213.627 16.4519L215.337 18.3115C214.909 18.8387 214.311 19.2947 213.541 19.6794C212.772 20.0641 211.796 20.2565 210.613 20.2565ZM210.357 10.9802C209.673 10.9802 209.124 11.1939 208.711 11.6214C208.312 12.0346 208.112 12.5975 208.112 13.3099V13.4809H212.558V13.3099C212.558 12.5832 212.359 12.0132 211.96 11.6C211.575 11.1868 211.041 10.9802 210.357 10.9802ZM218.299 17.542H220.843V11.429H218.299V8.97099H224.006V12.0916H224.156C224.256 11.6926 224.391 11.3079 224.562 10.9374C224.747 10.5527 224.975 10.2178 225.246 9.93282C225.531 9.63359 225.873 9.39847 226.272 9.22748C226.671 9.05649 227.141 8.97099 227.683 8.97099H228.73V11.8779H226.379C225.595 11.8779 225.004 12.113 224.605 12.5832C224.206 13.0392 224.006 13.602 224.006 14.2718V17.542H227.64V20H218.299V17.542Z" fill="#000A1B"/>
<path d="M93.2861 14.9985V11.9634H100.126V14.9985H93.2861Z" fill="#000A1B"/>
<path d="M1.70992 20V5.08092H11.6061V7.70992H4.91603V11.1298H10.9008V13.7588H4.91603V20H1.70992ZM19.9123 7.56031C19.1998 7.56031 18.7011 7.41781 18.4161 7.13282C18.1453 6.83359 18.01 6.47735 18.01 6.06412V5.44427C18.01 5.01679 18.1453 4.66056 18.4161 4.37557C18.7011 4.09059 19.1998 3.94809 19.9123 3.94809C20.6247 3.94809 21.1163 4.09059 21.3871 4.37557C21.6721 4.66056 21.8146 5.01679 21.8146 5.44427V6.06412C21.8146 6.47735 21.6721 6.83359 21.3871 7.13282C21.1163 7.41781 20.6247 7.56031 19.9123 7.56031ZM14.8252 17.542H18.3306V11.429H14.8252V8.97099H21.4939V17.542H24.7428V20H14.8252V17.542ZM27.0215 20V8.97099H30.1848V10.9802H30.3131C30.4413 10.6667 30.5981 10.3746 30.7833 10.1038C30.9685 9.83308 31.1894 9.59796 31.4459 9.39847C31.7166 9.18473 32.023 9.02086 32.365 8.90687C32.7212 8.77863 33.1202 8.7145 33.5619 8.7145C34.0892 8.7145 34.5736 8.80713 35.0154 8.99237C35.4571 9.16336 35.8347 9.42697 36.1482 9.78321C36.4617 10.1394 36.7039 10.574 36.8749 11.087C37.0601 11.6 37.1528 12.1913 37.1528 12.8611V20H33.9894V13.2885C33.9894 11.8636 33.3696 11.1511 32.1299 11.1511C31.8876 11.1511 31.6454 11.1868 31.4031 11.258C31.1752 11.315 30.9685 11.4148 30.7833 11.5573C30.5981 11.6855 30.4484 11.8494 30.3344 12.0489C30.2347 12.2483 30.1848 12.4835 30.1848 12.7542V20H27.0215ZM48.8574 20C48.2019 20 47.6747 19.8361 47.2757 19.5084C46.8767 19.1664 46.6416 18.6819 46.5704 18.055H46.4635C46.264 18.7817 45.865 19.3303 45.2666 19.7008C44.6823 20.0712 43.9627 20.2565 43.1078 20.2565C42.0391 20.2565 41.177 19.9715 40.5215 19.4015C39.8803 18.8173 39.5597 18.0051 39.5597 16.9649C39.5597 15.8107 39.98 14.9557 40.8207 14.4C41.6615 13.8443 42.894 13.5664 44.5185 13.5664H46.2925V13.0107C46.2925 12.3552 46.1358 11.8636 45.8223 11.5359C45.523 11.1939 45.0101 11.0229 44.2833 11.0229C43.6136 11.0229 43.0721 11.1511 42.6589 11.4076C42.2457 11.6641 41.8895 11.999 41.5902 12.4122L39.8589 10.8733C40.2294 10.2463 40.8065 9.73333 41.5902 9.33435C42.3882 8.92112 43.407 8.7145 44.6467 8.7145C46.1571 8.7145 47.3327 9.06361 48.1734 9.76183C49.0284 10.4458 49.4559 11.486 49.4559 12.8824V17.713H50.6742V20H48.8574ZM44.3047 18.1832C44.8604 18.1832 45.3307 18.0478 45.7154 17.7771C46.1001 17.5064 46.2925 17.1145 46.2925 16.6015V15.2763H44.604C43.3073 15.2763 42.6589 15.7109 42.6589 16.5802V17.0076C42.6589 17.3924 42.8085 17.6845 43.1078 17.884C43.407 18.0835 43.806 18.1832 44.3047 18.1832ZM52.7177 17.542H56.0948V6.64122H52.7177V4.18321H59.2582V17.542H62.6353V20H52.7177V17.542Z" fill="#000A1B"/>
<path d="M10.824 79.688H8.04C6.776 79.688 5.712 79.48 4.848 79.064C3.984 78.664 3.28 78.048 2.736 77.216C2.208 76.4 1.824 75.368 1.584 74.12C1.36 72.872 1.248 71.416 1.248 69.752C1.248 67.912 1.376 66.368 1.632 65.12C1.904 63.872 2.288 62.864 2.784 62.096C3.296 61.328 3.92 60.784 4.656 60.464C5.408 60.128 6.264 59.96 7.224 59.96C8.216 59.96 9.064 60.112 9.768 60.416C10.488 60.72 11.08 61.136 11.544 61.664C12.008 62.192 12.344 62.824 12.552 63.56C12.776 64.28 12.888 65.056 12.888 65.888V74.816H10.824V73.4H10.68C10.504 73.896 10.232 74.304 9.864 74.624C9.496 74.928 8.984 75.08 8.328 75.08C7.384 75.08 6.632 74.672 6.072 73.856C5.512 73.024 5.232 71.72 5.232 69.944C5.232 68.168 5.512 66.872 6.072 66.056C6.632 65.224 7.384 64.808 8.328 64.808C8.984 64.808 9.496 64.968 9.864 65.288C10.232 65.608 10.504 66.008 10.68 66.488H10.824V65.888C10.824 63.168 9.656 61.808 7.32 61.808C6.664 61.808 6.088 61.928 5.592 62.168C5.096 62.392 4.688 62.768 4.368 63.296C4.048 63.824 3.808 64.512 3.648 65.36C3.488 66.192 3.408 67.208 3.408 68.408V71.504C3.408 72.432 3.48 73.288 3.624 74.072C3.768 74.84 4.016 75.504 4.368 76.064C4.72 76.624 5.192 77.056 5.784 77.36C6.392 77.68 7.144 77.84 8.04 77.84H10.824V79.688ZM9.144 73.4C9.656 73.4 10.064 73.256 10.368 72.968C10.672 72.68 10.824 72.264 10.824 71.72V68.168C10.824 67.624 10.672 67.208 10.368 66.92C10.064 66.632 9.656 66.488 9.144 66.488C8.584 66.488 8.152 66.688 7.848 67.088C7.544 67.472 7.392 68.168 7.392 69.176V70.712C7.392 71.72 7.544 72.424 7.848 72.824C8.152 73.208 8.584 73.4 9.144 73.4ZM15.4466 77V64.616H17.6786V66.224H17.7986C17.9906 65.696 18.2626 65.248 18.6146 64.88C18.9826 64.512 19.5026 64.328 20.1746 64.328C20.8306 64.328 21.3346 64.512 21.6866 64.88C22.0546 65.232 22.2866 65.72 22.3826 66.344H22.4786C22.7026 65.784 23.0146 65.312 23.4146 64.928C23.8146 64.528 24.3906 64.328 25.1426 64.328C26.1026 64.328 26.7666 64.664 27.1346 65.336C27.5186 66.008 27.7106 66.992 27.7106 68.288V77H25.4786V68.624C25.4786 67.76 25.3746 67.168 25.1666 66.848C24.9586 66.512 24.6226 66.344 24.1586 66.344C23.7426 66.344 23.3906 66.488 23.1026 66.776C22.8306 67.048 22.6946 67.464 22.6946 68.024V77H20.4626V68.624C20.4626 67.76 20.3586 67.168 20.1506 66.848C19.9586 66.512 19.6306 66.344 19.1666 66.344C18.7346 66.344 18.3746 66.488 18.0866 66.776C17.8146 67.048 17.6786 67.464 17.6786 68.024V77H15.4466ZM38.1653 77.288C37.2213 77.288 36.3733 77.136 35.6213 76.832C34.8693 76.528 34.2373 76.096 33.7253 75.536C33.2133 74.976 32.8213 74.304 32.5493 73.52C32.2773 72.72 32.1413 71.824 32.1413 70.832C32.1413 69.84 32.2773 68.944 32.5493 68.144C32.8373 67.344 33.2293 66.664 33.7253 66.104C34.2373 65.528 34.8533 65.088 35.5733 64.784C36.2933 64.48 37.0933 64.328 37.9733 64.328C38.8373 64.328 39.6213 64.48 40.3253 64.784C41.0293 65.072 41.6293 65.488 42.1253 66.032C42.6213 66.576 42.9973 67.224 43.2533 67.976C43.5253 68.728 43.6613 69.56 43.6613 70.472V71.456H34.7813V71.864C34.7813 72.84 35.0853 73.64 35.6933 74.264C36.3013 74.872 37.1413 75.176 38.2133 75.176C39.0133 75.176 39.6933 75.008 40.2533 74.672C40.8293 74.32 41.2933 73.856 41.6453 73.28L43.2773 74.72C42.8613 75.44 42.2213 76.048 41.3573 76.544C40.5093 77.04 39.4453 77.288 38.1653 77.288ZM37.9733 66.32C37.5093 66.32 37.0773 66.4 36.6773 66.56C36.2933 66.72 35.9573 66.952 35.6693 67.256C35.3973 67.544 35.1813 67.888 35.0213 68.288C34.8613 68.688 34.7813 69.128 34.7813 69.608V69.776H40.9973V69.536C40.9973 68.56 40.7173 67.784 40.1573 67.208C39.6133 66.616 38.8853 66.32 37.9733 66.32ZM54.9799 62.36C54.3079 62.36 53.8359 62.224 53.5639 61.952C53.3079 61.68 53.1799 61.344 53.1799 60.944V60.44C53.1799 60.04 53.3079 59.704 53.5639 59.432C53.8359 59.16 54.2999 59.024 54.9559 59.024C55.6279 59.024 56.0919 59.16 56.3479 59.432C56.6199 59.704 56.7559 60.04 56.7559 60.44V60.944C56.7559 61.344 56.6199 61.68 56.3479 61.952C56.0919 62.224 55.6359 62.36 54.9799 62.36ZM49.4359 74.888H53.6599V66.728H49.4359V64.616H56.2759V74.888H60.2359V77H49.4359V74.888ZM71.2665 77C70.1785 77 69.3785 76.712 68.8665 76.136C68.3545 75.544 68.0985 74.784 68.0985 73.856V66.728H64.2825V64.616H66.9945C67.4585 64.616 67.7865 64.528 67.9785 64.352C68.1705 64.16 68.2665 63.824 68.2665 63.344V60.248H70.7145V64.616H75.9945V66.728H70.7145V74.888H75.9945V77H71.2665ZM91.4411 77C90.6891 77 90.1211 76.808 89.7371 76.424C89.3691 76.04 89.1451 75.536 89.0651 74.912H88.9451C88.7051 75.664 88.2651 76.248 87.6251 76.664C87.0011 77.08 86.2011 77.288 85.2251 77.288C83.9611 77.288 82.9531 76.96 82.2011 76.304C81.4491 75.632 81.0731 74.712 81.0731 73.544C81.0731 72.344 81.5131 71.432 82.3931 70.808C83.2891 70.168 84.6571 69.848 86.4971 69.848H88.8731V68.888C88.8731 67.208 87.9851 66.368 86.2091 66.368C85.4091 66.368 84.7611 66.528 84.2651 66.848C83.7691 67.152 83.3531 67.56 83.0171 68.072L81.4571 66.8C81.8091 66.128 82.4011 65.552 83.2331 65.072C84.0651 64.576 85.1371 64.328 86.4491 64.328C88.0171 64.328 89.2491 64.704 90.1451 65.456C91.0411 66.208 91.4891 67.296 91.4891 68.72V74.936H93.0491V77H91.4411ZM85.9691 75.368C86.8171 75.368 87.5131 75.176 88.0571 74.792C88.6011 74.408 88.8731 73.912 88.8731 73.304V71.504H86.5451C84.6571 71.504 83.7131 72.072 83.7131 73.208V73.688C83.7131 74.248 83.9131 74.672 84.3131 74.96C84.7131 75.232 85.2651 75.368 85.9691 75.368ZM97.7677 74.888H101.056V66.728H97.7677V64.616H103.672V67.904H103.816C103.928 67.472 104.088 67.056 104.296 66.656C104.504 66.256 104.768 65.912 105.088 65.624C105.408 65.32 105.8 65.08 106.264 64.904C106.728 64.712 107.272 64.616 107.896 64.616H109.384V67.112H106.936C105.976 67.112 105.192 67.4 104.584 67.976C103.976 68.536 103.672 69.296 103.672 70.256V74.888H108.16V77H97.7677V74.888ZM119.478 77.288C118.134 77.288 116.974 77.072 115.998 76.64C115.038 76.208 114.262 75.632 113.67 74.912L115.278 73.472C115.822 74.064 116.43 74.52 117.102 74.84C117.79 75.144 118.598 75.296 119.526 75.296C120.374 75.296 121.054 75.152 121.566 74.864C122.094 74.576 122.358 74.128 122.358 73.52C122.358 73.264 122.31 73.048 122.214 72.872C122.118 72.696 121.982 72.552 121.806 72.44C121.63 72.328 121.422 72.24 121.182 72.176C120.958 72.112 120.718 72.064 120.462 72.032L118.494 71.72C118.014 71.656 117.526 71.552 117.03 71.408C116.534 71.264 116.086 71.064 115.686 70.808C115.302 70.536 114.982 70.192 114.726 69.776C114.486 69.36 114.366 68.832 114.366 68.192C114.366 66.928 114.846 65.968 115.806 65.312C116.782 64.656 118.062 64.328 119.646 64.328C120.798 64.328 121.79 64.504 122.622 64.856C123.47 65.192 124.174 65.664 124.734 66.272L123.27 67.808C122.95 67.44 122.494 67.104 121.902 66.8C121.31 66.48 120.526 66.32 119.55 66.32C117.806 66.32 116.934 66.872 116.934 67.976C116.934 68.504 117.118 68.872 117.486 69.08C117.87 69.272 118.318 69.4 118.83 69.464L120.798 69.776C121.294 69.856 121.782 69.96 122.262 70.088C122.758 70.216 123.198 70.416 123.582 70.688C123.982 70.944 124.302 71.28 124.542 71.696C124.798 72.112 124.926 72.64 124.926 73.28C124.926 74.528 124.438 75.512 123.462 76.232C122.502 76.936 121.174 77.288 119.478 77.288ZM136.029 77.288C135.085 77.288 134.237 77.136 133.485 76.832C132.733 76.528 132.101 76.096 131.589 75.536C131.077 74.976 130.685 74.304 130.413 73.52C130.141 72.72 130.005 71.824 130.005 70.832C130.005 69.84 130.141 68.944 130.413 68.144C130.701 67.344 131.093 66.664 131.589 66.104C132.101 65.528 132.717 65.088 133.437 64.784C134.157 64.48 134.957 64.328 135.837 64.328C136.701 64.328 137.485 64.48 138.189 64.784C138.893 65.072 139.493 65.488 139.989 66.032C140.485 66.576 140.861 67.224 141.117 67.976C141.389 68.728 141.525 69.56 141.525 70.472V71.456H132.645V71.864C132.645 72.84 132.949 73.64 133.557 74.264C134.165 74.872 135.005 75.176 136.077 75.176C136.877 75.176 137.557 75.008 138.117 74.672C138.693 74.32 139.157 73.856 139.509 73.28L141.141 74.72C140.725 75.44 140.085 76.048 139.221 76.544C138.373 77.04 137.309 77.288 136.029 77.288ZM135.837 66.32C135.373 66.32 134.941 66.4 134.541 66.56C134.157 66.72 133.821 66.952 133.533 67.256C133.261 67.544 133.045 67.888 132.885 68.288C132.725 68.688 132.645 69.128 132.645 69.608V69.776H138.861V69.536C138.861 68.56 138.581 67.784 138.021 67.208C137.477 66.616 136.749 66.32 135.837 66.32ZM146.676 74.888H150.78V61.352H146.676V59.24H153.396V74.888H157.5V77H146.676V74.888ZM172.994 77C172.242 77 171.674 76.808 171.29 76.424C170.922 76.04 170.698 75.536 170.618 74.912H170.498C170.258 75.664 169.818 76.248 169.178 76.664C168.554 77.08 167.754 77.288 166.778 77.288C165.514 77.288 164.506 76.96 163.754 76.304C163.002 75.632 162.626 74.712 162.626 73.544C162.626 72.344 163.066 71.432 163.946 70.808C164.842 70.168 166.21 69.848 168.05 69.848H170.426V68.888C170.426 67.208 169.538 66.368 167.762 66.368C166.962 66.368 166.314 66.528 165.818 66.848C165.322 67.152 164.906 67.56 164.57 68.072L163.01 66.8C163.362 66.128 163.954 65.552 164.786 65.072C165.618 64.576 166.69 64.328 168.002 64.328C169.57 64.328 170.802 64.704 171.698 65.456C172.594 66.208 173.042 67.296 173.042 68.72V74.936H174.602V77H172.994ZM167.522 75.368C168.37 75.368 169.066 75.176 169.61 74.792C170.154 74.408 170.426 73.912 170.426 73.304V71.504H168.098C166.21 71.504 165.266 72.072 165.266 73.208V73.688C165.266 74.248 165.466 74.672 165.866 74.96C166.266 75.232 166.818 75.368 167.522 75.368Z" fill="#000A1B"/>
</svg>
