<svg width="476" height="68" viewBox="0 0 476 68" fill="none" xmlns="http://www.w3.org/2000/svg">
<path d="M7.2 23.288C6.224 23.288 5.368 23.168 4.632 22.928C3.896 22.672 3.28 22.328 2.784 21.896C2.304 21.464 1.936 20.952 1.68 20.36C1.44 19.768 1.32 19.128 1.32 18.44C1.32 17.288 1.632 16.376 2.256 15.704C2.88 15.032 3.704 14.56 4.728 14.288V14.096C3.832 13.792 3.12 13.304 2.592 12.632C2.08 11.944 1.824 11.12 1.824 10.16C1.824 8.88 2.296 7.864 3.24 7.112C4.184 6.344 5.504 5.96 7.2 5.96C8.896 5.96 10.216 6.344 11.16 7.112C12.104 7.864 12.576 8.88 12.576 10.16C12.576 11.12 12.312 11.944 11.784 12.632C11.272 13.304 10.568 13.792 9.672 14.096V14.288C10.696 14.56 11.52 15.032 12.144 15.704C12.768 16.376 13.08 17.288 13.08 18.44C13.08 19.128 12.952 19.768 12.696 20.36C12.456 20.952 12.088 21.464 11.592 21.896C11.096 22.328 10.48 22.672 9.744 22.928C9.024 23.168 8.176 23.288 7.2 23.288ZM7.2 21.584C8.384 21.584 9.312 21.32 9.984 20.792C10.656 20.264 10.992 19.52 10.992 18.56V18.032C10.992 17.072 10.656 16.328 9.984 15.8C9.328 15.272 8.4 15.008 7.2 15.008C6 15.008 5.064 15.272 4.392 15.8C3.736 16.328 3.408 17.072 3.408 18.032V18.56C3.408 19.52 3.744 20.264 4.416 20.792C5.088 21.32 6.016 21.584 7.2 21.584ZM7.2 13.376C8.288 13.376 9.112 13.144 9.672 12.68C10.248 12.216 10.536 11.552 10.536 10.688V10.352C10.536 9.488 10.24 8.824 9.648 8.36C9.072 7.896 8.256 7.664 7.2 7.664C6.144 7.664 5.32 7.896 4.728 8.36C4.152 8.824 3.864 9.488 3.864 10.352V10.688C3.864 11.552 4.144 12.216 4.704 12.68C5.28 13.144 6.112 13.376 7.2 13.376ZM34.9733 23V16.424L29.1893 6.248H31.4933L33.8933 10.616L35.9333 14.432H36.0293L38.1173 10.616L40.5173 6.248H42.7733L36.9893 16.424V23H34.9733ZM50.5879 23.288C49.6919 23.288 48.8839 23.136 48.1639 22.832C47.4599 22.528 46.8519 22.096 46.3399 21.536C45.8439 20.96 45.4599 20.28 45.1879 19.496C44.9159 18.696 44.7799 17.808 44.7799 16.832C44.7799 15.84 44.9159 14.944 45.1879 14.144C45.4759 13.344 45.8679 12.664 46.3639 12.104C46.8599 11.528 47.4519 11.088 48.1399 10.784C48.8439 10.48 49.6199 10.328 50.4679 10.328C51.2999 10.328 52.0519 10.48 52.7239 10.784C53.4119 11.088 53.9959 11.512 54.4759 12.056C54.9559 12.584 55.3239 13.216 55.5799 13.952C55.8359 14.688 55.9639 15.496 55.9639 16.376V17.288H46.7959V17.864C46.7959 18.408 46.8839 18.912 47.0599 19.376C47.2359 19.84 47.4839 20.24 47.8039 20.576C48.1399 20.912 48.5399 21.176 49.0039 21.368C49.4839 21.544 50.0119 21.632 50.5879 21.632C51.4199 21.632 52.1399 21.44 52.7479 21.056C53.3559 20.672 53.8199 20.144 54.1399 19.472L55.5559 20.432C55.1879 21.264 54.5719 21.952 53.7079 22.496C52.8599 23.024 51.8199 23.288 50.5879 23.288ZM50.4679 11.912C49.9399 11.912 49.4519 12.008 49.0039 12.2C48.5559 12.392 48.1639 12.656 47.8279 12.992C47.5079 13.328 47.2519 13.728 47.0599 14.192C46.8839 14.64 46.7959 15.136 46.7959 15.68V15.848H53.8999V15.584C53.8999 15.04 53.8119 14.544 53.6359 14.096C53.4759 13.648 53.2439 13.264 52.9399 12.944C52.6519 12.608 52.2919 12.352 51.8599 12.176C51.4439 12 50.9799 11.912 50.4679 11.912ZM67.7625 20.984H67.6665C66.8665 22.52 65.5945 23.288 63.8505 23.288C62.3305 23.288 61.1385 22.72 60.2745 21.584C59.4265 20.448 59.0025 18.856 59.0025 16.808C59.0025 14.76 59.4265 13.168 60.2745 12.032C61.1385 10.896 62.3305 10.328 63.8505 10.328C65.5945 10.328 66.8665 11.096 67.6665 12.632H67.7625V5.24H69.6825V23H67.7625V20.984ZM64.5945 21.584C65.0265 21.584 65.4345 21.528 65.8185 21.416C66.2025 21.304 66.5385 21.144 66.8265 20.936C67.1145 20.712 67.3385 20.448 67.4985 20.144C67.6745 19.824 67.7625 19.456 67.7625 19.04V14.576C67.7625 14.16 67.6745 13.8 67.4985 13.496C67.3385 13.176 67.1145 12.912 66.8265 12.704C66.5385 12.48 66.2025 12.312 65.8185 12.2C65.4345 12.088 65.0265 12.032 64.5945 12.032C63.4745 12.032 62.6025 12.376 61.9785 13.064C61.3705 13.736 61.0665 14.632 61.0665 15.752V17.864C61.0665 18.984 61.3705 19.888 61.9785 20.576C62.6025 21.248 63.4745 21.584 64.5945 21.584ZM83.8331 23C83.0811 23 82.5451 22.808 82.2251 22.424C81.9051 22.04 81.7051 21.56 81.6251 20.984H81.5051C81.2331 21.704 80.7931 22.272 80.1851 22.688C79.5931 23.088 78.7931 23.288 77.7851 23.288C76.4891 23.288 75.4571 22.952 74.6891 22.28C73.9211 21.608 73.5371 20.688 73.5371 19.52C73.5371 18.368 73.9531 17.48 74.7851 16.856C75.6331 16.232 76.9931 15.92 78.8651 15.92H81.5051V14.696C81.5051 13.784 81.2491 13.104 80.7371 12.656C80.2251 12.192 79.4971 11.96 78.5531 11.96C77.7211 11.96 77.0411 12.128 76.5131 12.464C75.9851 12.784 75.5611 13.224 75.2411 13.784L73.9451 12.824C74.1051 12.504 74.3211 12.192 74.5931 11.888C74.8651 11.584 75.2011 11.32 75.6011 11.096C76.0011 10.856 76.4571 10.672 76.9691 10.544C77.4811 10.4 78.0491 10.328 78.6731 10.328C80.1291 10.328 81.2811 10.696 82.1291 11.432C82.9931 12.168 83.4251 13.192 83.4251 14.504V21.32H85.1531V23H83.8331ZM78.1211 21.68C78.6171 21.68 79.0651 21.624 79.4651 21.512C79.8811 21.384 80.2411 21.224 80.5451 21.032C80.8491 20.824 81.0811 20.584 81.2411 20.312C81.4171 20.024 81.5051 19.72 81.5051 19.4V17.36H78.8651C77.7131 17.36 76.8731 17.52 76.3451 17.84C75.8171 18.16 75.5531 18.624 75.5531 19.232V19.736C75.5531 20.376 75.7771 20.864 76.2251 21.2C76.6891 21.52 77.3211 21.68 78.1211 21.68ZM112.278 23L110.862 18.224H104.982L103.566 23H101.478L106.614 6.248H109.278L114.414 23H112.278ZM108.03 8.384H107.814L105.462 16.472H110.382L108.03 8.384ZM116.421 23V10.616H118.197V12.056H118.293C118.485 11.576 118.757 11.168 119.109 10.832C119.461 10.496 119.981 10.328 120.669 10.328C121.389 10.328 121.925 10.512 122.277 10.88C122.629 11.232 122.845 11.696 122.925 12.272H122.997C123.221 11.712 123.541 11.248 123.957 10.88C124.373 10.512 124.949 10.328 125.685 10.328C126.693 10.328 127.365 10.68 127.701 11.384C128.053 12.088 128.229 13.096 128.229 14.408V23H126.453V14.72C126.453 13.664 126.341 12.936 126.117 12.536C125.909 12.12 125.517 11.912 124.941 11.912C124.429 11.912 124.013 12.08 123.693 12.416C123.373 12.736 123.213 13.232 123.213 13.904V23H121.437V14.72C121.437 13.664 121.325 12.936 121.101 12.536C120.893 12.12 120.509 11.912 119.949 11.912C119.437 11.912 119.013 12.08 118.677 12.416C118.357 12.736 118.197 13.232 118.197 13.904V23H116.421ZM151.058 23.288C149.554 23.288 148.322 23.016 147.362 22.472C146.402 21.912 145.61 21.2 144.986 20.336L146.45 19.136C147.106 19.952 147.794 20.56 148.514 20.96C149.25 21.36 150.122 21.56 151.13 21.56C152.346 21.56 153.274 21.28 153.914 20.72C154.554 20.16 154.874 19.376 154.874 18.368C154.874 17.552 154.642 16.92 154.178 16.472C153.714 16.008 152.906 15.68 151.754 15.488L149.882 15.176C149.066 15.032 148.378 14.816 147.818 14.528C147.274 14.24 146.834 13.896 146.498 13.496C146.162 13.08 145.922 12.632 145.778 12.152C145.634 11.656 145.562 11.144 145.562 10.616C145.562 9.08 146.066 7.92 147.074 7.136C148.082 6.352 149.442 5.96 151.154 5.96C152.498 5.96 153.626 6.184 154.538 6.632C155.466 7.08 156.21 7.712 156.77 8.528L155.354 9.752C154.89 9.144 154.33 8.648 153.674 8.264C153.018 7.88 152.17 7.688 151.13 7.688C149.994 7.688 149.122 7.928 148.514 8.408C147.906 8.888 147.602 9.608 147.602 10.568C147.602 11.32 147.826 11.936 148.274 12.416C148.738 12.88 149.562 13.216 150.746 13.424L152.546 13.736C153.362 13.88 154.05 14.096 154.61 14.384C155.17 14.672 155.618 15.016 155.954 15.416C156.306 15.816 156.554 16.264 156.698 16.76C156.842 17.256 156.914 17.776 156.914 18.32C156.914 19.872 156.402 21.088 155.378 21.968C154.37 22.848 152.93 23.288 151.058 23.288ZM166.097 23C165.153 23 164.457 22.736 164.009 22.208C163.577 21.68 163.361 21 163.361 20.168V12.248H159.233V10.616H162.305C162.721 10.616 163.009 10.536 163.169 10.376C163.345 10.2 163.433 9.904 163.433 9.488V6.248H165.281V10.616H170.921V12.248H165.281V21.368H170.921V23H166.097ZM174.536 21.368H178.16V12.248H174.536V10.616H180.08V13.736H180.2C180.456 12.76 180.936 12 181.64 11.456C182.36 10.896 183.272 10.616 184.376 10.616H186.104V12.536H183.776C182.672 12.536 181.776 12.856 181.088 13.496C180.416 14.136 180.08 14.976 180.08 16.016V21.368H184.88V23H174.536V21.368ZM194.494 23.288C193.598 23.288 192.79 23.136 192.07 22.832C191.366 22.528 190.758 22.096 190.246 21.536C189.75 20.96 189.366 20.28 189.094 19.496C188.822 18.696 188.686 17.808 188.686 16.832C188.686 15.84 188.822 14.944 189.094 14.144C189.382 13.344 189.774 12.664 190.27 12.104C190.766 11.528 191.358 11.088 192.046 10.784C192.75 10.48 193.526 10.328 194.374 10.328C195.206 10.328 195.958 10.48 196.63 10.784C197.318 11.088 197.902 11.512 198.382 12.056C198.862 12.584 199.23 13.216 199.486 13.952C199.742 14.688 199.87 15.496 199.87 16.376V17.288H190.702V17.864C190.702 18.408 190.79 18.912 190.966 19.376C191.142 19.84 191.39 20.24 191.71 20.576C192.046 20.912 192.446 21.176 192.91 21.368C193.39 21.544 193.918 21.632 194.494 21.632C195.326 21.632 196.046 21.44 196.654 21.056C197.262 20.672 197.726 20.144 198.046 19.472L199.462 20.432C199.094 21.264 198.478 21.952 197.614 22.496C196.766 23.024 195.726 23.288 194.494 23.288ZM194.374 11.912C193.846 11.912 193.358 12.008 192.91 12.2C192.462 12.392 192.07 12.656 191.734 12.992C191.414 13.328 191.158 13.728 190.966 14.192C190.79 14.64 190.702 15.136 190.702 15.68V15.848H197.806V15.584C197.806 15.04 197.718 14.544 197.542 14.096C197.382 13.648 197.15 13.264 196.846 12.944C196.558 12.608 196.198 12.352 195.766 12.176C195.35 12 194.886 11.912 194.374 11.912ZM208.885 23.288C207.989 23.288 207.181 23.136 206.461 22.832C205.757 22.528 205.149 22.096 204.637 21.536C204.141 20.96 203.757 20.28 203.485 19.496C203.213 18.696 203.077 17.808 203.077 16.832C203.077 15.84 203.213 14.944 203.485 14.144C203.773 13.344 204.165 12.664 204.661 12.104C205.157 11.528 205.749 11.088 206.437 10.784C207.141 10.48 207.917 10.328 208.765 10.328C209.597 10.328 210.349 10.48 211.021 10.784C211.709 11.088 212.293 11.512 212.773 12.056C213.253 12.584 213.621 13.216 213.877 13.952C214.133 14.688 214.261 15.496 214.261 16.376V17.288H205.093V17.864C205.093 18.408 205.181 18.912 205.357 19.376C205.533 19.84 205.781 20.24 206.101 20.576C206.437 20.912 206.837 21.176 207.301 21.368C207.781 21.544 208.309 21.632 208.885 21.632C209.717 21.632 210.437 21.44 211.045 21.056C211.653 20.672 212.117 20.144 212.437 19.472L213.853 20.432C213.485 21.264 212.869 21.952 212.005 22.496C211.157 23.024 210.117 23.288 208.885 23.288ZM208.765 11.912C208.237 11.912 207.749 12.008 207.301 12.2C206.853 12.392 206.461 12.656 206.125 12.992C205.805 13.328 205.549 13.728 205.357 14.192C205.181 14.64 205.093 15.136 205.093 15.68V15.848H212.197V15.584C212.197 15.04 212.109 14.544 211.933 14.096C211.773 13.648 211.541 13.264 211.237 12.944C210.949 12.608 210.589 12.352 210.157 12.176C209.741 12 209.277 11.912 208.765 11.912ZM223.659 23C222.715 23 222.019 22.736 221.571 22.208C221.139 21.68 220.923 21 220.923 20.168V12.248H216.795V10.616H219.867C220.283 10.616 220.571 10.536 220.731 10.376C220.907 10.2 220.995 9.904 220.995 9.488V6.248H222.843V10.616H228.483V12.248H222.843V21.368H228.483V23H223.659ZM248.817 23H246.801V6.248H252.897C254.449 6.248 255.633 6.672 256.449 7.52C257.265 8.368 257.673 9.552 257.673 11.072C257.673 12.432 257.321 13.52 256.617 14.336C255.913 15.152 254.889 15.624 253.545 15.752L257.817 23H255.561L251.481 15.848H248.817V23ZM252.849 14.144C253.697 14.144 254.353 13.936 254.817 13.52C255.297 13.088 255.537 12.48 255.537 11.696V10.448C255.537 9.664 255.297 9.064 254.817 8.648C254.353 8.216 253.697 8 252.849 8H248.817V14.144H252.849ZM270.911 23C270.159 23 269.623 22.808 269.303 22.424C268.983 22.04 268.783 21.56 268.703 20.984H268.583C268.311 21.704 267.871 22.272 267.263 22.688C266.671 23.088 265.871 23.288 264.863 23.288C263.567 23.288 262.535 22.952 261.767 22.28C260.999 21.608 260.615 20.688 260.615 19.52C260.615 18.368 261.031 17.48 261.863 16.856C262.711 16.232 264.071 15.92 265.943 15.92H268.583V14.696C268.583 13.784 268.327 13.104 267.815 12.656C267.303 12.192 266.575 11.96 265.631 11.96C264.799 11.96 264.119 12.128 263.591 12.464C263.063 12.784 262.639 13.224 262.319 13.784L261.023 12.824C261.183 12.504 261.399 12.192 261.671 11.888C261.943 11.584 262.279 11.32 262.679 11.096C263.079 10.856 263.535 10.672 264.047 10.544C264.559 10.4 265.127 10.328 265.751 10.328C267.207 10.328 268.359 10.696 269.207 11.432C270.071 12.168 270.503 13.192 270.503 14.504V21.32H272.231V23H270.911ZM265.199 21.68C265.695 21.68 266.143 21.624 266.543 21.512C266.959 21.384 267.319 21.224 267.623 21.032C267.927 20.824 268.159 20.584 268.319 20.312C268.495 20.024 268.583 19.72 268.583 19.4V17.36H265.943C264.791 17.36 263.951 17.52 263.423 17.84C262.895 18.16 262.631 18.624 262.631 19.232V19.736C262.631 20.376 262.855 20.864 263.303 21.2C263.767 21.52 264.399 21.68 265.199 21.68ZM274.718 23V10.616H276.494V12.056H276.59C276.782 11.576 277.054 11.168 277.406 10.832C277.758 10.496 278.278 10.328 278.966 10.328C279.686 10.328 280.222 10.512 280.574 10.88C280.926 11.232 281.142 11.696 281.222 12.272H281.294C281.518 11.712 281.838 11.248 282.254 10.88C282.67 10.512 283.246 10.328 283.982 10.328C284.99 10.328 285.662 10.68 285.998 11.384C286.35 12.088 286.526 13.096 286.526 14.408V23H284.75V14.72C284.75 13.664 284.638 12.936 284.414 12.536C284.206 12.12 283.814 11.912 283.238 11.912C282.726 11.912 282.31 12.08 281.99 12.416C281.67 12.736 281.51 13.232 281.51 13.904V23H279.734V14.72C279.734 13.664 279.622 12.936 279.398 12.536C279.19 12.12 278.806 11.912 278.246 11.912C277.734 11.912 277.31 12.08 276.974 12.416C276.654 12.736 276.494 13.232 276.494 13.904V23H274.718ZM299.693 23C298.941 23 298.405 22.808 298.085 22.424C297.765 22.04 297.565 21.56 297.485 20.984H297.365C297.093 21.704 296.653 22.272 296.045 22.688C295.453 23.088 294.653 23.288 293.645 23.288C292.349 23.288 291.317 22.952 290.549 22.28C289.781 21.608 289.396 20.688 289.396 19.52C289.396 18.368 289.813 17.48 290.645 16.856C291.493 16.232 292.853 15.92 294.725 15.92H297.365V14.696C297.365 13.784 297.109 13.104 296.597 12.656C296.085 12.192 295.357 11.96 294.413 11.96C293.581 11.96 292.901 12.128 292.373 12.464C291.845 12.784 291.421 13.224 291.101 13.784L289.805 12.824C289.965 12.504 290.181 12.192 290.453 11.888C290.725 11.584 291.061 11.32 291.461 11.096C291.861 10.856 292.317 10.672 292.829 10.544C293.341 10.4 293.909 10.328 294.533 10.328C295.989 10.328 297.141 10.696 297.989 11.432C298.853 12.168 299.285 13.192 299.285 14.504V21.32H301.013V23H299.693ZM293.98 21.68C294.477 21.68 294.925 21.624 295.325 21.512C295.741 21.384 296.101 21.224 296.405 21.032C296.709 20.824 296.941 20.584 297.101 20.312C297.277 20.024 297.365 19.72 297.365 19.4V17.36H294.725C293.573 17.36 292.733 17.52 292.205 17.84C291.677 18.16 291.413 18.624 291.413 19.232V19.736C291.413 20.376 291.637 20.864 292.085 21.2C292.549 21.52 293.181 21.68 293.98 21.68ZM310.003 23C309.059 23 308.363 22.736 307.915 22.208C307.483 21.68 307.267 21 307.267 20.168V12.248H303.139V10.616H306.211C306.627 10.616 306.915 10.536 307.075 10.376C307.251 10.2 307.339 9.904 307.339 9.488V6.248H309.187V10.616H314.827V12.248H309.187V21.368H314.827V23H310.003ZM341.64 20.768H341.52C341.376 21.088 341.208 21.4 341.016 21.704C340.824 22.008 340.576 22.28 340.272 22.52C339.984 22.744 339.632 22.928 339.216 23.072C338.8 23.216 338.304 23.288 337.728 23.288C335.904 23.288 334.544 22.552 333.648 21.08C332.768 19.608 332.328 17.496 332.328 14.744C332.328 11.864 332.816 9.68 333.792 8.192C334.768 6.704 336.272 5.96 338.304 5.96C339.088 5.96 339.768 6.064 340.344 6.272C340.92 6.48 341.408 6.76 341.808 7.112C342.224 7.464 342.568 7.864 342.84 8.312C343.112 8.744 343.336 9.184 343.512 9.632L341.784 10.424C341.64 10.056 341.472 9.712 341.28 9.392C341.104 9.056 340.88 8.768 340.608 8.528C340.352 8.272 340.04 8.072 339.672 7.928C339.304 7.784 338.872 7.712 338.376 7.712C337.032 7.712 336.04 8.216 335.4 9.224C334.776 10.232 334.464 11.576 334.464 13.256V15.848C334.464 16.696 334.528 17.472 334.656 18.176C334.784 18.864 334.992 19.464 335.28 19.976C335.584 20.488 335.968 20.888 336.432 21.176C336.912 21.448 337.496 21.584 338.184 21.584C339.272 21.584 340.12 21.256 340.728 20.6C341.336 19.944 341.64 19.096 341.64 18.056V16.328H338.112V14.72H343.512V23H341.64V20.768ZM357.255 23C356.503 23 355.967 22.808 355.647 22.424C355.327 22.04 355.127 21.56 355.047 20.984H354.927C354.655 21.704 354.215 22.272 353.607 22.688C353.015 23.088 352.215 23.288 351.207 23.288C349.911 23.288 348.879 22.952 348.111 22.28C347.343 21.608 346.959 20.688 346.959 19.52C346.959 18.368 347.375 17.48 348.207 16.856C349.055 16.232 350.415 15.92 352.287 15.92H354.927V14.696C354.927 13.784 354.671 13.104 354.159 12.656C353.647 12.192 352.919 11.96 351.975 11.96C351.143 11.96 350.463 12.128 349.935 12.464C349.407 12.784 348.983 13.224 348.663 13.784L347.367 12.824C347.527 12.504 347.743 12.192 348.015 11.888C348.287 11.584 348.623 11.32 349.023 11.096C349.423 10.856 349.879 10.672 350.391 10.544C350.903 10.4 351.471 10.328 352.095 10.328C353.551 10.328 354.703 10.696 355.551 11.432C356.415 12.168 356.847 13.192 356.847 14.504V21.32H358.575V23H357.255ZM351.543 21.68C352.039 21.68 352.487 21.624 352.887 21.512C353.303 21.384 353.663 21.224 353.967 21.032C354.271 20.824 354.503 20.584 354.663 20.312C354.839 20.024 354.927 19.72 354.927 19.4V17.36H352.287C351.135 17.36 350.295 17.52 349.767 17.84C349.239 18.16 348.975 18.624 348.975 19.232V19.736C348.975 20.376 349.199 20.864 349.647 21.2C350.111 21.52 350.743 21.68 351.543 21.68ZM362.118 23V10.616H364.038V12.632H364.134C364.262 12.328 364.422 12.04 364.614 11.768C364.806 11.48 365.038 11.232 365.31 11.024C365.598 10.816 365.934 10.648 366.318 10.52C366.702 10.392 367.15 10.328 367.662 10.328C368.958 10.328 369.998 10.744 370.782 11.576C371.566 12.392 371.958 13.552 371.958 15.056V23H370.038V15.392C370.038 14.256 369.79 13.416 369.294 12.872C368.798 12.312 368.07 12.032 367.11 12.032C366.726 12.032 366.35 12.08 365.982 12.176C365.614 12.272 365.286 12.416 364.998 12.608C364.71 12.8 364.478 13.048 364.302 13.352C364.126 13.656 364.038 14.008 364.038 14.408V23H362.118ZM390.563 23V21.392H394.739V7.856H390.563V6.248H400.931V7.856H396.755V21.392H400.931V23H390.563ZM410.282 23.288C408.986 23.288 407.866 23.072 406.922 22.64C405.994 22.192 405.202 21.6 404.546 20.864L405.842 19.736C406.434 20.36 407.082 20.84 407.786 21.176C408.49 21.512 409.338 21.68 410.33 21.68C411.29 21.68 412.074 21.512 412.682 21.176C413.306 20.824 413.618 20.28 413.618 19.544C413.618 19.224 413.554 18.96 413.426 18.752C413.314 18.528 413.154 18.352 412.946 18.224C412.738 18.096 412.506 18 412.25 17.936C411.994 17.856 411.722 17.792 411.434 17.744L409.49 17.456C409.058 17.392 408.586 17.304 408.074 17.192C407.578 17.08 407.122 16.904 406.706 16.664C406.29 16.408 405.938 16.072 405.65 15.656C405.378 15.24 405.242 14.696 405.242 14.024C405.242 13.4 405.362 12.864 405.602 12.416C405.858 11.952 406.21 11.568 406.658 11.264C407.106 10.944 407.634 10.712 408.242 10.568C408.85 10.408 409.514 10.328 410.234 10.328C411.354 10.328 412.322 10.504 413.138 10.856C413.97 11.208 414.682 11.696 415.273 12.32L414.026 13.496C413.882 13.32 413.698 13.144 413.474 12.968C413.266 12.776 413.002 12.608 412.682 12.464C412.378 12.304 412.018 12.176 411.602 12.08C411.186 11.984 410.706 11.936 410.162 11.936C409.186 11.936 408.434 12.104 407.906 12.44C407.394 12.776 407.138 13.264 407.138 13.904C407.138 14.224 407.194 14.496 407.306 14.72C407.434 14.928 407.602 15.096 407.81 15.224C408.018 15.352 408.25 15.456 408.506 15.536C408.778 15.6 409.05 15.656 409.322 15.704L411.266 15.992C411.714 16.056 412.186 16.144 412.682 16.256C413.178 16.368 413.634 16.552 414.05 16.808C414.466 17.048 414.81 17.376 415.082 17.792C415.37 18.208 415.514 18.752 415.514 19.424C415.514 20.656 415.034 21.608 414.074 22.28C413.13 22.952 411.866 23.288 410.282 23.288ZM419.176 21.368H422.8V12.248H419.176V10.616H424.72V13.736H424.84C425.096 12.76 425.576 12 426.28 11.456C427 10.896 427.912 10.616 429.016 10.616H430.744V12.536H428.416C427.312 12.536 426.416 12.856 425.728 13.496C425.056 14.136 424.72 14.976 424.72 16.016V21.368H429.52V23H419.176V21.368ZM443.599 23C442.847 23 442.311 22.808 441.991 22.424C441.671 22.04 441.471 21.56 441.391 20.984H441.271C440.999 21.704 440.559 22.272 439.951 22.688C439.359 23.088 438.559 23.288 437.551 23.288C436.255 23.288 435.223 22.952 434.455 22.28C433.687 21.608 433.303 20.688 433.303 19.52C433.303 18.368 433.719 17.48 434.551 16.856C435.399 16.232 436.759 15.92 438.631 15.92H441.271V14.696C441.271 13.784 441.015 13.104 440.503 12.656C439.991 12.192 439.263 11.96 438.319 11.96C437.487 11.96 436.807 12.128 436.279 12.464C435.751 12.784 435.327 13.224 435.007 13.784L433.711 12.824C433.871 12.504 434.087 12.192 434.359 11.888C434.631 11.584 434.967 11.32 435.367 11.096C435.767 10.856 436.223 10.672 436.735 10.544C437.247 10.4 437.815 10.328 438.439 10.328C439.895 10.328 441.047 10.696 441.895 11.432C442.759 12.168 443.191 13.192 443.191 14.504V21.32H444.919V23H443.599ZM437.887 21.68C438.383 21.68 438.831 21.624 439.231 21.512C439.647 21.384 440.007 21.224 440.311 21.032C440.615 20.824 440.847 20.584 441.007 20.312C441.183 20.024 441.271 19.72 441.271 19.4V17.36H438.631C437.479 17.36 436.639 17.52 436.111 17.84C435.583 18.16 435.319 18.624 435.319 19.232V19.736C435.319 20.376 435.543 20.864 435.991 21.2C436.455 21.52 437.087 21.68 437.887 21.68ZM453.525 23.288C452.629 23.288 451.821 23.136 451.101 22.832C450.397 22.528 449.789 22.096 449.277 21.536C448.781 20.96 448.397 20.28 448.125 19.496C447.853 18.696 447.717 17.808 447.717 16.832C447.717 15.84 447.853 14.944 448.125 14.144C448.413 13.344 448.805 12.664 449.301 12.104C449.797 11.528 450.389 11.088 451.077 10.784C451.781 10.48 452.557 10.328 453.405 10.328C454.237 10.328 454.989 10.48 455.661 10.784C456.349 11.088 456.933 11.512 457.413 12.056C457.893 12.584 458.261 13.216 458.517 13.952C458.773 14.688 458.901 15.496 458.901 16.376V17.288H449.733V17.864C449.733 18.408 449.821 18.912 449.997 19.376C450.173 19.84 450.421 20.24 450.741 20.576C451.077 20.912 451.477 21.176 451.941 21.368C452.421 21.544 452.949 21.632 453.525 21.632C454.357 21.632 455.077 21.44 455.685 21.056C456.293 20.672 456.757 20.144 457.077 19.472L458.493 20.432C458.125 21.264 457.509 21.952 456.645 22.496C455.797 23.024 454.757 23.288 453.525 23.288ZM453.405 11.912C452.877 11.912 452.389 12.008 451.941 12.2C451.493 12.392 451.101 12.656 450.765 12.992C450.445 13.328 450.189 13.728 449.997 14.192C449.821 14.64 449.733 15.136 449.733 15.68V15.848H456.837V15.584C456.837 15.04 456.749 14.544 456.573 14.096C456.413 13.648 456.181 13.264 455.877 12.944C455.589 12.608 455.229 12.352 454.797 12.176C454.381 12 453.917 11.912 453.405 11.912ZM462.42 21.368H466.74V6.872H462.42V5.24H468.66V21.368H472.98V23H462.42V21.368Z" fill="#000A1B"/>
<path d="M237.631 54.4767V49.1727H237.439L233.911 57.7887L230.383 49.1727H230.191V54.4767V62.8767H228.343V46.1247H230.935L233.887 53.5167H234.031L236.983 46.1247H239.479V62.8767H237.631V54.4767ZM249.07 47.7567C248.51 47.7567 248.118 47.6447 247.894 47.4207C247.67 47.1807 247.558 46.8847 247.558 46.5327V46.1487C247.558 45.7967 247.67 45.5087 247.894 45.2847C248.118 45.0447 248.51 44.9247 249.07 44.9247C249.63 44.9247 250.022 45.0447 250.246 45.2847C250.47 45.5087 250.582 45.7967 250.582 46.1487V46.5327C250.582 46.8847 250.47 47.1807 250.246 47.4207C250.022 47.6447 249.63 47.7567 249.07 47.7567ZM243.646 61.2447H248.11V52.1247H243.646V50.4927H250.03V61.2447H254.206V62.8767H243.646V61.2447ZM263.293 62.8767C262.349 62.8767 261.653 62.6127 261.205 62.0847C260.773 61.5567 260.557 60.8767 260.557 60.0447V52.1247H256.429V50.4927H259.501C259.917 50.4927 260.205 50.4127 260.365 50.2527C260.541 50.0767 260.629 49.7807 260.629 49.3647V46.1247H262.477V50.4927H268.117V52.1247H262.477V61.2447H268.117V62.8767H263.293ZM277.515 63.1647C276.619 63.1647 275.819 63.0127 275.115 62.7087C274.427 62.3887 273.843 61.9487 273.363 61.3887C272.883 60.8287 272.515 60.1487 272.259 59.3487C272.019 58.5487 271.899 57.6607 271.899 56.6847C271.899 55.7087 272.027 54.8207 272.283 54.0207C272.539 53.2207 272.907 52.5407 273.387 51.9807C273.867 51.4047 274.451 50.9647 275.139 50.6607C275.827 50.3567 276.611 50.2047 277.491 50.2047C278.691 50.2047 279.667 50.4687 280.419 50.9967C281.171 51.5247 281.723 52.2127 282.075 53.0607L280.539 53.8767C280.315 53.2367 279.939 52.7407 279.411 52.3887C278.899 52.0367 278.259 51.8607 277.491 51.8607C276.931 51.8607 276.427 51.9567 275.979 52.1487C275.547 52.3247 275.179 52.5807 274.875 52.9167C274.571 53.2527 274.339 53.6527 274.179 54.1167C274.035 54.5807 273.963 55.0847 273.963 55.6287V57.7407C273.963 58.2847 274.035 58.7887 274.179 59.2527C274.339 59.7167 274.571 60.1167 274.875 60.4527C275.179 60.7887 275.555 61.0527 276.003 61.2447C276.451 61.4207 276.963 61.5087 277.539 61.5087C278.371 61.5087 279.059 61.3167 279.603 60.9327C280.147 60.5487 280.579 60.0207 280.899 59.3487L282.267 60.2847C281.899 61.1167 281.323 61.8047 280.539 62.3487C279.771 62.8927 278.763 63.1647 277.515 63.1647ZM286.626 45.1167H288.546V52.5087H288.642C288.77 52.2047 288.93 51.9167 289.122 51.6447C289.314 51.3567 289.546 51.1087 289.818 50.9007C290.106 50.6927 290.442 50.5247 290.826 50.3967C291.21 50.2687 291.658 50.2047 292.17 50.2047C293.466 50.2047 294.506 50.6207 295.29 51.4527C296.074 52.2687 296.466 53.4287 296.466 54.9327V62.8767H294.546V55.2687C294.546 54.1327 294.298 53.2927 293.802 52.7487C293.306 52.1887 292.578 51.9087 291.618 51.9087C291.234 51.9087 290.858 51.9567 290.49 52.0527C290.122 52.1487 289.794 52.2927 289.506 52.4847C289.218 52.6767 288.986 52.9247 288.81 53.2287C288.634 53.5327 288.546 53.8847 288.546 54.2847V62.8767H286.626V45.1167ZM306.081 63.1647C305.185 63.1647 304.377 63.0127 303.657 62.7087C302.953 62.4047 302.345 61.9727 301.833 61.4127C301.337 60.8367 300.953 60.1567 300.681 59.3727C300.409 58.5727 300.273 57.6847 300.273 56.7087C300.273 55.7167 300.409 54.8207 300.681 54.0207C300.969 53.2207 301.361 52.5407 301.857 51.9807C302.353 51.4047 302.945 50.9647 303.633 50.6607C304.337 50.3567 305.113 50.2047 305.961 50.2047C306.793 50.2047 307.545 50.3567 308.217 50.6607C308.905 50.9647 309.489 51.3887 309.969 51.9327C310.449 52.4607 310.817 53.0927 311.073 53.8287C311.329 54.5647 311.457 55.3727 311.457 56.2527V57.1647H302.289V57.7407C302.289 58.2847 302.377 58.7887 302.553 59.2527C302.729 59.7167 302.977 60.1167 303.297 60.4527C303.633 60.7887 304.033 61.0527 304.497 61.2447C304.977 61.4207 305.505 61.5087 306.081 61.5087C306.913 61.5087 307.633 61.3167 308.241 60.9327C308.849 60.5487 309.313 60.0207 309.633 59.3487L311.049 60.3087C310.681 61.1407 310.065 61.8287 309.201 62.3727C308.353 62.9007 307.313 63.1647 306.081 63.1647ZM305.961 51.7887C305.433 51.7887 304.945 51.8847 304.497 52.0767C304.049 52.2687 303.657 52.5327 303.321 52.8687C303.001 53.2047 302.745 53.6047 302.553 54.0687C302.377 54.5167 302.289 55.0127 302.289 55.5567V55.7247H309.393V55.4607C309.393 54.9167 309.305 54.4207 309.129 53.9727C308.969 53.5247 308.737 53.1407 308.433 52.8207C308.145 52.4847 307.785 52.2287 307.353 52.0527C306.937 51.8767 306.473 51.7887 305.961 51.7887ZM314.975 61.2447H319.295V46.7487H314.975V45.1167H321.215V61.2447H325.535V62.8767H314.975V61.2447ZM329.366 61.2447H333.686V46.7487H329.366V45.1167H335.606V61.2447H339.926V62.8767H329.366V61.2447ZM358.339 46.1247H364.027C365.467 46.1247 366.595 46.5167 367.411 47.3007C368.227 48.0847 368.635 49.1327 368.635 50.4447C368.635 51.4527 368.387 52.2447 367.891 52.8207C367.411 53.3967 366.787 53.8047 366.019 54.0447V54.1167C366.963 54.3407 367.739 54.7647 368.347 55.3887C368.955 55.9967 369.259 56.8847 369.259 58.0527C369.259 58.7247 369.147 59.3567 368.923 59.9487C368.699 60.5407 368.379 61.0527 367.963 61.4847C367.563 61.9167 367.083 62.2607 366.523 62.5167C365.979 62.7567 365.387 62.8767 364.747 62.8767H358.339V46.1247ZM364.147 61.1247C365.075 61.1247 365.803 60.9167 366.331 60.5007C366.859 60.0847 367.123 59.4447 367.123 58.5807V57.5967C367.123 56.7487 366.859 56.1167 366.331 55.7007C365.803 55.2687 365.075 55.0527 364.147 55.0527H360.355V61.1247H364.147ZM363.811 53.3967C364.659 53.3967 365.323 53.2127 365.803 52.8447C366.283 52.4607 366.523 51.8847 366.523 51.1167V50.1807C366.523 49.4127 366.283 48.8367 365.803 48.4527C365.323 48.0687 364.659 47.8767 363.811 47.8767H360.355V53.3967H363.811ZM380.746 60.8607H380.65C380.522 61.1647 380.362 61.4607 380.17 61.7487C379.978 62.0207 379.738 62.2607 379.45 62.4687C379.178 62.6767 378.85 62.8447 378.466 62.9727C378.082 63.1007 377.634 63.1647 377.122 63.1647C375.826 63.1647 374.786 62.7567 374.002 61.9407C373.218 61.1087 372.826 59.9407 372.826 58.4367V50.4927H374.746V58.1007C374.746 59.2367 374.994 60.0847 375.49 60.6447C375.986 61.1887 376.714 61.4607 377.674 61.4607C378.058 61.4607 378.434 61.4127 378.802 61.3167C379.17 61.2207 379.498 61.0767 379.786 60.8847C380.074 60.6927 380.306 60.4527 380.482 60.1647C380.658 59.8607 380.746 59.5007 380.746 59.0847V50.4927H382.666V62.8767H380.746V60.8607ZM392.976 47.7567C392.416 47.7567 392.024 47.6447 391.8 47.4207C391.576 47.1807 391.464 46.8847 391.464 46.5327V46.1487C391.464 45.7967 391.576 45.5087 391.8 45.2847C392.024 45.0447 392.416 44.9247 392.976 44.9247C393.536 44.9247 393.928 45.0447 394.152 45.2847C394.376 45.5087 394.488 45.7967 394.488 46.1487V46.5327C394.488 46.8847 394.376 47.1807 394.152 47.4207C393.928 47.6447 393.536 47.7567 392.976 47.7567ZM387.552 61.2447H392.016V52.1247H387.552V50.4927H393.936V61.2447H398.112V62.8767H387.552V61.2447ZM401.319 61.2447H405.639V46.7487H401.319V45.1167H407.559V61.2447H411.879V62.8767H401.319V61.2447ZM423.99 60.8607H423.894C423.094 62.3967 421.822 63.1647 420.078 63.1647C418.558 63.1647 417.366 62.5967 416.502 61.4607C415.654 60.3247 415.23 58.7327 415.23 56.6847C415.23 54.6367 415.654 53.0447 416.502 51.9087C417.366 50.7727 418.558 50.2047 420.078 50.2047C421.822 50.2047 423.094 50.9727 423.894 52.5087H423.99V45.1167H425.91V62.8767H423.99V60.8607ZM420.822 61.4607C421.254 61.4607 421.662 61.4047 422.046 61.2927C422.43 61.1807 422.766 61.0207 423.054 60.8127C423.342 60.5887 423.566 60.3247 423.726 60.0207C423.902 59.7007 423.99 59.3327 423.99 58.9167V54.4527C423.99 54.0367 423.902 53.6767 423.726 53.3727C423.566 53.0527 423.342 52.7887 423.054 52.5807C422.766 52.3567 422.43 52.1887 422.046 52.0767C421.662 51.9647 421.254 51.9087 420.822 51.9087C419.702 51.9087 418.83 52.2527 418.206 52.9407C417.598 53.6127 417.294 54.5087 417.294 55.6287V57.7407C417.294 58.8607 417.598 59.7647 418.206 60.4527C418.83 61.1247 419.702 61.4607 420.822 61.4607ZM436.148 47.7567C435.588 47.7567 435.196 47.6447 434.972 47.4207C434.748 47.1807 434.636 46.8847 434.636 46.5327V46.1487C434.636 45.7967 434.748 45.5087 434.972 45.2847C435.196 45.0447 435.588 44.9247 436.148 44.9247C436.708 44.9247 437.1 45.0447 437.324 45.2847C437.548 45.5087 437.66 45.7967 437.66 46.1487V46.5327C437.66 46.8847 437.548 47.1807 437.324 47.4207C437.1 47.6447 436.708 47.7567 436.148 47.7567ZM430.724 61.2447H435.188V52.1247H430.724V50.4927H437.108V61.2447H441.284V62.8767H430.724V61.2447ZM444.923 62.8767V50.4927H446.843V52.5087H446.939C447.067 52.2047 447.227 51.9167 447.419 51.6447C447.611 51.3567 447.843 51.1087 448.115 50.9007C448.403 50.6927 448.739 50.5247 449.123 50.3967C449.507 50.2687 449.955 50.2047 450.467 50.2047C451.763 50.2047 452.803 50.6207 453.587 51.4527C454.371 52.2687 454.763 53.4287 454.763 54.9327V62.8767H452.843V55.2687C452.843 54.1327 452.595 53.2927 452.099 52.7487C451.603 52.1887 450.875 51.9087 449.915 51.9087C449.531 51.9087 449.155 51.9567 448.787 52.0527C448.419 52.1487 448.091 52.2927 447.803 52.4847C447.515 52.6767 447.283 52.9247 447.107 53.2287C446.931 53.5327 446.843 53.8847 446.843 54.2847V62.8767H444.923ZM470.425 64.2927C470.425 65.5407 469.905 66.4607 468.865 67.0527C467.825 67.6607 466.265 67.9647 464.185 67.9647C462.185 67.9647 460.745 67.7007 459.865 67.1727C459.001 66.6447 458.569 65.8847 458.569 64.8927C458.569 64.2207 458.745 63.7007 459.097 63.3327C459.449 62.9647 459.945 62.6927 460.585 62.5167V62.2287C460.233 62.0527 459.961 61.8287 459.769 61.5567C459.577 61.2847 459.481 60.9407 459.481 60.5247C459.481 59.8847 459.689 59.4047 460.105 59.0847C460.537 58.7647 461.073 58.5247 461.713 58.3647V58.2687C460.945 57.9327 460.345 57.4367 459.913 56.7807C459.497 56.1247 459.289 55.3567 459.289 54.4767C459.289 53.8527 459.401 53.2767 459.625 52.7487C459.849 52.2207 460.169 51.7727 460.585 51.4047C461.017 51.0207 461.529 50.7247 462.121 50.5167C462.713 50.3087 463.369 50.2047 464.089 50.2047C465.017 50.2047 465.833 50.3727 466.537 50.7087V50.4927C466.537 50.0127 466.649 49.6127 466.873 49.2927C467.097 48.9727 467.481 48.8127 468.025 48.8127H470.305V50.4927H467.521V51.3327C467.969 51.7167 468.313 52.1727 468.553 52.7007C468.793 53.2287 468.913 53.8207 468.913 54.4767C468.913 55.1007 468.793 55.6767 468.553 56.2047C468.329 56.7327 468.009 57.1887 467.593 57.5727C467.177 57.9407 466.665 58.2287 466.057 58.4367C465.465 58.6447 464.809 58.7487 464.089 58.7487C463.881 58.7487 463.681 58.7407 463.489 58.7247C463.297 58.7087 463.105 58.6847 462.913 58.6527C462.721 58.6847 462.521 58.7407 462.313 58.8207C462.105 58.8847 461.913 58.9807 461.737 59.1087C461.561 59.2207 461.417 59.3567 461.305 59.5167C461.193 59.6767 461.137 59.8607 461.137 60.0687C461.137 60.4367 461.321 60.6847 461.689 60.8127C462.057 60.9247 462.537 60.9807 463.129 60.9807H465.865C467.465 60.9807 468.625 61.2847 469.345 61.8927C470.065 62.4847 470.425 63.2847 470.425 64.2927ZM468.625 64.3887C468.625 63.8927 468.425 63.4927 468.025 63.1887C467.625 62.9007 466.929 62.7567 465.937 62.7567H461.641C460.809 63.0927 460.393 63.6527 460.393 64.4367C460.393 64.9807 460.609 65.4447 461.041 65.8287C461.473 66.2287 462.193 66.4287 463.201 66.4287H465.073C466.193 66.4287 467.065 66.2527 467.689 65.9007C468.313 65.5647 468.625 65.0607 468.625 64.3887ZM464.089 57.2607C465.049 57.2607 465.753 57.0367 466.201 56.5887C466.665 56.1407 466.897 55.5487 466.897 54.8127V54.1167C466.897 53.3807 466.665 52.7967 466.201 52.3647C465.753 51.9167 465.049 51.6927 464.089 51.6927C463.129 51.6927 462.425 51.9167 461.977 52.3647C461.529 52.7967 461.305 53.3807 461.305 54.1167V54.8127C461.305 55.5487 461.529 56.1407 461.977 56.5887C462.425 57.0367 463.129 57.2607 464.089 57.2607Z" fill="#000A1B"/>
<path d="M170.158 56.5887V54.5727H177.118V56.5887H170.158Z" fill="#000A1B"/>
<path d="M4.176 62.8767H2.16V46.1247H8.256C9.808 46.1247 10.992 46.5487 11.808 47.3967C12.624 48.2447 13.032 49.4287 13.032 50.9487C13.032 52.3087 12.68 53.3967 11.976 54.2127C11.272 55.0287 10.248 55.5007 8.904 55.6287L13.176 62.8767H10.92L6.84 55.7247H4.176V62.8767ZM8.208 54.0207C9.056 54.0207 9.712 53.8127 10.176 53.3967C10.656 52.9647 10.896 52.3567 10.896 51.5727V50.3247C10.896 49.5407 10.656 48.9407 10.176 48.5247C9.712 48.0927 9.056 47.8767 8.208 47.8767H4.176V54.0207H8.208ZM21.5906 63.1647C20.7266 63.1647 19.9426 63.0127 19.2386 62.7087C18.5506 62.4047 17.9586 61.9727 17.4626 61.4127C16.9826 60.8367 16.6146 60.1567 16.3586 59.3727C16.1026 58.5727 15.9746 57.6767 15.9746 56.6847C15.9746 55.7087 16.1026 54.8207 16.3586 54.0207C16.6146 53.2207 16.9826 52.5407 17.4626 51.9807C17.9586 51.4047 18.5506 50.9647 19.2386 50.6607C19.9426 50.3567 20.7266 50.2047 21.5906 50.2047C22.4546 50.2047 23.2306 50.3567 23.9186 50.6607C24.6226 50.9647 25.2146 51.4047 25.6946 51.9807C26.1906 52.5407 26.5666 53.2207 26.8226 54.0207C27.0786 54.8207 27.2066 55.7087 27.2066 56.6847C27.2066 57.6767 27.0786 58.5727 26.8226 59.3727C26.5666 60.1567 26.1906 60.8367 25.6946 61.4127C25.2146 61.9727 24.6226 62.4047 23.9186 62.7087C23.2306 63.0127 22.4546 63.1647 21.5906 63.1647ZM21.5906 61.5087C22.6626 61.5087 23.5266 61.1887 24.1826 60.5487C24.8386 59.9087 25.1666 58.9167 25.1666 57.5727V55.7967C25.1666 54.4527 24.8386 53.4607 24.1826 52.8207C23.5266 52.1807 22.6626 51.8607 21.5906 51.8607C20.5186 51.8607 19.6546 52.1807 18.9986 52.8207C18.3426 53.4607 18.0146 54.4527 18.0146 55.7967V57.5727C18.0146 58.9167 18.3426 59.9087 18.9986 60.5487C19.6546 61.1887 20.5186 61.5087 21.5906 61.5087ZM35.9813 63.1647C35.1173 63.1647 34.3333 63.0127 33.6293 62.7087C32.9413 62.4047 32.3493 61.9727 31.8533 61.4127C31.3733 60.8367 31.0053 60.1567 30.7493 59.3727C30.4933 58.5727 30.3652 57.6767 30.3652 56.6847C30.3652 55.7087 30.4933 54.8207 30.7493 54.0207C31.0053 53.2207 31.3733 52.5407 31.8533 51.9807C32.3493 51.4047 32.9413 50.9647 33.6293 50.6607C34.3333 50.3567 35.1173 50.2047 35.9813 50.2047C36.8453 50.2047 37.6213 50.3567 38.3093 50.6607C39.0133 50.9647 39.6053 51.4047 40.0853 51.9807C40.5813 52.5407 40.9573 53.2207 41.2133 54.0207C41.4693 54.8207 41.5973 55.7087 41.5973 56.6847C41.5973 57.6767 41.4693 58.5727 41.2133 59.3727C40.9573 60.1567 40.5813 60.8367 40.0853 61.4127C39.6053 61.9727 39.0133 62.4047 38.3093 62.7087C37.6213 63.0127 36.8453 63.1647 35.9813 63.1647ZM35.9813 61.5087C37.0533 61.5087 37.9173 61.1887 38.5733 60.5487C39.2293 59.9087 39.5573 58.9167 39.5573 57.5727V55.7967C39.5573 54.4527 39.2293 53.4607 38.5733 52.8207C37.9173 52.1807 37.0533 51.8607 35.9813 51.8607C34.9093 51.8607 34.0453 52.1807 33.3893 52.8207C32.7333 53.4607 32.4053 54.4527 32.4053 55.7967V57.5727C32.4053 58.9167 32.7333 59.9087 33.3893 60.5487C34.0453 61.1887 34.9093 61.5087 35.9813 61.5087ZM44.4679 62.8767V50.4927H46.2439V51.9327H46.3399C46.5319 51.4527 46.8039 51.0447 47.1559 50.7087C47.5079 50.3727 48.0279 50.2047 48.7159 50.2047C49.4359 50.2047 49.9719 50.3887 50.3239 50.7567C50.6759 51.1087 50.8919 51.5727 50.9719 52.1487H51.0439C51.2679 51.5887 51.5879 51.1247 52.0039 50.7567C52.4199 50.3887 52.9959 50.2047 53.7319 50.2047C54.7399 50.2047 55.4119 50.5567 55.7479 51.2607C56.0999 51.9647 56.2759 52.9727 56.2759 54.2847V62.8767H54.4999V54.5967C54.4999 53.5407 54.3879 52.8127 54.1639 52.4127C53.9559 51.9967 53.5639 51.7887 52.9879 51.7887C52.4759 51.7887 52.0599 51.9567 51.7399 52.2927C51.4199 52.6127 51.2599 53.1087 51.2599 53.7807V62.8767H49.4839V54.5967C49.4839 53.5407 49.3719 52.8127 49.1479 52.4127C48.9399 51.9967 48.5559 51.7887 47.9959 51.7887C47.4839 51.7887 47.0599 51.9567 46.7239 52.2927C46.4039 52.6127 46.2439 53.1087 46.2439 53.7807V62.8767H44.4679ZM79.1771 63.1647C78.2971 63.1647 77.5051 63.0207 76.8011 62.7327C76.0971 62.4287 75.4971 62.0047 75.0011 61.4607C74.5211 60.9007 74.1451 60.2207 73.8731 59.4207C73.6171 58.6207 73.4891 57.7247 73.4891 56.7327C73.4891 55.4847 73.6731 54.3167 74.0411 53.2287C74.4251 52.1247 74.9051 51.1247 75.4811 50.2287C76.0731 49.3167 76.7291 48.5167 77.4491 47.8287C78.1691 47.1247 78.8731 46.5567 79.5611 46.1247H82.1531C81.2411 46.7807 80.4251 47.4207 79.7051 48.0447C79.0011 48.6687 78.3771 49.3247 77.8331 50.0127C77.2891 50.6847 76.8331 51.4127 76.4651 52.1967C76.0971 52.9647 75.7931 53.8367 75.5531 54.8127L75.6731 54.8607C76.0731 54.1727 76.6011 53.6047 77.2571 53.1567C77.9131 52.6927 78.7611 52.4607 79.8011 52.4607C80.5371 52.4607 81.2091 52.5807 81.8171 52.8207C82.4251 53.0607 82.9531 53.4047 83.4011 53.8527C83.8491 54.3007 84.1931 54.8447 84.4331 55.4847C84.6891 56.1247 84.8171 56.8367 84.8171 57.6207C84.8171 58.4367 84.6811 59.1887 84.4091 59.8767C84.1371 60.5487 83.7531 61.1327 83.2571 61.6287C82.7771 62.1087 82.1851 62.4847 81.4811 62.7567C80.7931 63.0287 80.0251 63.1647 79.1771 63.1647ZM79.1531 61.4607C80.3051 61.4607 81.1931 61.1487 81.8171 60.5247C82.4571 59.9007 82.7771 59.0207 82.7771 57.8847V57.6927C82.7771 56.5567 82.4571 55.6767 81.8171 55.0527C81.1931 54.4287 80.3051 54.1167 79.1531 54.1167C78.0011 54.1167 77.1051 54.4287 76.4651 55.0527C75.8411 55.6767 75.5291 56.5567 75.5291 57.6927V57.8847C75.5291 59.0207 75.8411 59.9007 76.4651 60.5247C77.1051 61.1487 78.0011 61.4607 79.1531 61.4607ZM88.3838 62.8767V61.1247H93.1838V47.6127H93.0158L88.7918 51.5487L87.6158 50.2767L92.0558 46.1247H95.1998V61.1247H99.6158V62.8767H88.3838ZM113.598 52.2687C113.598 53.5167 113.406 54.6927 113.022 55.7967C112.654 56.8847 112.174 57.8847 111.582 58.7967C110.99 59.6927 110.334 60.4927 109.614 61.1967C108.91 61.8847 108.214 62.4447 107.526 62.8767H104.934C105.846 62.2207 106.654 61.5807 107.358 60.9567C108.078 60.3327 108.71 59.6847 109.254 59.0127C109.798 58.3247 110.254 57.5967 110.622 56.8287C110.99 56.0447 111.294 55.1647 111.534 54.1887L111.414 54.1407C110.998 54.8287 110.462 55.4047 109.806 55.8687C109.166 56.3167 108.326 56.5407 107.286 56.5407C106.55 56.5407 105.87 56.4207 105.246 56.1807C104.638 55.9407 104.11 55.5967 103.662 55.1487C103.23 54.7007 102.886 54.1647 102.63 53.5407C102.39 52.9007 102.27 52.1807 102.27 51.3807C102.27 50.5647 102.398 49.8207 102.654 49.1487C102.926 48.4607 103.31 47.8767 103.806 47.3967C104.302 46.9007 104.894 46.5167 105.582 46.2447C106.286 45.9727 107.062 45.8367 107.91 45.8367C108.79 45.8367 109.582 45.9887 110.286 46.2927C110.99 46.5807 111.582 47.0047 112.062 47.5647C112.558 48.1087 112.934 48.7807 113.19 49.5807C113.462 50.3807 113.598 51.2767 113.598 52.2687ZM107.934 54.8847C109.086 54.8847 109.974 54.5727 110.598 53.9487C111.238 53.3247 111.558 52.4447 111.558 51.3087V51.1167C111.558 49.9807 111.238 49.1007 110.598 48.4767C109.974 47.8527 109.086 47.5407 107.934 47.5407C106.782 47.5407 105.886 47.8527 105.246 48.4767C104.622 49.1007 104.31 49.9807 104.31 51.1167V51.3087C104.31 52.4447 104.622 53.3247 105.246 53.9487C105.886 54.5727 106.782 54.8847 107.934 54.8847Z" fill="#000A1B"/>
</svg>
