<svg width="417" height="163" viewBox="0 0 417 163" fill="none" xmlns="http://www.w3.org/2000/svg">
<path d="M285.674 20V5.08092H295.206V7.70992H288.88V11.1298H294.993V13.7588H288.88V17.371H295.206V20H285.674ZM297.271 20L301.396 14.4L297.549 8.97099H301.161L302.337 10.745L303.235 12.1771H303.406L304.325 10.745L305.522 8.97099H308.835L304.987 14.229L309.113 20H305.479L304.09 17.9267L303.128 16.4519H302.957L302.016 17.9267L300.606 20H297.271ZM310.985 4.18321H314.148V10.9802H314.277C314.405 10.6667 314.562 10.3746 314.747 10.1038C314.932 9.83308 315.153 9.59796 315.41 9.39847C315.68 9.18473 315.987 9.02086 316.329 8.90687C316.685 8.77863 317.084 8.7145 317.526 8.7145C318.053 8.7145 318.537 8.80713 318.979 8.99237C319.421 9.16336 319.798 9.42697 320.112 9.78321C320.425 10.1394 320.668 10.574 320.839 11.087C321.024 11.6 321.116 12.1913 321.116 12.8611V20H317.953V13.2885C317.953 11.8636 317.333 11.1511 316.093 11.1511C315.851 11.1511 315.609 11.1868 315.367 11.258C315.139 11.315 314.932 11.4148 314.747 11.5573C314.562 11.6855 314.412 11.8494 314.298 12.0489C314.198 12.2483 314.148 12.4835 314.148 12.7542V20H310.985V4.18321ZM329.508 7.56031C328.796 7.56031 328.297 7.41781 328.012 7.13282C327.741 6.83359 327.606 6.47735 327.606 6.06412V5.44427C327.606 5.01679 327.741 4.66056 328.012 4.37557C328.297 4.09059 328.796 3.94809 329.508 3.94809C330.221 3.94809 330.712 4.09059 330.983 4.37557C331.268 4.66056 331.41 5.01679 331.41 5.44427V6.06412C331.41 6.47735 331.268 6.83359 330.983 7.13282C330.712 7.41781 330.221 7.56031 329.508 7.56031ZM324.421 17.542H327.926V11.429H324.421V8.97099H331.09V17.542H334.339V20H324.421V17.542ZM336.489 4.18321H339.652V10.9802H339.802C340.073 10.3247 340.465 9.78321 340.978 9.35573C341.491 8.92824 342.189 8.7145 343.072 8.7145C343.685 8.7145 344.241 8.8285 344.739 9.05649C345.252 9.28448 345.687 9.63359 346.043 10.1038C346.414 10.574 346.699 11.1725 346.898 11.8992C347.112 12.626 347.219 13.488 347.219 14.4855C347.219 15.483 347.112 16.345 346.898 17.0718C346.699 17.7985 346.414 18.3969 346.043 18.8672C345.687 19.3374 345.252 19.6865 344.739 19.9145C344.241 20.1425 343.685 20.2565 343.072 20.2565C342.189 20.2565 341.491 20.0499 340.978 19.6366C340.465 19.2092 340.073 18.6606 339.802 17.9908H339.652V20H336.489V4.18321ZM341.704 17.7985C342.417 17.7985 342.965 17.5847 343.35 17.1573C343.735 16.7155 343.927 16.1099 343.927 15.3405V13.6305C343.927 12.8611 343.735 12.2626 343.35 11.8351C342.965 11.3934 342.417 11.1725 341.704 11.1725C341.149 11.1725 340.664 11.3079 340.251 11.5786C339.852 11.8494 339.652 12.2768 339.652 12.8611V16.1099C339.652 16.6941 339.852 17.1216 340.251 17.3924C340.664 17.6631 341.149 17.7985 341.704 17.7985ZM355.14 7.56031C354.428 7.56031 353.929 7.41781 353.644 7.13282C353.373 6.83359 353.238 6.47735 353.238 6.06412V5.44427C353.238 5.01679 353.373 4.66056 353.644 4.37557C353.929 4.09059 354.428 3.94809 355.14 3.94809C355.853 3.94809 356.344 4.09059 356.615 4.37557C356.9 4.66056 357.042 5.01679 357.042 5.44427V6.06412C357.042 6.47735 356.9 6.83359 356.615 7.13282C356.344 7.41781 355.853 7.56031 355.14 7.56031ZM350.053 17.542H353.559V11.429H350.053V8.97099H356.722V17.542H359.971V20H350.053V17.542ZM368.127 20C366.987 20 366.139 19.7008 365.584 19.1023C365.028 18.5038 364.75 17.7415 364.75 16.8153V11.429H361.758V8.97099H363.703C364.173 8.97099 364.508 8.87837 364.707 8.69313C364.907 8.50789 365.007 8.1659 365.007 7.66718V5.08092H367.914V8.97099H372.21V11.429H367.914V17.542H372.21V20H368.127ZM380.772 7.56031C380.06 7.56031 379.561 7.41781 379.276 7.13282C379.005 6.83359 378.87 6.47735 378.87 6.06412V5.44427C378.87 5.01679 379.005 4.66056 379.276 4.37557C379.561 4.09059 380.06 3.94809 380.772 3.94809C381.485 3.94809 381.976 4.09059 382.247 4.37557C382.532 4.66056 382.675 5.01679 382.675 5.44427V6.06412C382.675 6.47735 382.532 6.83359 382.247 7.13282C381.976 7.41781 381.485 7.56031 380.772 7.56031ZM375.685 17.542H379.191V11.429H375.685V8.97099H382.354V17.542H385.603V20H375.685V17.542ZM392.904 20.2565C392.049 20.2565 391.28 20.1282 390.596 19.8718C389.912 19.601 389.328 19.2163 388.843 18.7176C388.373 18.2188 388.01 17.6132 387.753 16.9008C387.497 16.1883 387.369 15.3832 387.369 14.4855C387.369 13.5878 387.497 12.7827 387.753 12.0702C388.01 11.3578 388.373 10.7522 388.843 10.2534C389.328 9.75471 389.912 9.3771 390.596 9.12061C391.28 8.84987 392.049 8.7145 392.904 8.7145C393.759 8.7145 394.529 8.84987 395.213 9.12061C395.897 9.3771 396.474 9.75471 396.944 10.2534C397.429 10.7522 397.799 11.3578 398.056 12.0702C398.312 12.7827 398.44 13.5878 398.44 14.4855C398.44 15.3832 398.312 16.1883 398.056 16.9008C397.799 17.6132 397.429 18.2188 396.944 18.7176C396.474 19.2163 395.897 19.601 395.213 19.8718C394.529 20.1282 393.759 20.2565 392.904 20.2565ZM392.904 17.9053C393.617 17.9053 394.173 17.6845 394.572 17.2427C394.971 16.801 395.17 16.174 395.17 15.3618V13.6092C395.17 12.7969 394.971 12.17 394.572 11.7282C394.173 11.2865 393.617 11.0656 392.904 11.0656C392.192 11.0656 391.636 11.2865 391.237 11.7282C390.838 12.17 390.639 12.7969 390.639 13.6092V15.3618C390.639 16.174 390.838 16.801 391.237 17.2427C391.636 17.6845 392.192 17.9053 392.904 17.9053ZM400.698 20V8.97099H403.861V10.9802H403.989C404.117 10.6667 404.274 10.3746 404.459 10.1038C404.645 9.83308 404.866 9.59796 405.122 9.39847C405.393 9.18473 405.699 9.02086 406.041 8.90687C406.397 8.77863 406.796 8.7145 407.238 8.7145C407.765 8.7145 408.25 8.80713 408.692 8.99237C409.133 9.16336 409.511 9.42697 409.824 9.78321C410.138 10.1394 410.38 10.574 410.551 11.087C410.736 11.6 410.829 12.1913 410.829 12.8611V20H407.666V13.2885C407.666 11.8636 407.046 11.1511 405.806 11.1511C405.564 11.1511 405.322 11.1868 405.079 11.258C404.851 11.315 404.645 11.4148 404.459 11.5573C404.274 11.6855 404.125 11.8494 404.011 12.0489C403.911 12.2483 403.861 12.4835 403.861 12.7542V20H400.698Z" fill="#000A1B"/>
<path d="M159.991 20.2565C158.737 20.2565 157.647 20.0499 156.721 19.6366C155.795 19.2234 155.047 18.6606 154.477 17.9481L156.336 15.8962C156.878 16.4947 157.469 16.9364 158.11 17.2214C158.766 17.5064 159.428 17.6489 160.098 17.6489C160.868 17.6489 161.452 17.4779 161.851 17.1359C162.25 16.7939 162.449 16.3023 162.449 15.6611C162.449 15.1338 162.293 14.7349 161.979 14.4641C161.68 14.1934 161.167 14.001 160.44 13.887L158.88 13.6305C157.54 13.4025 156.571 12.9109 155.973 12.1557C155.375 11.3863 155.075 10.4529 155.075 9.35573C155.075 7.91654 155.546 6.80509 156.486 6.02137C157.426 5.22341 158.744 4.82443 160.44 4.82443C161.594 4.82443 162.599 5.00254 163.454 5.35878C164.309 5.71501 165 6.19949 165.527 6.81221L163.71 8.84275C163.311 8.40102 162.841 8.05903 162.3 7.81679C161.758 7.56031 161.146 7.43206 160.462 7.43206C159.022 7.43206 158.303 8.02341 158.303 9.20611C158.303 9.71908 158.46 10.1038 158.773 10.3603C159.101 10.6168 159.628 10.8092 160.355 10.9374L161.915 11.2153C163.126 11.429 164.06 11.885 164.715 12.5832C165.37 13.2814 165.698 14.2219 165.698 15.4046C165.698 16.1028 165.577 16.7511 165.335 17.3496C165.093 17.9338 164.729 18.4468 164.245 18.8885C163.76 19.316 163.162 19.6509 162.449 19.8931C161.751 20.1354 160.932 20.2565 159.991 20.2565ZM173.342 20.2565C171.489 20.2565 170.086 19.7435 169.131 18.7176C168.176 17.6916 167.699 16.2952 167.699 14.5282C167.699 13.6305 167.82 12.8254 168.062 12.113C168.319 11.3863 168.675 10.7735 169.131 10.2748C169.601 9.76183 170.164 9.3771 170.82 9.12061C171.489 8.84987 172.237 8.7145 173.064 8.7145C173.89 8.7145 174.631 8.84987 175.287 9.12061C175.942 9.3771 176.498 9.74758 176.954 10.2321C177.41 10.7165 177.759 11.3079 178.001 12.0061C178.258 12.6901 178.386 13.4595 178.386 14.3145V15.255H170.841V15.4473C170.841 16.1598 171.062 16.7369 171.504 17.1786C171.945 17.6061 172.594 17.8198 173.449 17.8198C174.104 17.8198 174.667 17.6987 175.137 17.4565C175.607 17.2 176.013 16.8651 176.355 16.4519L178.065 18.3115C177.638 18.8387 177.039 19.2947 176.27 19.6794C175.501 20.0641 174.524 20.2565 173.342 20.2565ZM173.085 10.9802C172.401 10.9802 171.853 11.1939 171.439 11.6214C171.04 12.0346 170.841 12.5975 170.841 13.3099V13.4809H175.287V13.3099C175.287 12.5832 175.087 12.0132 174.688 11.6C174.304 11.1868 173.769 10.9802 173.085 10.9802ZM180.088 20V8.97099H182.631V10.5954H182.781C182.952 10.0824 183.194 9.64071 183.507 9.27023C183.835 8.89975 184.291 8.7145 184.875 8.7145C185.944 8.7145 186.6 9.34148 186.842 10.5954H186.97C187.056 10.3389 187.162 10.0967 187.291 9.8687C187.419 9.64071 187.576 9.44122 187.761 9.27023C187.946 9.09924 188.167 8.96387 188.423 8.86412C188.68 8.76438 188.979 8.7145 189.321 8.7145C190.86 8.7145 191.63 9.84733 191.63 12.113V20H189.086V12.4336C189.086 11.9206 188.993 11.5644 188.808 11.3649C188.637 11.1511 188.409 11.0443 188.124 11.0443C187.853 11.0443 187.618 11.1369 187.419 11.3221C187.234 11.4931 187.141 11.7639 187.141 12.1344V20H184.576V12.4336C184.576 11.9206 184.491 11.5644 184.32 11.3649C184.163 11.1511 183.942 11.0443 183.657 11.0443C183.372 11.0443 183.13 11.1369 182.93 11.3221C182.731 11.4931 182.631 11.7639 182.631 12.1344V20H180.088ZM198.974 20.2565C197.121 20.2565 195.718 19.7435 194.763 18.7176C193.808 17.6916 193.331 16.2952 193.331 14.5282C193.331 13.6305 193.452 12.8254 193.695 12.113C193.951 11.3863 194.307 10.7735 194.763 10.2748C195.233 9.76183 195.796 9.3771 196.452 9.12061C197.121 8.84987 197.87 8.7145 198.696 8.7145C199.522 8.7145 200.263 8.84987 200.919 9.12061C201.574 9.3771 202.13 9.74758 202.586 10.2321C203.042 10.7165 203.391 11.3079 203.633 12.0061C203.89 12.6901 204.018 13.4595 204.018 14.3145V15.255H196.473V15.4473C196.473 16.1598 196.694 16.7369 197.136 17.1786C197.577 17.6061 198.226 17.8198 199.081 17.8198C199.736 17.8198 200.299 17.6987 200.769 17.4565C201.24 17.2 201.646 16.8651 201.988 16.4519L203.698 18.3115C203.27 18.8387 202.672 19.2947 201.902 19.6794C201.133 20.0641 200.157 20.2565 198.974 20.2565ZM198.717 10.9802C198.033 10.9802 197.485 11.1939 197.072 11.6214C196.673 12.0346 196.473 12.5975 196.473 13.3099V13.4809H200.919V13.3099C200.919 12.5832 200.719 12.0132 200.32 11.6C199.936 11.1868 199.401 10.9802 198.717 10.9802ZM211.362 20.2565C210.137 20.2565 209.068 20.0712 208.156 19.7008C207.259 19.3303 206.582 18.8244 206.126 18.1832L207.9 16.5374C208.327 17.0076 208.826 17.3781 209.396 17.6489C209.98 17.9053 210.643 18.0336 211.384 18.0336C212.011 18.0336 212.502 17.941 212.859 17.7557C213.215 17.5562 213.393 17.257 213.393 16.858C213.393 16.5445 213.272 16.3308 213.03 16.2168C212.787 16.0885 212.453 15.9888 212.025 15.9176L210.251 15.6397C209.752 15.5684 209.289 15.4616 208.862 15.3191C208.434 15.1623 208.064 14.9557 207.75 14.6992C207.437 14.4427 207.187 14.1293 207.002 13.7588C206.817 13.3883 206.724 12.9394 206.724 12.4122C206.724 11.258 207.166 10.3532 208.05 9.69771C208.933 9.04224 210.173 8.7145 211.769 8.7145C212.852 8.7145 213.771 8.86412 214.526 9.16336C215.295 9.44835 215.908 9.86158 216.364 10.4031L214.782 12.1985C214.455 11.8422 214.034 11.543 213.521 11.3008C213.008 11.0585 212.388 10.9374 211.662 10.9374C210.436 10.9374 209.824 11.3079 209.824 12.0489C209.824 12.3766 209.945 12.6046 210.187 12.7328C210.429 12.8468 210.764 12.9394 211.191 13.0107L212.944 13.2885C213.443 13.3598 213.906 13.4738 214.333 13.6305C214.761 13.773 215.131 13.9725 215.445 14.229C215.773 14.4855 216.029 14.799 216.214 15.1695C216.4 15.5399 216.492 15.9888 216.492 16.516C216.492 17.6702 216.043 18.5822 215.146 19.2519C214.262 19.9216 213.001 20.2565 211.362 20.2565ZM225.162 20C224.022 20 223.174 19.7008 222.618 19.1023C222.063 18.5038 221.785 17.7415 221.785 16.8153V11.429H218.792V8.97099H220.737C221.208 8.97099 221.542 8.87837 221.742 8.69313C221.941 8.50789 222.041 8.1659 222.041 7.66718V5.08092H224.948V8.97099H229.244V11.429H224.948V17.542H229.244V20H225.162ZM237.422 20.2565C235.57 20.2565 234.166 19.7435 233.211 18.7176C232.257 17.6916 231.779 16.2952 231.779 14.5282C231.779 13.6305 231.9 12.8254 232.143 12.113C232.399 11.3863 232.755 10.7735 233.211 10.2748C233.682 9.76183 234.245 9.3771 234.9 9.12061C235.57 8.84987 236.318 8.7145 237.144 8.7145C237.971 8.7145 238.712 8.84987 239.367 9.12061C240.023 9.3771 240.578 9.74758 241.034 10.2321C241.49 10.7165 241.839 11.3079 242.082 12.0061C242.338 12.6901 242.466 13.4595 242.466 14.3145V15.255H234.921V15.4473C234.921 16.1598 235.142 16.7369 235.584 17.1786C236.026 17.6061 236.674 17.8198 237.529 17.8198C238.184 17.8198 238.747 17.6987 239.218 17.4565C239.688 17.2 240.094 16.8651 240.436 16.4519L242.146 18.3115C241.718 18.8387 241.12 19.2947 240.35 19.6794C239.581 20.0641 238.605 20.2565 237.422 20.2565ZM237.166 10.9802C236.482 10.9802 235.933 11.1939 235.52 11.6214C235.121 12.0346 234.921 12.5975 234.921 13.3099V13.4809H239.367V13.3099C239.367 12.5832 239.168 12.0132 238.769 11.6C238.384 11.1868 237.85 10.9802 237.166 10.9802ZM245.108 17.542H247.652V11.429H245.108V8.97099H250.815V12.0916H250.965C251.065 11.6926 251.2 11.3079 251.371 10.9374C251.556 10.5527 251.784 10.2178 252.055 9.93282C252.34 9.63359 252.682 9.39847 253.081 9.22748C253.48 9.05649 253.95 8.97099 254.492 8.97099H255.539V11.8779H253.188C252.404 11.8779 251.813 12.113 251.414 12.5832C251.015 13.0392 250.815 13.602 250.815 14.2718V17.542H254.449V20H245.108V17.542Z" fill="#000A1B"/>
<path d="M106.691 14.9985V11.9634H113.53V14.9985H106.691Z" fill="#000A1B"/>
<path d="M1.70992 20V5.08092H11.6061V7.70992H4.91603V11.1298H10.9008V13.7588H4.91603V20H1.70992ZM19.9123 7.56031C19.1998 7.56031 18.7011 7.41781 18.4161 7.13282C18.1453 6.83359 18.01 6.47735 18.01 6.06412V5.44427C18.01 5.01679 18.1453 4.66056 18.4161 4.37557C18.7011 4.09059 19.1998 3.94809 19.9123 3.94809C20.6247 3.94809 21.1163 4.09059 21.3871 4.37557C21.6721 4.66056 21.8146 5.01679 21.8146 5.44427V6.06412C21.8146 6.47735 21.6721 6.83359 21.3871 7.13282C21.1163 7.41781 20.6247 7.56031 19.9123 7.56031ZM14.8252 17.542H18.3306V11.429H14.8252V8.97099H21.4939V17.542H24.7428V20H14.8252V17.542ZM27.0215 20V8.97099H30.1848V10.9802H30.3131C30.4413 10.6667 30.5981 10.3746 30.7833 10.1038C30.9685 9.83308 31.1894 9.59796 31.4459 9.39847C31.7166 9.18473 32.023 9.02086 32.365 8.90687C32.7212 8.77863 33.1202 8.7145 33.5619 8.7145C34.0892 8.7145 34.5736 8.80713 35.0154 8.99237C35.4571 9.16336 35.8347 9.42697 36.1482 9.78321C36.4617 10.1394 36.7039 10.574 36.8749 11.087C37.0601 11.6 37.1528 12.1913 37.1528 12.8611V20H33.9894V13.2885C33.9894 11.8636 33.3696 11.1511 32.1299 11.1511C31.8876 11.1511 31.6454 11.1868 31.4031 11.258C31.1752 11.315 30.9685 11.4148 30.7833 11.5573C30.5981 11.6855 30.4484 11.8494 30.3344 12.0489C30.2347 12.2483 30.1848 12.4835 30.1848 12.7542V20H27.0215ZM48.8574 20C48.2019 20 47.6747 19.8361 47.2757 19.5084C46.8767 19.1664 46.6416 18.6819 46.5704 18.055H46.4635C46.264 18.7817 45.865 19.3303 45.2666 19.7008C44.6823 20.0712 43.9627 20.2565 43.1078 20.2565C42.0391 20.2565 41.177 19.9715 40.5215 19.4015C39.8803 18.8173 39.5597 18.0051 39.5597 16.9649C39.5597 15.8107 39.98 14.9557 40.8207 14.4C41.6615 13.8443 42.894 13.5664 44.5185 13.5664H46.2925V13.0107C46.2925 12.3552 46.1358 11.8636 45.8223 11.5359C45.523 11.1939 45.0101 11.0229 44.2833 11.0229C43.6136 11.0229 43.0721 11.1511 42.6589 11.4076C42.2457 11.6641 41.8895 11.999 41.5902 12.4122L39.8589 10.8733C40.2294 10.2463 40.8065 9.73333 41.5902 9.33435C42.3882 8.92112 43.407 8.7145 44.6467 8.7145C46.1571 8.7145 47.3327 9.06361 48.1734 9.76183C49.0284 10.4458 49.4559 11.486 49.4559 12.8824V17.713H50.6742V20H48.8574ZM44.3047 18.1832C44.8604 18.1832 45.3307 18.0478 45.7154 17.7771C46.1001 17.5064 46.2925 17.1145 46.2925 16.6015V15.2763H44.604C43.3073 15.2763 42.6589 15.7109 42.6589 16.5802V17.0076C42.6589 17.3924 42.8085 17.6845 43.1078 17.884C43.407 18.0835 43.806 18.1832 44.3047 18.1832ZM52.7177 17.542H56.0948V6.64122H52.7177V4.18321H59.2582V17.542H62.6353V20H52.7177V17.542Z" fill="#000A1B"/>
<path d="M5.3021 65.4834L0.785496 50.2535H2.72742L4.88753 57.8685L6.52398 63.6288H6.63308L8.26953 57.8685L10.4296 50.2535H12.3061L7.7895 65.4834H5.3021ZM20.3271 51.7372C19.818 51.7372 19.4616 51.6354 19.258 51.4317C19.0543 51.2136 18.9525 50.9444 18.9525 50.6244V50.2753C18.9525 49.9553 19.0543 49.6935 19.258 49.4898C19.4616 49.2716 19.818 49.1625 20.3271 49.1625C20.8362 49.1625 21.1926 49.2716 21.3962 49.4898C21.5999 49.6935 21.7017 49.9553 21.7017 50.2753V50.6244C21.7017 50.9444 21.5999 51.2136 21.3962 51.4317C21.1926 51.6354 20.8362 51.7372 20.3271 51.7372ZM15.3959 63.9997H19.4543V55.7083H15.3959V54.2246H21.1999V63.9997H24.9964V65.4834H15.3959V63.9997ZM32.8429 65.7452C31.6646 65.7452 30.6464 65.5489 29.7882 65.1561C28.9445 64.7488 28.2244 64.2106 27.6281 63.5415L28.8063 62.516C29.3445 63.0833 29.9336 63.5197 30.5737 63.8251C31.2137 64.1306 31.9846 64.2833 32.8865 64.2833C33.7593 64.2833 34.4721 64.1306 35.0248 63.8251C35.5921 63.5051 35.8758 63.0105 35.8758 62.3414C35.8758 62.0505 35.8176 61.8105 35.7012 61.6214C35.5994 61.4177 35.4539 61.2577 35.2648 61.1414C35.0757 61.025 34.8648 60.9377 34.6321 60.8795C34.3993 60.8068 34.152 60.7486 33.8902 60.705L32.1228 60.4431C31.7301 60.3849 31.301 60.3049 30.8355 60.2031C30.3846 60.1013 29.97 59.9413 29.5918 59.7231C29.2136 59.4904 28.8936 59.1849 28.6317 58.8067C28.3845 58.4285 28.2608 57.9339 28.2608 57.323C28.2608 56.7557 28.3699 56.2684 28.5881 55.8611C28.8208 55.4392 29.1409 55.0901 29.5482 54.8137C29.9554 54.5228 30.4355 54.3119 30.9882 54.181C31.541 54.0355 32.1447 53.9628 32.7992 53.9628C33.8175 53.9628 34.6975 54.1228 35.4394 54.4428C36.1958 54.7628 36.8431 55.2065 37.3813 55.7738L36.2467 56.8429C36.1158 56.6829 35.9485 56.5229 35.7448 56.3629C35.5557 56.1884 35.3157 56.0356 35.0248 55.9047C34.7484 55.7592 34.4211 55.6429 34.0429 55.5556C33.6647 55.4683 33.2283 55.4247 32.7338 55.4247C31.8465 55.4247 31.1628 55.5774 30.6828 55.8829C30.2173 56.1884 29.9845 56.632 29.9845 57.2139C29.9845 57.5048 30.0355 57.7521 30.1373 57.9557C30.2536 58.1448 30.4064 58.2976 30.5955 58.4139C30.7846 58.5303 30.9955 58.6249 31.2282 58.6976C31.4755 58.7558 31.7228 58.8067 31.9701 58.8503L33.7375 59.1122C34.1448 59.1703 34.5739 59.2503 35.0248 59.3522C35.4757 59.454 35.8903 59.6213 36.2685 59.854C36.6467 60.0722 36.9595 60.3704 37.2067 60.7486C37.4686 61.1268 37.5995 61.6214 37.5995 62.2323C37.5995 63.3524 37.1631 64.2179 36.2903 64.8288C35.4321 65.4398 34.283 65.7452 32.8429 65.7452ZM48.457 63.6506H48.3697C48.2534 63.927 48.1079 64.1961 47.9333 64.4579C47.7588 64.7052 47.5406 64.9234 47.2788 65.1125C47.0315 65.3016 46.7333 65.4543 46.3842 65.5707C46.0351 65.687 45.6278 65.7452 45.1623 65.7452C43.984 65.7452 43.0385 65.3743 42.3258 64.6324C41.613 63.876 41.2566 62.8142 41.2566 61.4468V54.2246H43.0022V61.1414C43.0022 62.1741 43.2276 62.9451 43.6786 63.4542C44.1295 63.9488 44.7913 64.1961 45.6641 64.1961C46.0132 64.1961 46.3551 64.1524 46.6896 64.0651C47.0242 63.9779 47.3224 63.8469 47.5842 63.6724C47.8461 63.4978 48.057 63.2796 48.217 63.0178C48.377 62.7414 48.457 62.4141 48.457 62.0359V54.2246H50.2025V65.4834H48.457V63.6506ZM63.1329 65.4834C62.4492 65.4834 61.9619 65.3088 61.671 64.9597C61.3801 64.6106 61.1982 64.1742 61.1255 63.6506H61.0164C60.7691 64.3052 60.3691 64.8215 59.8163 65.1997C59.2781 65.5634 58.5508 65.7452 57.6344 65.7452C56.4562 65.7452 55.5179 65.4398 54.8197 64.8288C54.1215 64.2179 53.7724 63.3815 53.7724 62.3196C53.7724 61.2723 54.1506 60.465 54.907 59.8976C55.6779 59.3303 56.9144 59.0467 58.6163 59.0467H61.0164V57.9339C61.0164 57.1048 60.7837 56.4866 60.3182 56.0793C59.8527 55.6574 59.1909 55.4465 58.3326 55.4465C57.5762 55.4465 56.958 55.5992 56.478 55.9047C55.998 56.1956 55.6125 56.5957 55.3216 57.1048L54.1433 56.232C54.2888 55.9411 54.4852 55.6574 54.7324 55.381C54.9797 55.1047 55.2852 54.8647 55.6489 54.661C56.0125 54.4428 56.4271 54.2755 56.8926 54.1592C57.358 54.0282 57.8744 53.9628 58.4417 53.9628C59.7654 53.9628 60.8128 54.2974 61.5837 54.9665C62.3692 55.6356 62.762 56.5666 62.762 57.7594V63.956H64.3329V65.4834H63.1329ZM57.9399 64.2833C58.3908 64.2833 58.7981 64.2324 59.1618 64.1306C59.54 64.0142 59.8673 63.8688 60.1436 63.6942C60.42 63.5051 60.6309 63.2869 60.7764 63.0396C60.9364 62.7778 61.0164 62.5014 61.0164 62.2105V60.3559H58.6163C57.569 60.3559 56.8053 60.5013 56.3253 60.7922C55.8452 61.0832 55.6052 61.505 55.6052 62.0578V62.516C55.6052 63.0978 55.8089 63.5415 56.2162 63.8469C56.638 64.1379 57.2126 64.2833 57.9399 64.2833ZM67.1609 63.9997H71.0884V50.8208H67.1609V49.3371H72.834V63.9997H76.7614V65.4834H67.1609V63.9997ZM100.375 65.7452C98.5128 65.7452 97.1237 65.0688 96.2072 63.716C95.3054 62.3632 94.8544 60.414 94.8544 57.8685C94.8544 55.3229 95.3054 53.3737 96.2072 52.0209C97.1237 50.6681 98.5128 49.9917 100.375 49.9917C101.073 49.9917 101.677 50.0862 102.186 50.2753C102.695 50.4644 103.131 50.719 103.495 51.039C103.859 51.359 104.164 51.7227 104.411 52.13C104.659 52.5227 104.877 52.9227 105.066 53.33L103.495 54.0501C103.364 53.7155 103.211 53.4028 103.037 53.1118C102.862 52.8064 102.651 52.5445 102.404 52.3263C102.171 52.0936 101.888 51.9118 101.553 51.7809C101.233 51.6499 100.84 51.5845 100.375 51.5845C99.1674 51.5845 98.2655 52.0427 97.6691 52.9591C97.0873 53.8755 96.7964 55.0974 96.7964 56.6247V59.1122C96.7964 60.6395 97.0873 61.8614 97.6691 62.7778C98.2655 63.6942 99.1674 64.1524 100.375 64.1524C100.84 64.1524 101.233 64.087 101.553 63.956C101.888 63.8251 102.171 63.6506 102.404 63.4324C102.651 63.1996 102.862 62.9378 103.037 62.6469C103.211 62.3414 103.364 62.0214 103.495 61.6868L105.066 62.4069C104.877 62.8287 104.659 63.236 104.411 63.6288C104.164 64.0215 103.859 64.3779 103.495 64.6979C103.131 65.0179 102.695 65.2725 102.186 65.4616C101.677 65.6507 101.073 65.7452 100.375 65.7452ZM112.956 65.7452C112.17 65.7452 111.458 65.607 110.818 65.3307C110.192 65.0543 109.654 64.6615 109.203 64.1524C108.767 63.6288 108.432 63.0105 108.199 62.2978C107.967 61.5705 107.85 60.7559 107.85 59.854C107.85 58.9667 107.967 58.1594 108.199 57.4321C108.432 56.7048 108.767 56.0865 109.203 55.5774C109.654 55.0538 110.192 54.6537 110.818 54.3774C111.458 54.101 112.17 53.9628 112.956 53.9628C113.741 53.9628 114.447 54.101 115.072 54.3774C115.712 54.6537 116.251 55.0538 116.687 55.5774C117.138 56.0865 117.48 56.7048 117.713 57.4321C117.945 58.1594 118.062 58.9667 118.062 59.854C118.062 60.7559 117.945 61.5705 117.713 62.2978C117.48 63.0105 117.138 63.6288 116.687 64.1524C116.251 64.6615 115.712 65.0543 115.072 65.3307C114.447 65.607 113.741 65.7452 112.956 65.7452ZM112.956 64.2397C113.931 64.2397 114.716 63.9488 115.312 63.3669C115.909 62.7851 116.207 61.8832 116.207 60.6613V59.0467C116.207 57.8248 115.909 56.9229 115.312 56.3411C114.716 55.7592 113.931 55.4683 112.956 55.4683C111.981 55.4683 111.196 55.7592 110.599 56.3411C110.003 56.9229 109.705 57.8248 109.705 59.0467V60.6613C109.705 61.8832 110.003 62.7851 110.599 63.3669C111.196 63.9488 111.981 64.2397 112.956 64.2397ZM120.671 65.4834V54.2246H122.286V55.5338H122.373C122.548 55.0974 122.795 54.7265 123.115 54.421C123.435 54.1155 123.908 53.9628 124.534 53.9628C125.188 53.9628 125.675 54.1301 125.995 54.4646C126.315 54.7847 126.512 55.2065 126.585 55.7302H126.65C126.854 55.221 127.145 54.7992 127.523 54.4646C127.901 54.1301 128.425 53.9628 129.094 53.9628C130.01 53.9628 130.621 54.2828 130.927 54.9228C131.247 55.5629 131.407 56.4793 131.407 57.6721V65.4834H129.792V57.9557C129.792 56.9957 129.69 56.3338 129.487 55.9702C129.297 55.592 128.941 55.4029 128.417 55.4029C127.952 55.4029 127.574 55.5556 127.283 55.8611C126.992 56.152 126.846 56.6029 126.846 57.2139V65.4834H125.232V57.9557C125.232 56.9957 125.13 56.3338 124.926 55.9702C124.737 55.592 124.388 55.4029 123.879 55.4029C123.413 55.4029 123.028 55.5556 122.723 55.8611C122.432 56.152 122.286 56.6029 122.286 57.2139V65.4834H120.671ZM133.755 65.4834V54.2246H135.369V55.5338H135.456C135.631 55.0974 135.878 54.7265 136.198 54.421C136.518 54.1155 136.991 53.9628 137.617 53.9628C138.271 53.9628 138.758 54.1301 139.078 54.4646C139.399 54.7847 139.595 55.2065 139.668 55.7302H139.733C139.937 55.221 140.228 54.7992 140.606 54.4646C140.984 54.1301 141.508 53.9628 142.177 53.9628C143.093 53.9628 143.704 54.2828 144.01 54.9228C144.33 55.5629 144.49 56.4793 144.49 57.6721V65.4834H142.875V57.9557C142.875 56.9957 142.773 56.3338 142.57 55.9702C142.38 55.592 142.024 55.4029 141.5 55.4029C141.035 55.4029 140.657 55.5556 140.366 55.8611C140.075 56.152 139.929 56.6029 139.929 57.2139V65.4834H138.315V57.9557C138.315 56.9957 138.213 56.3338 138.009 55.9702C137.82 55.592 137.471 55.4029 136.962 55.4029C136.497 55.4029 136.111 55.5556 135.806 55.8611C135.515 56.152 135.369 56.6029 135.369 57.2139V65.4834H133.755ZM154.867 63.6506H154.78C154.664 63.927 154.518 64.1961 154.344 64.4579C154.169 64.7052 153.951 64.9234 153.689 65.1125C153.442 65.3016 153.143 65.4543 152.794 65.5707C152.445 65.687 152.038 65.7452 151.572 65.7452C150.394 65.7452 149.449 65.3743 148.736 64.6324C148.023 63.876 147.667 62.8142 147.667 61.4468V54.2246H149.412V61.1414C149.412 62.1741 149.638 62.9451 150.089 63.4542C150.54 63.9488 151.202 64.1961 152.074 64.1961C152.423 64.1961 152.765 64.1524 153.1 64.0651C153.434 63.9779 153.733 63.8469 153.994 63.6724C154.256 63.4978 154.467 63.2796 154.627 63.0178C154.787 62.7414 154.867 62.4141 154.867 62.0359V54.2246H156.613V65.4834H154.867V63.6506ZM160.881 65.4834V54.2246H162.626V56.0574H162.714C162.83 55.7811 162.975 55.5192 163.15 55.2719C163.325 55.0101 163.535 54.7847 163.783 54.5955C164.045 54.4064 164.35 54.2537 164.699 54.1373C165.048 54.021 165.456 53.9628 165.921 53.9628C167.099 53.9628 168.045 54.341 168.758 55.0974C169.47 55.8393 169.827 56.8939 169.827 58.2612V65.4834H168.081V58.5667C168.081 57.5339 167.856 56.7702 167.405 56.2756C166.954 55.7665 166.292 55.512 165.419 55.512C165.07 55.512 164.728 55.5556 164.394 55.6429C164.059 55.7302 163.761 55.8611 163.499 56.0356C163.237 56.2102 163.026 56.4356 162.866 56.712C162.706 56.9884 162.626 57.3084 162.626 57.6721V65.4834H160.881ZM179.07 51.7372C178.56 51.7372 178.204 51.6354 178 51.4317C177.797 51.2136 177.695 50.9444 177.695 50.6244V50.2753C177.695 49.9553 177.797 49.6935 178 49.4898C178.204 49.2716 178.56 49.1625 179.07 49.1625C179.579 49.1625 179.935 49.2716 180.139 49.4898C180.342 49.6935 180.444 49.9553 180.444 50.2753V50.6244C180.444 50.9444 180.342 51.2136 180.139 51.4317C179.935 51.6354 179.579 51.7372 179.07 51.7372ZM174.138 63.9997H178.197V55.7083H174.138V54.2246H179.942V63.9997H183.739V65.4834H174.138V63.9997ZM191.847 65.7452C191.033 65.7452 190.305 65.607 189.665 65.3307C189.04 65.0397 188.509 64.6397 188.072 64.1306C187.636 63.6215 187.301 63.0033 187.069 62.276C186.851 61.5486 186.741 60.7413 186.741 59.854C186.741 58.9667 186.858 58.1594 187.091 57.4321C187.323 56.7048 187.658 56.0865 188.094 55.5774C188.531 55.0538 189.062 54.6537 189.687 54.3774C190.313 54.101 191.025 53.9628 191.825 53.9628C192.916 53.9628 193.804 54.2028 194.487 54.6828C195.171 55.1629 195.673 55.7883 195.993 56.5593L194.596 57.3011C194.393 56.7193 194.051 56.2684 193.571 55.9483C193.105 55.6283 192.524 55.4683 191.825 55.4683C191.316 55.4683 190.858 55.5556 190.451 55.7302C190.058 55.8902 189.723 56.1229 189.447 56.4284C189.171 56.7338 188.96 57.0975 188.814 57.5193C188.683 57.9412 188.618 58.3994 188.618 58.894V60.8141C188.618 61.3086 188.683 61.7668 188.814 62.1887C188.96 62.6105 189.171 62.9742 189.447 63.2796C189.723 63.5851 190.065 63.8251 190.473 63.9997C190.88 64.1597 191.345 64.2397 191.869 64.2397C192.625 64.2397 193.251 64.0651 193.745 63.716C194.24 63.3669 194.633 62.8869 194.924 62.276L196.167 63.1269C195.833 63.8833 195.309 64.5088 194.596 65.0034C193.898 65.4979 192.982 65.7452 191.847 65.7452ZM208.792 65.4834C208.109 65.4834 207.621 65.3088 207.33 64.9597C207.039 64.6106 206.858 64.1742 206.785 63.6506H206.676C206.429 64.3052 206.029 64.8215 205.476 65.1997C204.938 65.5634 204.21 65.7452 203.294 65.7452C202.116 65.7452 201.177 65.4398 200.479 64.8288C199.781 64.2179 199.432 63.3815 199.432 62.3196C199.432 61.2723 199.81 60.465 200.566 59.8976C201.337 59.3303 202.574 59.0467 204.276 59.0467H206.676V57.9339C206.676 57.1048 206.443 56.4866 205.978 56.0793C205.512 55.6574 204.85 55.4465 203.992 55.4465C203.236 55.4465 202.617 55.5992 202.137 55.9047C201.657 56.1956 201.272 56.5957 200.981 57.1048L199.803 56.232C199.948 55.9411 200.145 55.6574 200.392 55.381C200.639 55.1047 200.945 54.8647 201.308 54.661C201.672 54.4428 202.086 54.2755 202.552 54.1592C203.017 54.0282 203.534 53.9628 204.101 53.9628C205.425 53.9628 206.472 54.2974 207.243 54.9665C208.029 55.6356 208.421 56.5666 208.421 57.7594V63.956H209.992V65.4834H208.792ZM203.599 64.2833C204.05 64.2833 204.458 64.2324 204.821 64.1306C205.199 64.0142 205.527 63.8688 205.803 63.6942C206.079 63.5051 206.29 63.2869 206.436 63.0396C206.596 62.7778 206.676 62.5014 206.676 62.2105V60.3559H204.276C203.228 60.3559 202.465 60.5013 201.985 60.7922C201.505 61.0832 201.265 61.505 201.265 62.0578V62.516C201.265 63.0978 201.468 63.5415 201.876 63.8469C202.297 64.1379 202.872 64.2833 203.599 64.2833ZM218.166 65.4834C217.308 65.4834 216.675 65.2434 216.268 64.7634C215.875 64.2833 215.679 63.6651 215.679 62.9087V55.7083H211.926V54.2246H214.719C215.097 54.2246 215.359 54.1519 215.504 54.0064C215.664 53.8464 215.744 53.5773 215.744 53.1991V50.2535H217.424V54.2246H222.552V55.7083H217.424V63.9997H222.552V65.4834H218.166ZM231.402 51.7372C230.893 51.7372 230.536 51.6354 230.333 51.4317C230.129 51.2136 230.027 50.9444 230.027 50.6244V50.2753C230.027 49.9553 230.129 49.6935 230.333 49.4898C230.536 49.2716 230.893 49.1625 231.402 49.1625C231.911 49.1625 232.267 49.2716 232.471 49.4898C232.675 49.6935 232.777 49.9553 232.777 50.2753V50.6244C232.777 50.9444 232.675 51.2136 232.471 51.4317C232.267 51.6354 231.911 51.7372 231.402 51.7372ZM226.471 63.9997H230.529V55.7083H226.471V54.2246H232.275V63.9997H236.071V65.4834H226.471V63.9997ZM243.787 65.7452C243.001 65.7452 242.288 65.607 241.648 65.3307C241.023 65.0543 240.485 64.6615 240.034 64.1524C239.597 63.6288 239.263 63.0105 239.03 62.2978C238.797 61.5705 238.681 60.7559 238.681 59.854C238.681 58.9667 238.797 58.1594 239.03 57.4321C239.263 56.7048 239.597 56.0865 240.034 55.5774C240.485 55.0538 241.023 54.6537 241.648 54.3774C242.288 54.101 243.001 53.9628 243.787 53.9628C244.572 53.9628 245.278 54.101 245.903 54.3774C246.543 54.6537 247.081 55.0538 247.518 55.5774C247.969 56.0865 248.311 56.7048 248.543 57.4321C248.776 58.1594 248.892 58.9667 248.892 59.854C248.892 60.7559 248.776 61.5705 248.543 62.2978C248.311 63.0105 247.969 63.6288 247.518 64.1524C247.081 64.6615 246.543 65.0543 245.903 65.3307C245.278 65.607 244.572 65.7452 243.787 65.7452ZM243.787 64.2397C244.761 64.2397 245.547 63.9488 246.143 63.3669C246.74 62.7851 247.038 61.8832 247.038 60.6613V59.0467C247.038 57.8248 246.74 56.9229 246.143 56.3411C245.547 55.7592 244.761 55.4683 243.787 55.4683C242.812 55.4683 242.027 55.7592 241.43 56.3411C240.834 56.9229 240.536 57.8248 240.536 59.0467V60.6613C240.536 61.8832 240.834 62.7851 241.43 63.3669C242.027 63.9488 242.812 64.2397 243.787 64.2397ZM252.462 65.4834V54.2246H254.208V56.0574H254.295C254.412 55.7811 254.557 55.5192 254.732 55.2719C254.906 55.0101 255.117 54.7847 255.364 54.5955C255.626 54.4064 255.932 54.2537 256.281 54.1373C256.63 54.021 257.037 53.9628 257.503 53.9628C258.681 53.9628 259.626 54.341 260.339 55.0974C261.052 55.8393 261.408 56.8939 261.408 58.2612V65.4834H259.663V58.5667C259.663 57.5339 259.437 56.7702 258.986 56.2756C258.535 55.7665 257.874 55.512 257.001 55.512C256.652 55.512 256.31 55.5556 255.975 55.6429C255.641 55.7302 255.342 55.8611 255.081 56.0356C254.819 56.2102 254.608 56.4356 254.448 56.712C254.288 56.9884 254.208 57.3084 254.208 57.6721V65.4834H252.462ZM280.309 50.2535H284.563C286.425 50.2535 287.814 50.8935 288.731 52.1736C289.647 53.4537 290.105 55.352 290.105 57.8685C290.105 60.3849 289.647 62.2832 288.731 63.5633C287.814 64.8434 286.425 65.4834 284.563 65.4834H280.309V50.2535ZM284.476 63.8906C285.698 63.8906 286.614 63.4687 287.225 62.6251C287.851 61.7814 288.164 60.5886 288.164 59.0467V56.6902C288.164 55.1483 287.851 53.9555 287.225 53.1118C286.614 52.2682 285.698 51.8463 284.476 51.8463H282.141V63.8906H284.476ZM298.061 65.7452C297.246 65.7452 296.512 65.607 295.857 65.3307C295.217 65.0543 294.664 64.6615 294.199 64.1524C293.748 63.6288 293.399 63.0105 293.152 62.2978C292.904 61.5705 292.781 60.7631 292.781 59.8758C292.781 58.974 292.904 58.1594 293.152 57.4321C293.413 56.7048 293.77 56.0865 294.221 55.5774C294.672 55.0538 295.21 54.6537 295.835 54.3774C296.475 54.101 297.181 53.9628 297.952 53.9628C298.708 53.9628 299.392 54.101 300.003 54.3774C300.628 54.6537 301.159 55.0392 301.596 55.5338C302.032 56.0138 302.367 56.5884 302.599 57.2575C302.832 57.9266 302.949 58.6612 302.949 59.4613V60.2904H294.614V60.8141C294.614 61.3086 294.694 61.7668 294.854 62.1887C295.014 62.6105 295.239 62.9742 295.53 63.2796C295.835 63.5851 296.199 63.8251 296.621 63.9997C297.057 64.1597 297.537 64.2397 298.061 64.2397C298.817 64.2397 299.472 64.0651 300.025 63.716C300.577 63.3669 300.999 62.8869 301.29 62.276L302.578 63.1487C302.243 63.9051 301.683 64.5306 300.898 65.0252C300.127 65.5052 299.181 65.7452 298.061 65.7452ZM297.952 55.4029C297.472 55.4029 297.028 55.4901 296.621 55.6647C296.214 55.8393 295.857 56.0793 295.552 56.3847C295.261 56.6902 295.028 57.0539 294.854 57.4757C294.694 57.883 294.614 58.3339 294.614 58.8285V58.9812H301.072V58.7412C301.072 58.2467 300.992 57.7957 300.832 57.3884C300.687 56.9811 300.476 56.632 300.199 56.3411C299.937 56.0356 299.61 55.8029 299.217 55.6429C298.839 55.4829 298.417 55.4029 297.952 55.4029ZM306.475 54.2246H308.22V56.0574H308.308C309.035 54.661 310.191 53.9628 311.777 53.9628C313.159 53.9628 314.235 54.4792 315.006 55.512C315.792 56.5447 316.184 57.9921 316.184 59.854C316.184 61.7159 315.792 63.1633 315.006 64.1961C314.235 65.2288 313.159 65.7452 311.777 65.7452C310.191 65.7452 309.035 65.047 308.308 63.6506H308.22V69.8473H306.475V54.2246ZM311.1 64.1961C312.119 64.1961 312.904 63.8906 313.457 63.2796C314.024 62.6542 314.308 61.8323 314.308 60.8141V58.894C314.308 57.8757 314.024 57.0611 313.457 56.4502C312.904 55.8247 312.119 55.512 311.1 55.512C310.708 55.512 310.337 55.5629 309.988 55.6647C309.639 55.7665 309.333 55.9193 309.071 56.1229C308.809 56.312 308.598 56.552 308.438 56.8429C308.293 57.1193 308.22 57.4466 308.22 57.8248V61.8832C308.22 62.2614 308.293 62.596 308.438 62.8869C308.598 63.1633 308.809 63.4033 309.071 63.6069C309.333 63.796 309.639 63.9415 309.988 64.0433C310.337 64.1451 310.708 64.1961 311.1 64.1961ZM328.286 65.4834C327.602 65.4834 327.115 65.3088 326.824 64.9597C326.533 64.6106 326.351 64.1742 326.278 63.6506H326.169C325.922 64.3052 325.522 64.8215 324.969 65.1997C324.431 65.5634 323.703 65.7452 322.787 65.7452C321.609 65.7452 320.671 65.4398 319.972 64.8288C319.274 64.2179 318.925 63.3815 318.925 62.3196C318.925 61.2723 319.303 60.465 320.06 59.8976C320.831 59.3303 322.067 59.0467 323.769 59.0467H326.169V57.9339C326.169 57.1048 325.936 56.4866 325.471 56.0793C325.005 55.6574 324.344 55.4465 323.485 55.4465C322.729 55.4465 322.111 55.5992 321.631 55.9047C321.151 56.1956 320.765 56.5957 320.474 57.1048L319.296 56.232C319.441 55.9411 319.638 55.6574 319.885 55.381C320.132 55.1047 320.438 54.8647 320.802 54.661C321.165 54.4428 321.58 54.2755 322.045 54.1592C322.511 54.0282 323.027 53.9628 323.594 53.9628C324.918 53.9628 325.965 54.2974 326.736 54.9665C327.522 55.6356 327.915 56.5666 327.915 57.7594V63.956H329.486V65.4834H328.286ZM323.093 64.2833C323.543 64.2833 323.951 64.2324 324.314 64.1306C324.693 64.0142 325.02 63.8688 325.296 63.6942C325.573 63.5051 325.784 63.2869 325.929 63.0396C326.089 62.7778 326.169 62.5014 326.169 62.2105V60.3559H323.769C322.722 60.3559 321.958 60.5013 321.478 60.7922C320.998 61.0832 320.758 61.505 320.758 62.0578V62.516C320.758 63.0978 320.962 63.5415 321.369 63.8469C321.791 64.1379 322.365 64.2833 323.093 64.2833ZM332.248 63.9997H335.543V55.7083H332.248V54.2246H337.288V57.0611H337.398C337.63 56.1738 338.067 55.4829 338.707 54.9883C339.361 54.4792 340.19 54.2246 341.194 54.2246H342.765V55.9702H340.649C339.645 55.9702 338.83 56.2611 338.205 56.8429C337.594 57.4248 337.288 58.1885 337.288 59.134V63.9997H341.652V65.4834H332.248V63.9997ZM350.742 65.4834C349.884 65.4834 349.251 65.2434 348.844 64.7634C348.451 64.2833 348.255 63.6651 348.255 62.9087V55.7083H344.502V54.2246H347.295C347.673 54.2246 347.935 54.1519 348.08 54.0064C348.24 53.8464 348.32 53.5773 348.32 53.1991V50.2535H350.001V54.2246H355.128V55.7083H350.001V63.9997H355.128V65.4834H350.742ZM357.912 65.4834V54.2246H359.527V55.5338H359.614C359.789 55.0974 360.036 54.7265 360.356 54.421C360.676 54.1155 361.149 53.9628 361.774 53.9628C362.429 53.9628 362.916 54.1301 363.236 54.4646C363.556 54.7847 363.753 55.2065 363.826 55.7302H363.891C364.095 55.221 364.386 54.7992 364.764 54.4646C365.142 54.1301 365.666 53.9628 366.335 53.9628C367.251 53.9628 367.862 54.2828 368.168 54.9228C368.488 55.5629 368.648 56.4793 368.648 57.6721V65.4834H367.033V57.9557C367.033 56.9957 366.931 56.3338 366.727 55.9702C366.538 55.592 366.182 55.4029 365.658 55.4029C365.193 55.4029 364.815 55.5556 364.524 55.8611C364.233 56.152 364.087 56.6029 364.087 57.2139V65.4834H362.473V57.9557C362.473 56.9957 362.371 56.3338 362.167 55.9702C361.978 55.592 361.629 55.4029 361.12 55.4029C360.654 55.4029 360.269 55.5556 359.963 55.8611C359.673 56.152 359.527 56.6029 359.527 57.2139V65.4834H357.912ZM376.559 65.7452C375.745 65.7452 375.01 65.607 374.356 65.3307C373.716 65.0543 373.163 64.6615 372.697 64.1524C372.247 63.6288 371.897 63.0105 371.65 62.2978C371.403 61.5705 371.279 60.7631 371.279 59.8758C371.279 58.974 371.403 58.1594 371.65 57.4321C371.912 56.7048 372.268 56.0865 372.719 55.5774C373.17 55.0538 373.708 54.6537 374.334 54.3774C374.974 54.101 375.679 53.9628 376.45 53.9628C377.207 53.9628 377.89 54.101 378.501 54.3774C379.127 54.6537 379.658 55.0392 380.094 55.5338C380.531 56.0138 380.865 56.5884 381.098 57.2575C381.331 57.9266 381.447 58.6612 381.447 59.4613V60.2904H373.112V60.8141C373.112 61.3086 373.192 61.7668 373.352 62.1887C373.512 62.6105 373.737 62.9742 374.028 63.2796C374.334 63.5851 374.698 63.8251 375.119 63.9997C375.556 64.1597 376.036 64.2397 376.559 64.2397C377.316 64.2397 377.97 64.0651 378.523 63.716C379.076 63.3669 379.498 62.8869 379.789 62.276L381.076 63.1487C380.742 63.9051 380.181 64.5306 379.396 65.0252C378.625 65.5052 377.68 65.7452 376.559 65.7452ZM376.45 55.4029C375.97 55.4029 375.527 55.4901 375.119 55.6647C374.712 55.8393 374.356 56.0793 374.05 56.3847C373.759 56.6902 373.527 57.0539 373.352 57.4757C373.192 57.883 373.112 58.3339 373.112 58.8285V58.9812H379.571V58.7412C379.571 58.2467 379.491 57.7957 379.331 57.3884C379.185 56.9811 378.974 56.632 378.698 56.3411C378.436 56.0356 378.109 55.8029 377.716 55.6429C377.338 55.4829 376.916 55.4029 376.45 55.4029ZM385.039 65.4834V54.2246H386.784V56.0574H386.871C386.988 55.7811 387.133 55.5192 387.308 55.2719C387.482 55.0101 387.693 54.7847 387.941 54.5955C388.202 54.4064 388.508 54.2537 388.857 54.1373C389.206 54.021 389.613 53.9628 390.079 53.9628C391.257 53.9628 392.203 54.341 392.915 55.0974C393.628 55.8393 393.985 56.8939 393.985 58.2612V65.4834H392.239V58.5667C392.239 57.5339 392.014 56.7702 391.563 56.2756C391.112 55.7665 390.45 55.512 389.577 55.512C389.228 55.512 388.886 55.5556 388.552 55.6429C388.217 55.7302 387.919 55.8611 387.657 56.0356C387.395 56.2102 387.184 56.4356 387.024 56.712C386.864 56.9884 386.784 57.3084 386.784 57.6721V65.4834H385.039ZM403.075 65.4834C402.217 65.4834 401.584 65.2434 401.176 64.7634C400.784 64.2833 400.587 63.6651 400.587 62.9087V55.7083H396.834V54.2246H399.627C400.005 54.2246 400.267 54.1519 400.413 54.0064C400.573 53.8464 400.653 53.5773 400.653 53.1991V50.2535H402.333V54.2246H407.46V55.7083H402.333V63.9997H407.46V65.4834H403.075Z" fill="#000A1B"/>
<path d="M315.031 108.967V106.039H307.678V104.457L314.133 94.048H316.741V104.564H318.964V106.039H316.741V108.967H315.031ZM309.282 104.564H315.031V95.4373H314.946L309.282 104.564ZM326.714 108.967C325.874 108.967 325.254 108.732 324.855 108.262C324.47 107.791 324.278 107.186 324.278 106.445V99.3915H320.601V97.938H323.337C323.708 97.938 323.964 97.8668 324.107 97.7243C324.264 97.5676 324.342 97.3039 324.342 96.9335V94.048H325.988V97.938H331.011V99.3915H325.988V107.514H331.011V108.967H326.714ZM334.679 93.1502H336.389V99.7335H336.474C336.588 99.4627 336.73 99.2062 336.901 98.964C337.072 98.7075 337.279 98.4866 337.521 98.3014C337.778 98.1162 338.077 97.9665 338.419 97.8525C338.761 97.7385 339.16 97.6815 339.616 97.6815C340.77 97.6815 341.696 98.052 342.395 98.793C343.093 99.5197 343.442 100.553 343.442 101.892V108.967H341.732V102.191C341.732 101.18 341.511 100.432 341.069 99.9472C340.628 99.4485 339.979 99.1991 339.124 99.1991C338.782 99.1991 338.448 99.2419 338.12 99.3273C337.792 99.4128 337.5 99.5411 337.243 99.7121C336.987 99.8831 336.78 100.104 336.624 100.375C336.467 100.645 336.389 100.959 336.389 101.315V108.967H334.679V93.1502ZM363.731 108.967V103.111L358.579 94.048H360.631L362.769 97.938L364.586 101.337H364.671L366.531 97.938L368.668 94.048H370.677L365.526 103.111V108.967H363.731ZM377.637 109.224C376.839 109.224 376.119 109.088 375.478 108.817C374.851 108.547 374.31 108.162 373.854 107.663C373.412 107.15 373.07 106.545 372.828 105.846C372.585 105.134 372.464 104.343 372.464 103.474C372.464 102.59 372.585 101.792 372.828 101.08C373.084 100.368 373.433 99.762 373.875 99.2632C374.317 98.7502 374.844 98.3584 375.457 98.0877C376.084 97.8169 376.775 97.6815 377.53 97.6815C378.271 97.6815 378.941 97.8169 379.539 98.0877C380.152 98.3584 380.672 98.736 381.099 99.2205C381.527 99.6907 381.855 100.254 382.083 100.909C382.311 101.564 382.425 102.284 382.425 103.068V103.88H374.26V104.393C374.26 104.877 374.338 105.326 374.495 105.74C374.651 106.153 374.872 106.509 375.157 106.808C375.457 107.107 375.813 107.343 376.226 107.514C376.654 107.67 377.124 107.749 377.637 107.749C378.378 107.749 379.019 107.578 379.56 107.236C380.102 106.894 380.515 106.424 380.8 105.825L382.061 106.68C381.733 107.421 381.185 108.034 380.415 108.518C379.66 108.988 378.734 109.224 377.637 109.224ZM377.53 99.0922C377.06 99.0922 376.625 99.1777 376.226 99.3487C375.827 99.5197 375.478 99.7548 375.179 100.054C374.894 100.353 374.666 100.71 374.495 101.123C374.338 101.522 374.26 101.963 374.26 102.448V102.598H380.586V102.362C380.586 101.878 380.508 101.436 380.351 101.037C380.209 100.638 380.002 100.296 379.731 100.011C379.475 99.7121 379.154 99.4841 378.77 99.3273C378.399 99.1706 377.986 99.0922 377.53 99.0922ZM394.428 108.967C393.759 108.967 393.281 108.796 392.996 108.454C392.711 108.112 392.533 107.685 392.462 107.172H392.355C392.113 107.813 391.721 108.319 391.18 108.689C390.652 109.045 389.94 109.224 389.042 109.224C387.888 109.224 386.969 108.924 386.285 108.326C385.601 107.727 385.259 106.908 385.259 105.868C385.259 104.842 385.629 104.051 386.37 103.495C387.126 102.94 388.337 102.662 390.004 102.662H392.355V101.572C392.355 100.759 392.127 100.154 391.671 99.7548C391.215 99.3416 390.567 99.135 389.726 99.135C388.985 99.135 388.38 99.2846 387.909 99.5838C387.439 99.8688 387.061 100.261 386.776 100.759L385.622 99.9044C385.765 99.6195 385.957 99.3416 386.199 99.0709C386.442 98.8001 386.741 98.565 387.097 98.3655C387.453 98.1518 387.859 97.9879 388.315 97.8739C388.771 97.7457 389.277 97.6815 389.833 97.6815C391.13 97.6815 392.156 98.0093 392.911 98.6648C393.68 99.3202 394.065 100.232 394.065 101.401V107.471H395.604V108.967H394.428ZM389.341 107.791C389.783 107.791 390.182 107.742 390.538 107.642C390.909 107.528 391.229 107.385 391.5 107.214C391.771 107.029 391.977 106.815 392.12 106.573C392.277 106.317 392.355 106.046 392.355 105.761V103.944H390.004C388.978 103.944 388.23 104.087 387.76 104.372C387.289 104.657 387.054 105.07 387.054 105.611V106.06C387.054 106.63 387.254 107.065 387.653 107.364C388.066 107.649 388.629 107.791 389.341 107.791ZM398.31 107.514H401.538V99.3915H398.31V97.938H403.248V100.717H403.354C403.582 99.8474 404.01 99.1706 404.637 98.6861C405.278 98.1874 406.09 97.938 407.073 97.938H408.612V99.648H406.539C405.556 99.648 404.758 99.9329 404.145 100.503C403.547 101.073 403.248 101.821 403.248 102.747V107.514H407.522V108.967H398.31V107.514Z" fill="#000A1B"/>
<path d="M271.057 103.367V101.572H277.256V103.367H271.057Z" fill="#000A1B"/>
<path d="M1.92366 108.967V94.048H11.1145V95.6083H3.71908V100.631H10.858V102.191H3.71908V107.407H11.1145V108.967H1.92366ZM14.1199 108.967L18.2237 103.367L14.2268 97.938H16.2787L17.9458 100.268L19.271 102.106H19.3565L20.639 100.268L22.2848 97.938H24.2512L20.2115 103.346L24.3581 108.967H22.3062L20.4466 106.381L19.1855 104.628H19.1L17.8817 106.381L16.0863 108.967H14.1199ZM27.6627 97.938H29.3726V99.7335H29.4581C30.1706 98.3655 31.3034 97.6815 32.8566 97.6815C34.2103 97.6815 35.2647 98.1874 36.0199 99.1991C36.7894 100.211 37.1741 101.629 37.1741 103.453C37.1741 105.276 36.7894 106.694 36.0199 107.706C35.2647 108.718 34.2103 109.224 32.8566 109.224C31.3034 109.224 30.1706 108.54 29.4581 107.172H29.3726V113.242H27.6627V97.938ZM32.194 107.706C33.1914 107.706 33.9609 107.407 34.5024 106.808C35.0581 106.196 35.336 105.39 35.336 104.393V102.512C35.336 101.515 35.0581 100.717 34.5024 100.118C33.9609 99.5055 33.1914 99.1991 32.194 99.1991C31.8093 99.1991 31.4459 99.249 31.1039 99.3487C30.7619 99.4485 30.4627 99.5981 30.2062 99.7976C29.9497 99.9828 29.7431 100.218 29.5864 100.503C29.4439 100.774 29.3726 101.094 29.3726 101.465V105.44C29.3726 105.811 29.4439 106.139 29.5864 106.424C29.7431 106.694 29.9497 106.929 30.2062 107.129C30.4627 107.314 30.7619 107.457 31.1039 107.556C31.4459 107.656 31.8093 107.706 32.194 107.706ZM45.0528 109.224C44.2548 109.224 43.5353 109.088 42.894 108.817C42.2671 108.547 41.7256 108.162 41.2696 107.663C40.8279 107.15 40.4859 106.545 40.2437 105.846C40.0014 105.134 39.8803 104.343 39.8803 103.474C39.8803 102.59 40.0014 101.792 40.2437 101.08C40.5001 100.368 40.8492 99.762 41.291 99.2632C41.7327 98.7502 42.2599 98.3584 42.8727 98.0877C43.4996 97.8169 44.1907 97.6815 44.9459 97.6815C45.6869 97.6815 46.3566 97.8169 46.9551 98.0877C47.5678 98.3584 48.0879 98.736 48.5154 99.2205C48.9429 99.6907 49.2706 100.254 49.4986 100.909C49.7266 101.564 49.8406 102.284 49.8406 103.068V103.88H41.6757V104.393C41.6757 104.877 41.7541 105.326 41.9108 105.74C42.0676 106.153 42.2884 106.509 42.5734 106.808C42.8727 107.107 43.2289 107.343 43.6421 107.514C44.0696 107.67 44.5398 107.749 45.0528 107.749C45.7938 107.749 46.435 107.578 46.9765 107.236C47.518 106.894 47.9312 106.424 48.2162 105.825L49.4772 106.68C49.1495 107.421 48.6009 108.034 47.8314 108.518C47.0762 108.988 46.15 109.224 45.0528 109.224ZM44.9459 99.0922C44.4757 99.0922 44.0411 99.1777 43.6421 99.3487C43.2431 99.5197 42.894 99.7548 42.5948 100.054C42.3098 100.353 42.0818 100.71 41.9108 101.123C41.7541 101.522 41.6757 101.963 41.6757 102.448V102.598H48.0024V102.362C48.0024 101.878 47.9241 101.436 47.7673 101.037C47.6248 100.638 47.4182 100.296 47.1475 100.011C46.891 99.7121 46.5704 99.4841 46.1856 99.3273C45.8152 99.1706 45.4019 99.0922 44.9459 99.0922ZM52.9101 107.514H56.1376V99.3915H52.9101V97.938H57.8475V100.717H57.9544C58.1824 99.8474 58.6099 99.1706 59.2368 98.6861C59.878 98.1874 60.6903 97.938 61.6735 97.938H63.2124V99.648H61.1391C60.1559 99.648 59.3579 99.9329 58.7452 100.503C58.1468 101.073 57.8475 101.821 57.8475 102.747V107.514H62.1223V108.967H52.9101V107.514ZM71.1766 95.5014C70.6778 95.5014 70.3287 95.4016 70.1292 95.2022C69.9297 94.9884 69.83 94.7248 69.83 94.4113V94.0693C69.83 93.7558 69.9297 93.4994 70.1292 93.2999C70.3287 93.0861 70.6778 92.9793 71.1766 92.9793C71.6753 92.9793 72.0244 93.0861 72.2239 93.2999C72.4234 93.4994 72.5231 93.7558 72.5231 94.0693V94.4113C72.5231 94.7248 72.4234 94.9884 72.2239 95.2022C72.0244 95.4016 71.6753 95.5014 71.1766 95.5014ZM66.346 107.514H70.3216V99.3915H66.346V97.938H72.0315V107.514H75.7506V108.967H66.346V107.514ZM78.0507 108.967V97.938H79.6323V99.2205H79.7178C79.8888 98.793 80.1311 98.4296 80.4446 98.1304C80.758 97.8312 81.2211 97.6815 81.8339 97.6815C82.4751 97.6815 82.9524 97.8454 83.2659 98.1731C83.5794 98.4866 83.7718 98.8999 83.843 99.4128H83.9071C84.1066 98.9141 84.3916 98.5009 84.7621 98.1731C85.1326 97.8454 85.6456 97.6815 86.301 97.6815C87.1988 97.6815 87.7972 97.995 88.0965 98.622C88.4099 99.249 88.5667 100.147 88.5667 101.315V108.967H86.985V101.593C86.985 100.653 86.8853 100.004 86.6858 99.648C86.5005 99.2775 86.1514 99.0922 85.6384 99.0922C85.1825 99.0922 84.812 99.2419 84.527 99.5411C84.242 99.8261 84.0995 100.268 84.0995 100.866V108.967H82.5178V101.593C82.5178 100.653 82.4181 100.004 82.2186 99.648C82.0334 99.2775 81.6914 99.0922 81.1926 99.0922C80.7367 99.0922 80.3591 99.2419 80.0598 99.5411C79.7748 99.8261 79.6323 100.268 79.6323 100.866V108.967H78.0507ZM96.3171 109.224C95.5192 109.224 94.7996 109.088 94.1583 108.817C93.5314 108.547 92.9899 108.162 92.5339 107.663C92.0922 107.15 91.7502 106.545 91.508 105.846C91.2657 105.134 91.1446 104.343 91.1446 103.474C91.1446 102.59 91.2657 101.792 91.508 101.08C91.7644 100.368 92.1136 99.762 92.5553 99.2632C92.997 98.7502 93.5242 98.3584 94.137 98.0877C94.7639 97.8169 95.455 97.6815 96.2102 97.6815C96.9512 97.6815 97.6209 97.8169 98.2194 98.0877C98.8321 98.3584 99.3522 98.736 99.7797 99.2205C100.207 99.6907 100.535 100.254 100.763 100.909C100.991 101.564 101.105 102.284 101.105 103.068V103.88H92.94V104.393C92.94 104.877 93.0184 105.326 93.1751 105.74C93.3319 106.153 93.5527 106.509 93.8377 106.808C94.137 107.107 94.4932 107.343 94.9064 107.514C95.3339 107.67 95.8041 107.749 96.3171 107.749C97.0581 107.749 97.6993 107.578 98.2408 107.236C98.7823 106.894 99.1955 106.424 99.4805 105.825L100.742 106.68C100.414 107.421 99.8652 108.034 99.0957 108.518C98.3405 108.988 97.4143 109.224 96.3171 109.224ZM96.2102 99.0922C95.74 99.0922 95.3054 99.1777 94.9064 99.3487C94.5075 99.5197 94.1583 99.7548 93.8591 100.054C93.5741 100.353 93.3461 100.71 93.1751 101.123C93.0184 101.522 92.94 101.963 92.94 102.448V102.598H99.2667V102.362C99.2667 101.878 99.1884 101.436 99.0316 101.037C98.8891 100.638 98.6825 100.296 98.4118 100.011C98.1553 99.7121 97.8347 99.4841 97.4499 99.3273C97.0795 99.1706 96.6662 99.0922 96.2102 99.0922ZM104.623 108.967V97.938H106.333V99.7335H106.419C106.533 99.4627 106.675 99.2062 106.846 98.964C107.017 98.7075 107.224 98.4866 107.466 98.3014C107.723 98.1162 108.022 97.9665 108.364 97.8525C108.706 97.7385 109.105 97.6815 109.561 97.6815C110.715 97.6815 111.641 98.052 112.339 98.793C113.038 99.5197 113.387 100.553 113.387 101.892V108.967H111.677V102.191C111.677 101.18 111.456 100.432 111.014 99.9472C110.572 99.4485 109.924 99.1991 109.069 99.1991C108.727 99.1991 108.392 99.2419 108.064 99.3273C107.737 99.4128 107.445 99.5411 107.188 99.7121C106.932 99.8831 106.725 100.104 106.568 100.375C106.412 100.645 106.333 100.959 106.333 101.315V108.967H104.623ZM122.291 108.967C121.451 108.967 120.831 108.732 120.432 108.262C120.047 107.791 119.855 107.186 119.855 106.445V99.3915H116.178V97.938H118.914C119.285 97.938 119.541 97.8668 119.684 97.7243C119.84 97.5676 119.919 97.3039 119.919 96.9335V94.048H121.565V97.938H126.587V99.3915H121.565V107.514H126.587V108.967H122.291ZM138.741 108.967C138.071 108.967 137.594 108.796 137.309 108.454C137.024 108.112 136.846 107.685 136.775 107.172H136.668C136.425 107.813 136.034 108.319 135.492 108.689C134.965 109.045 134.252 109.224 133.355 109.224C132.2 109.224 131.281 108.924 130.597 108.326C129.913 107.727 129.571 106.908 129.571 105.868C129.571 104.842 129.942 104.051 130.683 103.495C131.438 102.94 132.649 102.662 134.316 102.662H136.668V101.572C136.668 100.759 136.44 100.154 135.984 99.7548C135.528 99.3416 134.879 99.135 134.039 99.135C133.298 99.135 132.692 99.2846 132.222 99.5838C131.752 99.8688 131.374 100.261 131.089 100.759L129.935 99.9044C130.077 99.6195 130.27 99.3416 130.512 99.0709C130.754 98.8001 131.053 98.565 131.41 98.3655C131.766 98.1518 132.172 97.9879 132.628 97.8739C133.084 97.7457 133.59 97.6815 134.145 97.6815C135.442 97.6815 136.468 98.0093 137.223 98.6648C137.993 99.3202 138.378 100.232 138.378 101.401V107.471H139.916V108.967H138.741ZM133.654 107.791C134.096 107.791 134.495 107.742 134.851 107.642C135.221 107.528 135.542 107.385 135.813 107.214C136.083 107.029 136.29 106.815 136.433 106.573C136.589 106.317 136.668 106.046 136.668 105.761V103.944H134.316C133.291 103.944 132.542 104.087 132.072 104.372C131.602 104.657 131.367 105.07 131.367 105.611V106.06C131.367 106.63 131.566 107.065 131.965 107.364C132.379 107.649 132.941 107.791 133.654 107.791ZM142.687 107.514H146.534V94.6037H142.687V93.1502H148.244V107.514H152.091V108.967H142.687V107.514ZM168.64 94.048H172.807C174.631 94.048 175.992 94.6749 176.89 95.9289C177.788 97.1828 178.236 99.0424 178.236 101.507C178.236 103.973 177.788 105.832 176.89 107.086C175.992 108.34 174.631 108.967 172.807 108.967H168.64V94.048ZM172.722 107.407C173.919 107.407 174.817 106.994 175.415 106.167C176.028 105.341 176.334 104.172 176.334 102.662V100.353C176.334 98.8429 176.028 97.6744 175.415 96.848C174.817 96.0215 173.919 95.6083 172.722 95.6083H170.435V107.407H172.722ZM186.03 109.224C185.232 109.224 184.512 109.088 183.871 108.817C183.244 108.547 182.702 108.162 182.246 107.663C181.805 107.15 181.463 106.545 181.22 105.846C180.978 105.134 180.857 104.343 180.857 103.474C180.857 102.59 180.978 101.792 181.22 101.08C181.477 100.368 181.826 99.762 182.268 99.2632C182.71 98.7502 183.237 98.3584 183.85 98.0877C184.476 97.8169 185.168 97.6815 185.923 97.6815C186.664 97.6815 187.333 97.8169 187.932 98.0877C188.545 98.3584 189.065 98.736 189.492 99.2205C189.92 99.6907 190.247 100.254 190.475 100.909C190.703 101.564 190.817 102.284 190.817 103.068V103.88H182.653V104.393C182.653 104.877 182.731 105.326 182.888 105.74C183.044 106.153 183.265 106.509 183.55 106.808C183.85 107.107 184.206 107.343 184.619 107.514C185.046 107.67 185.517 107.749 186.03 107.749C186.771 107.749 187.412 107.578 187.953 107.236C188.495 106.894 188.908 106.424 189.193 105.825L190.454 106.68C190.126 107.421 189.578 108.034 188.808 108.518C188.053 108.988 187.127 109.224 186.03 109.224ZM185.923 99.0922C185.453 99.0922 185.018 99.1777 184.619 99.3487C184.22 99.5197 183.871 99.7548 183.572 100.054C183.287 100.353 183.059 100.71 182.888 101.123C182.731 101.522 182.653 101.963 182.653 102.448V102.598H188.979V102.362C188.979 101.878 188.901 101.436 188.744 101.037C188.602 100.638 188.395 100.296 188.124 100.011C187.868 99.7121 187.547 99.4841 187.162 99.3273C186.792 99.1706 186.379 99.0922 185.923 99.0922ZM198.782 109.224C197.627 109.224 196.63 109.031 195.789 108.646C194.963 108.247 194.257 107.72 193.673 107.065L194.827 106.06C195.355 106.616 195.932 107.043 196.559 107.343C197.186 107.642 197.941 107.791 198.824 107.791C199.679 107.791 200.378 107.642 200.919 107.343C201.475 107.029 201.753 106.545 201.753 105.889C201.753 105.604 201.696 105.369 201.582 105.184C201.482 104.984 201.339 104.828 201.154 104.714C200.969 104.6 200.762 104.514 200.534 104.457C200.306 104.386 200.064 104.329 199.808 104.286L198.076 104.03C197.692 103.973 197.271 103.894 196.815 103.795C196.373 103.695 195.967 103.538 195.597 103.324C195.226 103.096 194.913 102.797 194.656 102.427C194.414 102.056 194.293 101.572 194.293 100.973C194.293 100.417 194.4 99.9401 194.614 99.5411C194.842 99.1279 195.155 98.7859 195.554 98.5151C195.953 98.2301 196.423 98.0235 196.965 97.8953C197.506 97.7528 198.098 97.6815 198.739 97.6815C199.736 97.6815 200.598 97.8383 201.325 98.1518C202.066 98.4653 202.7 98.8999 203.227 99.4556L202.116 100.503C201.988 100.346 201.824 100.189 201.624 100.033C201.439 99.8617 201.204 99.7121 200.919 99.5838C200.648 99.4413 200.328 99.3273 199.957 99.2419C199.587 99.1564 199.159 99.1136 198.675 99.1136C197.806 99.1136 197.136 99.2632 196.666 99.5625C196.21 99.8617 195.982 100.296 195.982 100.866C195.982 101.151 196.031 101.394 196.131 101.593C196.245 101.778 196.395 101.928 196.58 102.042C196.765 102.156 196.972 102.248 197.2 102.32C197.442 102.377 197.684 102.427 197.927 102.469L199.658 102.726C200.057 102.783 200.477 102.861 200.919 102.961C201.361 103.061 201.767 103.225 202.137 103.453C202.508 103.666 202.814 103.958 203.056 104.329C203.313 104.699 203.441 105.184 203.441 105.782C203.441 106.88 203.014 107.727 202.159 108.326C201.318 108.924 200.192 109.224 198.782 109.224ZM212.153 95.5014C211.655 95.5014 211.306 95.4016 211.106 95.2022C210.907 94.9884 210.807 94.7248 210.807 94.4113V94.0693C210.807 93.7558 210.907 93.4994 211.106 93.2999C211.306 93.0861 211.655 92.9793 212.153 92.9793C212.652 92.9793 213.001 93.0861 213.201 93.2999C213.4 93.4994 213.5 93.7558 213.5 94.0693V94.4113C213.5 94.7248 213.4 94.9884 213.201 95.2022C213.001 95.4016 212.652 95.5014 212.153 95.5014ZM207.323 107.514H211.298V99.3915H207.323V97.938H213.008V107.514H216.727V108.967H207.323V107.514ZM229.864 110.228C229.864 111.34 229.401 112.159 228.475 112.686C227.549 113.228 226.159 113.498 224.307 113.498C222.526 113.498 221.243 113.263 220.46 112.793C219.69 112.323 219.305 111.646 219.305 110.762C219.305 110.164 219.462 109.701 219.776 109.373C220.089 109.045 220.531 108.803 221.101 108.646V108.39C220.787 108.233 220.545 108.034 220.374 107.791C220.203 107.549 220.118 107.243 220.118 106.872C220.118 106.302 220.303 105.875 220.673 105.59C221.058 105.305 221.535 105.091 222.105 104.949V104.863C221.421 104.564 220.887 104.122 220.502 103.538C220.132 102.954 219.947 102.27 219.947 101.486C219.947 100.93 220.046 100.417 220.246 99.9472C220.445 99.477 220.73 99.078 221.101 98.7502C221.486 98.4083 221.941 98.1446 222.469 97.9594C222.996 97.7742 223.58 97.6815 224.221 97.6815C225.048 97.6815 225.775 97.8312 226.402 98.1304V97.938C226.402 97.5106 226.501 97.1543 226.701 96.8693C226.9 96.5843 227.242 96.4419 227.727 96.4419H229.757V97.938H227.278V98.6861C227.677 99.0281 227.983 99.4342 228.197 99.9044C228.411 100.375 228.518 100.902 228.518 101.486C228.518 102.042 228.411 102.555 228.197 103.025C227.997 103.495 227.712 103.901 227.342 104.243C226.972 104.571 226.516 104.828 225.974 105.013C225.447 105.198 224.863 105.291 224.221 105.291C224.036 105.291 223.858 105.284 223.687 105.269C223.516 105.255 223.345 105.234 223.174 105.205C223.003 105.234 222.825 105.284 222.64 105.355C222.454 105.412 222.283 105.497 222.127 105.611C221.97 105.711 221.842 105.832 221.742 105.975C221.642 106.117 221.592 106.281 221.592 106.466C221.592 106.794 221.756 107.015 222.084 107.129C222.412 107.229 222.839 107.278 223.366 107.278H225.803C227.228 107.278 228.261 107.549 228.902 108.091C229.544 108.618 229.864 109.33 229.864 110.228ZM228.261 110.314C228.261 109.872 228.083 109.516 227.727 109.245C227.371 108.988 226.751 108.86 225.867 108.86H222.041C221.3 109.159 220.93 109.658 220.93 110.356C220.93 110.841 221.122 111.254 221.507 111.596C221.892 111.952 222.533 112.13 223.431 112.13H225.098C226.095 112.13 226.872 111.974 227.428 111.66C227.983 111.361 228.261 110.912 228.261 110.314ZM224.221 103.966C225.076 103.966 225.703 103.766 226.102 103.367C226.516 102.968 226.722 102.441 226.722 101.785V101.166C226.722 100.51 226.516 99.9899 226.102 99.6052C225.703 99.2062 225.076 99.0067 224.221 99.0067C223.366 99.0067 222.739 99.2062 222.34 99.6052C221.941 99.9899 221.742 100.51 221.742 101.166V101.785C221.742 102.441 221.941 102.968 222.34 103.367C222.739 103.766 223.366 103.966 224.221 103.966ZM232.784 108.967V97.938H234.494V99.7335H234.579C234.693 99.4627 234.836 99.2062 235.007 98.964C235.178 98.7075 235.385 98.4866 235.627 98.3014C235.883 98.1162 236.183 97.9665 236.525 97.8525C236.866 97.7385 237.265 97.6815 237.721 97.6815C238.876 97.6815 239.802 98.052 240.5 98.793C241.198 99.5197 241.547 100.553 241.547 101.892V108.967H239.837V102.191C239.837 101.18 239.617 100.432 239.175 99.9472C238.733 99.4485 238.085 99.1991 237.23 99.1991C236.888 99.1991 236.553 99.2419 236.225 99.3273C235.898 99.4128 235.605 99.5411 235.349 99.7121C235.092 99.8831 234.886 100.104 234.729 100.375C234.572 100.645 234.494 100.959 234.494 101.315V108.967H232.784Z" fill="#000A1B"/>
<path d="M6.50216 158.174C5.13482 158.174 4.01476 157.927 3.14198 157.432C2.26921 156.923 1.54917 156.276 0.98187 155.49L2.31285 154.399C2.90924 155.141 3.53473 155.694 4.18931 156.057C4.85844 156.421 5.65121 156.603 6.56762 156.603C7.67313 156.603 8.51681 156.348 9.09866 155.839C9.68051 155.33 9.97144 154.617 9.97144 153.701C9.97144 152.959 9.76052 152.385 9.33868 151.977C8.91684 151.555 8.18225 151.257 7.13492 151.083L5.43301 150.799C4.69116 150.668 4.06567 150.472 3.55655 150.21C3.06198 149.948 2.66196 149.635 2.35649 149.272C2.05102 148.893 1.83282 148.486 1.70191 148.05C1.57099 147.599 1.50553 147.133 1.50553 146.653C1.50553 145.257 1.96374 144.202 2.88015 143.49C3.79656 142.777 5.03299 142.42 6.58944 142.42C7.81132 142.42 8.83683 142.624 9.66597 143.031C10.5096 143.439 11.186 144.013 11.6952 144.755L10.4078 145.868C9.98598 145.315 9.47687 144.864 8.88047 144.515C8.28407 144.166 7.51313 143.991 6.56762 143.991C5.53484 143.991 4.74207 144.21 4.18931 144.646C3.63656 145.082 3.36018 145.737 3.36018 146.61C3.36018 147.293 3.56383 147.853 3.97112 148.29C4.39296 148.712 5.14209 149.017 6.21851 149.206L7.85496 149.49C8.59682 149.621 9.22231 149.817 9.73142 150.079C10.2405 150.341 10.6478 150.654 10.9533 151.017C11.2733 151.381 11.4988 151.788 11.6297 152.239C11.7606 152.69 11.8261 153.163 11.8261 153.657C11.8261 155.068 11.3606 156.174 10.4296 156.974C9.51323 157.774 8.20407 158.174 6.50216 158.174ZM15.2214 141.766H16.9669V148.486H17.0542C17.1706 148.21 17.316 147.948 17.4906 147.701C17.6651 147.439 17.8761 147.213 18.1233 147.024C18.3852 146.835 18.6906 146.682 19.0398 146.566C19.3889 146.45 19.7962 146.392 20.2616 146.392C21.4399 146.392 22.3854 146.77 23.0982 147.526C23.8109 148.268 24.1673 149.323 24.1673 150.69V157.912H22.4218V150.995C22.4218 149.963 22.1963 149.199 21.7454 148.704C21.2944 148.195 20.6326 147.941 19.7598 147.941C19.4107 147.941 19.0688 147.984 18.7343 148.072C18.3997 148.159 18.1015 148.29 17.8397 148.464C17.5779 148.639 17.3669 148.864 17.2069 149.141C17.0469 149.417 16.9669 149.737 16.9669 150.101V157.912H15.2214V141.766ZM32.9083 158.174C32.0937 158.174 31.3592 158.036 30.7046 157.759C30.0645 157.483 29.5118 157.09 29.0463 156.581C28.5954 156.057 28.2463 155.439 27.999 154.726C27.7517 153.999 27.6281 153.192 27.6281 152.305C27.6281 151.403 27.7517 150.588 27.999 149.861C28.2608 149.133 28.6172 148.515 29.0681 148.006C29.5191 147.482 30.0573 147.082 30.6828 146.806C31.3228 146.53 32.0283 146.392 32.7992 146.392C33.5556 146.392 34.2393 146.53 34.8503 146.806C35.4757 147.082 36.0067 147.468 36.4431 147.962C36.8795 148.443 37.214 149.017 37.4468 149.686C37.6795 150.355 37.7959 151.09 37.7959 151.89V152.719H29.4609V153.243C29.4609 153.737 29.5409 154.196 29.7009 154.617C29.8609 155.039 30.0864 155.403 30.3773 155.708C30.6828 156.014 31.0464 156.254 31.4683 156.428C31.9046 156.588 32.3847 156.668 32.9083 156.668C33.6647 156.668 34.3193 156.494 34.8721 156.145C35.4248 155.796 35.8467 155.316 36.1376 154.705L37.4249 155.577C37.0904 156.334 36.5303 156.959 35.7448 157.454C34.9739 157.934 34.0284 158.174 32.9083 158.174ZM32.7992 147.832C32.3192 147.832 31.8756 147.919 31.4683 148.093C31.061 148.268 30.7046 148.508 30.3991 148.813C30.1082 149.119 29.8754 149.483 29.7009 149.904C29.5409 150.312 29.4609 150.763 29.4609 151.257V151.41H35.9194V151.17C35.9194 150.675 35.8394 150.224 35.6794 149.817C35.5339 149.41 35.323 149.061 35.0466 148.77C34.7848 148.464 34.4575 148.232 34.0648 148.072C33.6866 147.912 33.2647 147.832 32.7992 147.832ZM41.3875 157.912V146.653H43.1331V148.486H43.2204C43.3367 148.21 43.4822 147.948 43.6567 147.701C43.8313 147.439 44.0422 147.213 44.2895 147.024C44.5513 146.835 44.8568 146.682 45.2059 146.566C45.555 146.45 45.9623 146.392 46.4278 146.392C47.606 146.392 48.5515 146.77 49.2643 147.526C49.9771 148.268 50.3335 149.323 50.3335 150.69V157.912H48.5879V150.995C48.5879 149.963 48.3624 149.199 47.9115 148.704C47.4606 148.195 46.7987 147.941 45.926 147.941C45.5768 147.941 45.235 147.984 44.9004 148.072C44.5659 148.159 44.2677 148.29 44.0059 148.464C43.744 148.639 43.5331 148.864 43.3731 149.141C43.2131 149.417 43.1331 149.737 43.1331 150.101V157.912H41.3875ZM54.6233 141.766H56.3689V151.955H56.4562L58.4199 150.101L62.1728 146.653H64.3111L59.6418 151.061L64.8566 157.912H62.6965L58.3108 152.065L56.3689 153.832V157.912H54.6233V141.766ZM76.216 157.912C75.5323 157.912 75.045 157.738 74.7541 157.388C74.4631 157.039 74.2813 156.603 74.2086 156.079H74.0995C73.8522 156.734 73.4522 157.25 72.8994 157.628C72.3612 157.992 71.6339 158.174 70.7175 158.174C69.5392 158.174 68.601 157.868 67.9028 157.258C67.2046 156.647 66.8555 155.81 66.8555 154.748C66.8555 153.701 67.2337 152.894 67.9901 152.326C68.761 151.759 69.9975 151.475 71.6994 151.475H74.0995V150.363C74.0995 149.533 73.8667 148.915 73.4013 148.508C72.9358 148.086 72.2739 147.875 71.4157 147.875C70.6593 147.875 70.0411 148.028 69.5611 148.333C69.081 148.624 68.6956 149.024 68.4046 149.533L67.2264 148.661C67.3719 148.37 67.5682 148.086 67.8155 147.81C68.0628 147.533 68.3683 147.293 68.7319 147.09C69.0956 146.872 69.5102 146.704 69.9756 146.588C70.4411 146.457 70.9575 146.392 71.5248 146.392C72.8485 146.392 73.8958 146.726 74.6668 147.395C75.4523 148.064 75.845 148.995 75.845 150.188V156.385H77.416V157.912H76.216ZM71.023 156.712C71.4739 156.712 71.8812 156.661 72.2448 156.559C72.623 156.443 72.9503 156.297 73.2267 156.123C73.5031 155.934 73.714 155.716 73.8595 155.468C74.0195 155.207 74.0995 154.93 74.0995 154.639V152.785H71.6994C70.652 152.785 69.8884 152.93 69.4083 153.221C68.9283 153.512 68.6883 153.934 68.6883 154.486V154.945C68.6883 155.527 68.8919 155.97 69.2992 156.276C69.7211 156.567 70.2956 156.712 71.023 156.712ZM80.1786 156.428H83.4733V148.137H80.1786V146.653H85.2188V149.49H85.3279C85.5607 148.603 85.9971 147.912 86.6371 147.417C87.2917 146.908 88.1208 146.653 89.1245 146.653H90.6955V148.399H88.579C87.5753 148.399 86.7607 148.69 86.1352 149.272C85.5243 149.854 85.2188 150.617 85.2188 151.563V156.428H89.5827V157.912H80.1786V156.428ZM111.712 158.174C109.85 158.174 108.461 157.498 107.545 156.145C106.643 154.792 106.192 152.843 106.192 150.297C106.192 147.752 106.643 145.802 107.545 144.45C108.461 143.097 109.85 142.42 111.712 142.42C112.41 142.42 113.014 142.515 113.523 142.704C114.032 142.893 114.469 143.148 114.832 143.468C115.196 143.788 115.502 144.151 115.749 144.559C115.996 144.951 116.214 145.351 116.403 145.759L114.832 146.479C114.702 146.144 114.549 145.831 114.374 145.541C114.2 145.235 113.989 144.973 113.741 144.755C113.509 144.522 113.225 144.34 112.891 144.21C112.571 144.079 112.178 144.013 111.712 144.013C110.505 144.013 109.603 144.471 109.007 145.388C108.425 146.304 108.134 147.526 108.134 149.053V151.541C108.134 153.068 108.425 154.29 109.007 155.207C109.603 156.123 110.505 156.581 111.712 156.581C112.178 156.581 112.571 156.516 112.891 156.385C113.225 156.254 113.509 156.079 113.741 155.861C113.989 155.628 114.2 155.367 114.374 155.076C114.549 154.77 114.702 154.45 114.832 154.116L116.403 154.836C116.214 155.257 115.996 155.665 115.749 156.057C115.502 156.45 115.196 156.807 114.832 157.127C114.469 157.447 114.032 157.701 113.523 157.89C113.014 158.079 112.41 158.174 111.712 158.174ZM124.294 158.174C123.508 158.174 122.795 158.036 122.155 157.759C121.53 157.483 120.992 157.09 120.541 156.581C120.104 156.057 119.77 155.439 119.537 154.726C119.304 153.999 119.188 153.185 119.188 152.283C119.188 151.395 119.304 150.588 119.537 149.861C119.77 149.133 120.104 148.515 120.541 148.006C120.992 147.482 121.53 147.082 122.155 146.806C122.795 146.53 123.508 146.392 124.294 146.392C125.079 146.392 125.784 146.53 126.41 146.806C127.05 147.082 127.588 147.482 128.025 148.006C128.476 148.515 128.817 149.133 129.05 149.861C129.283 150.588 129.399 151.395 129.399 152.283C129.399 153.185 129.283 153.999 129.05 154.726C128.817 155.439 128.476 156.057 128.025 156.581C127.588 157.09 127.05 157.483 126.41 157.759C125.784 158.036 125.079 158.174 124.294 158.174ZM124.294 156.668C125.268 156.668 126.054 156.377 126.65 155.796C127.246 155.214 127.545 154.312 127.545 153.09V151.475C127.545 150.254 127.246 149.352 126.65 148.77C126.054 148.188 125.268 147.897 124.294 147.897C123.319 147.897 122.533 148.188 121.937 148.77C121.341 149.352 121.042 150.254 121.042 151.475V153.09C121.042 154.312 121.341 155.214 121.937 155.796C122.533 156.377 123.319 156.668 124.294 156.668ZM132.576 156.428H136.504V143.25H132.576V141.766H138.249V156.428H142.177V157.912H132.576V156.428ZM145.659 156.428H149.587V143.25H145.659V141.766H151.332V156.428H155.26V157.912H145.659V156.428ZM163.739 158.174C162.925 158.174 162.19 158.036 161.535 157.759C160.895 157.483 160.343 157.09 159.877 156.581C159.426 156.057 159.077 155.439 158.83 154.726C158.582 153.999 158.459 153.192 158.459 152.305C158.459 151.403 158.582 150.588 158.83 149.861C159.092 149.133 159.448 148.515 159.899 148.006C160.35 147.482 160.888 147.082 161.514 146.806C162.154 146.53 162.859 146.392 163.63 146.392C164.386 146.392 165.07 146.53 165.681 146.806C166.307 147.082 166.837 147.468 167.274 147.962C167.71 148.443 168.045 149.017 168.278 149.686C168.51 150.355 168.627 151.09 168.627 151.89V152.719H160.292V153.243C160.292 153.737 160.372 154.196 160.532 154.617C160.692 155.039 160.917 155.403 161.208 155.708C161.514 156.014 161.877 156.254 162.299 156.428C162.735 156.588 163.215 156.668 163.739 156.668C164.496 156.668 165.15 156.494 165.703 156.145C166.256 155.796 166.677 155.316 166.968 154.705L168.256 155.577C167.921 156.334 167.361 156.959 166.576 157.454C165.805 157.934 164.859 158.174 163.739 158.174ZM163.63 147.832C163.15 147.832 162.706 147.919 162.299 148.093C161.892 148.268 161.535 148.508 161.23 148.813C160.939 149.119 160.706 149.483 160.532 149.904C160.372 150.312 160.292 150.763 160.292 151.257V151.41H166.75V151.17C166.75 150.675 166.67 150.224 166.51 149.817C166.365 149.41 166.154 149.061 165.877 148.77C165.616 148.464 165.288 148.232 164.896 148.072C164.517 147.912 164.096 147.832 163.63 147.832ZM182.321 159.199C182.321 160.334 181.848 161.17 180.902 161.709C179.957 162.261 178.539 162.538 176.648 162.538C174.829 162.538 173.52 162.298 172.72 161.818C171.935 161.338 171.542 160.647 171.542 159.745C171.542 159.134 171.702 158.661 172.022 158.327C172.342 157.992 172.793 157.745 173.375 157.585V157.323C173.055 157.163 172.807 156.959 172.633 156.712C172.458 156.465 172.371 156.152 172.371 155.774C172.371 155.192 172.56 154.756 172.938 154.465C173.331 154.174 173.818 153.956 174.4 153.81V153.723C173.702 153.417 173.157 152.966 172.764 152.37C172.386 151.774 172.196 151.075 172.196 150.275C172.196 149.708 172.298 149.184 172.502 148.704C172.706 148.224 172.997 147.817 173.375 147.482C173.767 147.133 174.233 146.864 174.771 146.675C175.309 146.486 175.906 146.392 176.56 146.392C177.404 146.392 178.146 146.544 178.786 146.85V146.653C178.786 146.217 178.888 145.853 179.091 145.562C179.295 145.271 179.644 145.126 180.139 145.126H182.212V146.653H179.681V147.417C180.088 147.766 180.401 148.181 180.619 148.661C180.837 149.141 180.946 149.679 180.946 150.275C180.946 150.843 180.837 151.366 180.619 151.846C180.415 152.326 180.124 152.741 179.746 153.09C179.368 153.425 178.902 153.686 178.35 153.876C177.811 154.065 177.215 154.159 176.56 154.159C176.371 154.159 176.189 154.152 176.015 154.137C175.84 154.123 175.666 154.101 175.491 154.072C175.317 154.101 175.135 154.152 174.946 154.225C174.757 154.283 174.582 154.37 174.422 154.486C174.262 154.588 174.131 154.712 174.029 154.857C173.927 155.003 173.877 155.17 173.877 155.359C173.877 155.694 174.044 155.919 174.378 156.036C174.713 156.137 175.149 156.188 175.688 156.188H178.175C179.63 156.188 180.684 156.465 181.339 157.018C181.993 157.556 182.321 158.283 182.321 159.199ZM180.684 159.287C180.684 158.836 180.502 158.472 180.139 158.196C179.775 157.934 179.142 157.803 178.24 157.803H174.335C173.578 158.108 173.2 158.618 173.2 159.33C173.2 159.825 173.397 160.247 173.789 160.596C174.182 160.96 174.837 161.141 175.753 161.141H177.455C178.473 161.141 179.266 160.981 179.833 160.661C180.401 160.356 180.684 159.898 180.684 159.287ZM176.56 152.806C177.433 152.806 178.073 152.603 178.48 152.195C178.902 151.788 179.113 151.25 179.113 150.581V149.948C179.113 149.279 178.902 148.748 178.48 148.355C178.073 147.948 177.433 147.744 176.56 147.744C175.688 147.744 175.048 147.948 174.64 148.355C174.233 148.748 174.029 149.279 174.029 149.948V150.581C174.029 151.25 174.233 151.788 174.64 152.195C175.048 152.603 175.688 152.806 176.56 152.806ZM189.905 158.174C189.091 158.174 188.356 158.036 187.702 157.759C187.061 157.483 186.509 157.09 186.043 156.581C185.592 156.057 185.243 155.439 184.996 154.726C184.749 153.999 184.625 153.192 184.625 152.305C184.625 151.403 184.749 150.588 184.996 149.861C185.258 149.133 185.614 148.515 186.065 148.006C186.516 147.482 187.054 147.082 187.68 146.806C188.32 146.53 189.025 146.392 189.796 146.392C190.553 146.392 191.236 146.53 191.847 146.806C192.473 147.082 193.004 147.468 193.44 147.962C193.876 148.443 194.211 149.017 194.444 149.686C194.676 150.355 194.793 151.09 194.793 151.89V152.719H186.458V153.243C186.458 153.737 186.538 154.196 186.698 154.617C186.858 155.039 187.083 155.403 187.374 155.708C187.68 156.014 188.043 156.254 188.465 156.428C188.902 156.588 189.382 156.668 189.905 156.668C190.662 156.668 191.316 156.494 191.869 156.145C192.422 155.796 192.844 155.316 193.135 154.705L194.422 155.577C194.087 156.334 193.527 156.959 192.742 157.454C191.971 157.934 191.025 158.174 189.905 158.174ZM189.796 147.832C189.316 147.832 188.872 147.919 188.465 148.093C188.058 148.268 187.702 148.508 187.396 148.813C187.105 149.119 186.872 149.483 186.698 149.904C186.538 150.312 186.458 150.763 186.458 151.257V151.41H192.916V151.17C192.916 150.675 192.836 150.224 192.676 149.817C192.531 149.41 192.32 149.061 192.044 148.77C191.782 148.464 191.454 148.232 191.062 148.072C190.683 147.912 190.262 147.832 189.796 147.832ZM215.875 158.174C215.09 158.174 214.377 158.036 213.737 157.759C213.111 157.483 212.573 157.09 212.122 156.581C211.686 156.057 211.351 155.439 211.118 154.726C210.886 153.999 210.769 153.185 210.769 152.283C210.769 151.395 210.886 150.588 211.118 149.861C211.351 149.133 211.686 148.515 212.122 148.006C212.573 147.482 213.111 147.082 213.737 146.806C214.377 146.53 215.09 146.392 215.875 146.392C216.661 146.392 217.366 146.53 217.992 146.806C218.632 147.082 219.17 147.482 219.606 148.006C220.057 148.515 220.399 149.133 220.632 149.861C220.864 150.588 220.981 151.395 220.981 152.283C220.981 153.185 220.864 153.999 220.632 154.726C220.399 155.439 220.057 156.057 219.606 156.581C219.17 157.09 218.632 157.483 217.992 157.759C217.366 158.036 216.661 158.174 215.875 158.174ZM215.875 156.668C216.85 156.668 217.635 156.377 218.232 155.796C218.828 155.214 219.126 154.312 219.126 153.09V151.475C219.126 150.254 218.828 149.352 218.232 148.77C217.635 148.188 216.85 147.897 215.875 147.897C214.9 147.897 214.115 148.188 213.519 148.77C212.922 149.352 212.624 150.254 212.624 151.475V153.09C212.624 154.312 212.922 155.214 213.519 155.796C214.115 156.377 214.9 156.668 215.875 156.668ZM224.223 156.428H228.02V148.137H224.005V146.653H228.02V144.34C228.02 143.584 228.216 142.966 228.609 142.486C229.016 142.006 229.649 141.766 230.507 141.766H234.282V143.25H229.765V146.653H234.282V148.137H229.765V156.428H233.78V157.912H224.223V156.428ZM250.651 142.682H254.906C256.768 142.682 258.157 143.322 259.074 144.602C259.99 145.882 260.448 147.781 260.448 150.297C260.448 152.814 259.99 154.712 259.074 155.992C258.157 157.272 256.768 157.912 254.906 157.912H250.651V142.682ZM254.819 156.319C256.041 156.319 256.957 155.897 257.568 155.054C258.194 154.21 258.506 153.017 258.506 151.475V149.119C258.506 147.577 258.194 146.384 257.568 145.541C256.957 144.697 256.041 144.275 254.819 144.275H252.484V156.319H254.819ZM268.404 158.174C267.589 158.174 266.855 158.036 266.2 157.759C265.56 157.483 265.007 157.09 264.542 156.581C264.091 156.057 263.742 155.439 263.494 154.726C263.247 153.999 263.123 153.192 263.123 152.305C263.123 151.403 263.247 150.588 263.494 149.861C263.756 149.133 264.113 148.515 264.564 148.006C265.014 147.482 265.553 147.082 266.178 146.806C266.818 146.53 267.524 146.392 268.295 146.392C269.051 146.392 269.735 146.53 270.346 146.806C270.971 147.082 271.502 147.468 271.938 147.962C272.375 148.443 272.709 149.017 272.942 149.686C273.175 150.355 273.291 151.09 273.291 151.89V152.719H264.956V153.243C264.956 153.737 265.036 154.196 265.196 154.617C265.356 155.039 265.582 155.403 265.873 155.708C266.178 156.014 266.542 156.254 266.964 156.428C267.4 156.588 267.88 156.668 268.404 156.668C269.16 156.668 269.815 156.494 270.367 156.145C270.92 155.796 271.342 155.316 271.633 154.705L272.92 155.577C272.586 156.334 272.026 156.959 271.24 157.454C270.469 157.934 269.524 158.174 268.404 158.174ZM268.295 147.832C267.815 147.832 267.371 147.919 266.964 148.093C266.556 148.268 266.2 148.508 265.895 148.813C265.604 149.119 265.371 149.483 265.196 149.904C265.036 150.312 264.956 150.763 264.956 151.257V151.41H271.415V151.17C271.415 150.675 271.335 150.224 271.175 149.817C271.029 149.41 270.818 149.061 270.542 148.77C270.28 148.464 269.953 148.232 269.56 148.072C269.182 147.912 268.76 147.832 268.295 147.832ZM281.421 158.174C280.243 158.174 279.225 157.978 278.367 157.585C277.523 157.178 276.803 156.639 276.207 155.97L277.385 154.945C277.923 155.512 278.512 155.948 279.152 156.254C279.792 156.559 280.563 156.712 281.465 156.712C282.338 156.712 283.051 156.559 283.603 156.254C284.171 155.934 284.454 155.439 284.454 154.77C284.454 154.479 284.396 154.239 284.28 154.05C284.178 153.846 284.032 153.686 283.843 153.57C283.654 153.454 283.443 153.366 283.211 153.308C282.978 153.235 282.731 153.177 282.469 153.134L280.701 152.872C280.309 152.814 279.879 152.734 279.414 152.632C278.963 152.53 278.548 152.37 278.17 152.152C277.792 151.919 277.472 151.614 277.21 151.235C276.963 150.857 276.839 150.363 276.839 149.752C276.839 149.184 276.948 148.697 277.167 148.29C277.399 147.868 277.719 147.519 278.127 147.242C278.534 146.952 279.014 146.741 279.567 146.61C280.119 146.464 280.723 146.392 281.378 146.392C282.396 146.392 283.276 146.552 284.018 146.872C284.774 147.192 285.422 147.635 285.96 148.203L284.825 149.272C284.694 149.112 284.527 148.952 284.323 148.792C284.134 148.617 283.894 148.464 283.603 148.333C283.327 148.188 283 148.072 282.621 147.984C282.243 147.897 281.807 147.853 281.312 147.853C280.425 147.853 279.741 148.006 279.261 148.312C278.796 148.617 278.563 149.061 278.563 149.643C278.563 149.934 278.614 150.181 278.716 150.384C278.832 150.574 278.985 150.726 279.174 150.843C279.363 150.959 279.574 151.054 279.807 151.126C280.054 151.184 280.301 151.235 280.549 151.279L282.316 151.541C282.723 151.599 283.152 151.679 283.603 151.781C284.054 151.883 284.469 152.05 284.847 152.283C285.225 152.501 285.538 152.799 285.785 153.177C286.047 153.556 286.178 154.05 286.178 154.661C286.178 155.781 285.742 156.647 284.869 157.258C284.011 157.868 282.861 158.174 281.421 158.174ZM295.072 144.166C294.563 144.166 294.206 144.064 294.003 143.86C293.799 143.642 293.697 143.373 293.697 143.053V142.704C293.697 142.384 293.799 142.122 294.003 141.919C294.206 141.7 294.563 141.591 295.072 141.591C295.581 141.591 295.937 141.7 296.141 141.919C296.345 142.122 296.446 142.384 296.446 142.704V143.053C296.446 143.373 296.345 143.642 296.141 143.86C295.937 144.064 295.581 144.166 295.072 144.166ZM290.141 156.428H294.199V148.137H290.141V146.653H295.945V156.428H299.741V157.912H290.141V156.428ZM313.151 159.199C313.151 160.334 312.679 161.17 311.733 161.709C310.788 162.261 309.369 162.538 307.478 162.538C305.66 162.538 304.351 162.298 303.551 161.818C302.765 161.338 302.373 160.647 302.373 159.745C302.373 159.134 302.533 158.661 302.853 158.327C303.173 157.992 303.624 157.745 304.206 157.585V157.323C303.886 157.163 303.638 156.959 303.464 156.712C303.289 156.465 303.202 156.152 303.202 155.774C303.202 155.192 303.391 154.756 303.769 154.465C304.162 154.174 304.649 153.956 305.231 153.81V153.723C304.533 153.417 303.987 152.966 303.595 152.37C303.216 151.774 303.027 151.075 303.027 150.275C303.027 149.708 303.129 149.184 303.333 148.704C303.536 148.224 303.827 147.817 304.206 147.482C304.598 147.133 305.064 146.864 305.602 146.675C306.14 146.486 306.737 146.392 307.391 146.392C308.235 146.392 308.977 146.544 309.617 146.85V146.653C309.617 146.217 309.719 145.853 309.922 145.562C310.126 145.271 310.475 145.126 310.97 145.126H313.042V146.653H310.511V147.417C310.919 147.766 311.231 148.181 311.45 148.661C311.668 149.141 311.777 149.679 311.777 150.275C311.777 150.843 311.668 151.366 311.45 151.846C311.246 152.326 310.955 152.741 310.577 153.09C310.199 153.425 309.733 153.686 309.18 153.876C308.642 154.065 308.046 154.159 307.391 154.159C307.202 154.159 307.02 154.152 306.846 154.137C306.671 154.123 306.497 154.101 306.322 154.072C306.147 154.101 305.966 154.152 305.777 154.225C305.587 154.283 305.413 154.37 305.253 154.486C305.093 154.588 304.962 154.712 304.86 154.857C304.758 155.003 304.707 155.17 304.707 155.359C304.707 155.694 304.875 155.919 305.209 156.036C305.544 156.137 305.98 156.188 306.518 156.188H309.006C310.46 156.188 311.515 156.465 312.17 157.018C312.824 157.556 313.151 158.283 313.151 159.199ZM311.515 159.287C311.515 158.836 311.333 158.472 310.97 158.196C310.606 157.934 309.973 157.803 309.071 157.803H305.166C304.409 158.108 304.031 158.618 304.031 159.33C304.031 159.825 304.227 160.247 304.62 160.596C305.013 160.96 305.667 161.141 306.584 161.141H308.286C309.304 161.141 310.097 160.981 310.664 160.661C311.231 160.356 311.515 159.898 311.515 159.287ZM307.391 152.806C308.264 152.806 308.904 152.603 309.311 152.195C309.733 151.788 309.944 151.25 309.944 150.581V149.948C309.944 149.279 309.733 148.748 309.311 148.355C308.904 147.948 308.264 147.744 307.391 147.744C306.518 147.744 305.878 147.948 305.471 148.355C305.064 148.748 304.86 149.279 304.86 149.948V150.581C304.86 151.25 305.064 151.788 305.471 152.195C305.878 152.603 306.518 152.806 307.391 152.806ZM316.132 157.912V146.653H317.878V148.486H317.965C318.081 148.21 318.227 147.948 318.401 147.701C318.576 147.439 318.787 147.213 319.034 147.024C319.296 146.835 319.601 146.682 319.951 146.566C320.3 146.45 320.707 146.392 321.172 146.392C322.351 146.392 323.296 146.77 324.009 147.526C324.722 148.268 325.078 149.323 325.078 150.69V157.912H323.333V150.995C323.333 149.963 323.107 149.199 322.656 148.704C322.205 148.195 321.543 147.941 320.671 147.941C320.322 147.941 319.98 147.984 319.645 148.072C319.311 148.159 319.012 148.29 318.751 148.464C318.489 148.639 318.278 148.864 318.118 149.141C317.958 149.417 317.878 149.737 317.878 150.101V157.912H316.132ZM344.895 158.174C344.226 158.174 343.629 158.065 343.106 157.847C342.597 157.628 342.16 157.33 341.796 156.952C341.447 156.559 341.178 156.108 340.989 155.599C340.8 155.09 340.706 154.545 340.706 153.963C340.706 153.585 340.749 153.192 340.836 152.785C340.924 152.377 341.076 151.985 341.295 151.606C341.513 151.214 341.796 150.843 342.146 150.494C342.509 150.13 342.967 149.81 343.52 149.533C343.113 149.01 342.771 148.472 342.495 147.919C342.233 147.366 342.102 146.762 342.102 146.108C342.102 145.555 342.204 145.053 342.407 144.602C342.626 144.151 342.909 143.766 343.258 143.446C343.622 143.111 344.044 142.857 344.524 142.682C345.004 142.508 345.513 142.42 346.051 142.42C346.531 142.42 346.968 142.493 347.36 142.639C347.768 142.769 348.124 142.944 348.43 143.162C348.735 143.38 348.99 143.628 349.193 143.904C349.411 144.18 349.571 144.457 349.673 144.733L348.233 145.475C348.044 145.024 347.76 144.653 347.382 144.362C347.004 144.057 346.531 143.904 345.964 143.904C345.309 143.904 344.786 144.108 344.393 144.515C344.015 144.908 343.826 145.417 343.826 146.042V146.217C343.826 146.45 343.855 146.675 343.913 146.893C343.971 147.112 344.058 147.344 344.175 147.592C344.306 147.824 344.466 148.079 344.655 148.355C344.858 148.632 345.098 148.944 345.375 149.293L347.339 151.715L348.931 153.679H349.041C349.142 153.112 349.208 152.465 349.237 151.737C349.266 151.01 349.295 150.297 349.324 149.599H352.401V151.061H350.764C350.721 151.41 350.677 151.737 350.633 152.043C350.59 152.348 350.539 152.646 350.481 152.937C350.422 153.228 350.357 153.526 350.284 153.832C350.211 154.123 350.11 154.436 349.979 154.77L352.641 157.912H350.568L348.67 155.665H348.56C348.357 156.421 347.942 157.032 347.317 157.498C346.691 157.948 345.884 158.174 344.895 158.174ZM345.353 156.625C345.979 156.625 346.531 156.494 347.011 156.232C347.491 155.97 347.87 155.607 348.146 155.141L344.349 150.559C343.68 150.981 343.207 151.461 342.931 151.999C342.655 152.523 342.517 153.097 342.517 153.723V154.05C342.517 154.836 342.778 155.461 343.302 155.927C343.826 156.392 344.509 156.625 345.353 156.625ZM376.821 157.912L375.534 153.57H370.188L368.901 157.912H367.003L371.672 142.682H374.094L378.763 157.912H376.821ZM372.959 144.624H372.763L370.625 151.977H375.098L372.959 144.624ZM381.089 156.428H384.384V148.137H381.089V146.653H386.13V149.49H386.239C386.471 148.603 386.908 147.912 387.548 147.417C388.202 146.908 389.032 146.653 390.035 146.653H391.606V148.399H389.49C388.486 148.399 387.672 148.69 387.046 149.272C386.435 149.854 386.13 150.617 386.13 151.563V156.428H390.493V157.912H381.089V156.428ZM399.584 157.912C398.725 157.912 398.093 157.672 397.685 157.192C397.293 156.712 397.096 156.094 397.096 155.337V148.137H393.343V146.653H396.136C396.514 146.653 396.776 146.581 396.922 146.435C397.082 146.275 397.162 146.006 397.162 145.628V142.682H398.842V146.653H403.969V148.137H398.842V156.428H403.969V157.912H399.584ZM408.412 158.108C407.816 158.108 407.394 157.985 407.146 157.738C406.914 157.49 406.797 157.178 406.797 156.799V156.407C406.797 156.028 406.914 155.716 407.146 155.468C407.394 155.221 407.816 155.097 408.412 155.097C409.008 155.097 409.423 155.221 409.656 155.468C409.903 155.716 410.027 156.028 410.027 156.407V156.799C410.027 157.178 409.903 157.49 409.656 157.738C409.423 157.985 409.008 158.108 408.412 158.108Z" fill="#000A1B"/>
</svg>
